<svg xmlns="http://www.w3.org/2000/svg" xmlns:xlink="http://www.w3.org/1999/xlink" width="314" height="467" viewBox="0 0 314 467">
  <defs>
    <clipPath id="clip-path">
      <rect id="Rectangle_3717" data-name="Rectangle 3717" width="314" height="467" transform="translate(-22674 5462)" fill="#202124"/>
    </clipPath>
  </defs>
  <g id="Mask_Group_543" data-name="Mask Group 543" transform="translate(22674 -5462)" clip-path="url(#clip-path)">
    <g id="Group_15255" data-name="Group 15255" transform="translate(-22788 5772.046)">
      <path id="Path_15843" data-name="Path 15843" d="M479.474,1127.469c-5.441-7.124-14.9-10.492-14.9-10.492s-20.6,32.255-47.8,41.453-36.271-9.716-43.266-20.208S359,1103.5,359,1103.5a92.169,92.169,0,0,0-13.343-25.649c-9.586-12.954-24.612-21.115-33.81-25.131S294.1,1045.6,294.1,1045.6l-3.886,3.757-44.561,62.956-36.789,21.192s-1.269,2.125-2.85,4.767a.746.746,0,0,1-.026.622.779.779,0,0,1-.622.441c-2.358,3.912-5.1,8.394-5.415,8.6-.466.311-10.285,11.633-12.254,13.887,17.125,14.923,39.95,31.918,65.08,48.422,11.166,7.332,22.255,14.223,32.9,20.493l22.462-27.592c-.1-.078-.181-.129-.285-.207a.777.777,0,0,1,.933-1.244,2.97,2.97,0,0,1,.337.259l11.918-14.638c32.9,26.426,71.765,21.892,71.765,21.892s24.353-2.073,52.075-22.8,40.028-49.225,40.028-49.225S484.915,1134.593,479.474,1127.469Z" transform="translate(-157.943 -954.041)" fill="#fff"/>
      <g id="Group_15231" data-name="Group 15231" transform="translate(176.913 102.699)">
        <path id="Path_15844" data-name="Path 15844" d="M767.721,1088.6s4.586,8.731,9.923,13.394c5.363,4.664,13.55,7.695,13.55,7.695l-15.1,18.395L755.7,1099.766Z" transform="translate(-755.7 -1088.6)" fill="#fff"/>
      </g>
      <g id="Group_15236" data-name="Group 15236" transform="translate(181.266 105.005)">
        <g id="Group_15233" data-name="Group 15233">
          <g id="Group_15232" data-name="Group 15232">
            <path id="Path_15845" data-name="Path 15845" d="M782.423,1105.739a47.412,47.412,0,0,1-5.182-8.239c-.8.751-1.658,1.451-2.435,2.228-.181.181-.363.389-.544.57l-.026.026a12.838,12.838,0,0,1-.907,1.5,4.622,4.622,0,0,1-.829,1.114,56.85,56.85,0,0,0,4.43,6.71A51.416,51.416,0,0,0,796,1125.014c1.5-1.865,3.316-3.42,4.871-5.233A43.967,43.967,0,0,1,782.423,1105.739Z" transform="translate(-772.5 -1097.5)" fill="#fff"/>
          </g>
        </g>
        <g id="Group_15235" data-name="Group 15235" transform="translate(12.773 27.436)">
          <g id="Group_15234" data-name="Group 15234">
            <path id="Path_15846" data-name="Path 15846" d="M821.8,1203.4a28.933,28.933,0,0,1,2.28,4.353c.311.855.518,1.71.751,2.591.026.052.1.337.181.57.1.155.363.647.466.855.518-.467,1.01-.933,1.529-1.4.518-.492,1.01-.984,1.477-1.5a8.963,8.963,0,0,0,.648-.751c.026-.052.078-.1.13-.181a5.561,5.561,0,0,1,.363-.466A40.072,40.072,0,0,1,821.8,1203.4Z" transform="translate(-821.8 -1203.4)" fill="#fff"/>
          </g>
        </g>
      </g>
      <path id="Path_15847" data-name="Path 15847" d="M759.252,1123.89c0-.026-.026-.026,0,0,.7-1.192,1.4-2.358,2.1-3.575a40.13,40.13,0,0,0-6.529-3.239s-1.01,1.607-2.9,4.172c-.337.44-.7.855-1.062,1.269-.052.13-.1.259-.181.415-7.332,9.741-23.732,28.861-43.655,35.6-27.2,9.2-36.271-9.716-43.266-20.208s-14.508-34.717-14.508-34.717a92.174,92.174,0,0,0-13.342-25.649c-9.586-12.954-24.613-21.115-33.81-25.13s-17.747-7.125-17.747-7.125l-3.886,3.757-1.062,1.5c5.752,1.114,21.763,5.752,34.354,14.586,14.508,10.467,19.82,23.965,27.2,43.4,5.181,13.654,11.918,34.432,23.55,47.437a.08.08,0,0,0-.052-.026s6.244,6.606,7.954,12.229-1.554,11.218-3.627,13.6c-2.772,3.186-3.549,7.176.674,8.653s13.809-5.907,21.167-12.928c10.415-9.923,24.405-14.975,24.405-14.975l-.544.155a98.6,98.6,0,0,0,32.825-23.6,54.966,54.966,0,0,1,15.234,18.084,12.733,12.733,0,0,1,1.477-2.15c1.01-1.269,2.228-2.383,3.29-3.627a62.133,62.133,0,0,0-15.415-17.617c1.192-1.477,2.332-2.979,3.446-4.534a52.686,52.686,0,0,1,14.716,18.032,21.824,21.824,0,0,0,1.166-1.969c.129-.259.259-.492.363-.751a2.374,2.374,0,0,1,.078-.233,11.521,11.521,0,0,0,.388-1.632,4.215,4.215,0,0,1,1.891-2.8C768.968,1132,766.04,1129.356,759.252,1123.89Z" transform="translate(-448.162 -954.115)" fill="#fff"/>
      <g id="Group_15237" data-name="Group 15237" transform="translate(131.766 23.295)">
        <path id="Path_15848" data-name="Path 15848" d="M608.631,859.886l2.928-22.98a27.024,27.024,0,0,0,15.881-4.663c8.109-5.363,7.954-10.881,8.809-11.736s5.389-6.4,7.073-6.658,5.13-4.4,4.094-6.27-5.441.052-6.865-1.036-2.021-8.42-3.627-11.451-8.291-11.969-10.83-12.9-8.55,7.254-8.55,7.254l-16.011,4.974s-15.337,2.28-15.6,2.461-4.275,8.239-4.275,8.239-.466,9.016-.052,9.068,4.871,13.861,4.871,13.861l-.648,22.333s9.275,3.368,13.006,4.974S608.631,859.886,608.631,859.886Z" transform="translate(-581.437 -782.114)" fill="#fff"/>
      </g>
      <g id="Group_15238" data-name="Group 15238" transform="translate(188.961 84.933)">
        <path id="Path_15849" data-name="Path 15849" d="M826.786,1020.28a3.669,3.669,0,0,1-1.114,4.4c-2.332,2.151-4.741,4.663-4.482,5.259S823,1033.13,823,1033.13s7.954,2.41,7.435,2.591-11.063,20.648-11.063,20.648a45.372,45.372,0,0,1-9.845-7.772,50.3,50.3,0,0,1-7.332-10.8s5.959-8.472,7.254-9.508,12.513-7.514,12.513-7.514S825.569,1019.5,826.786,1020.28Z" transform="translate(-802.2 -1020.028)" fill="#fff"/>
      </g>
      <g id="Group_15239" data-name="Group 15239" transform="translate(306.634 133.426)">
        <path id="Path_15850" data-name="Path 15850" d="M1256.4,1236.709l4.741-7.306s.6-6.814-.7-9.845-2.591-11.84.6-12.358a12.907,12.907,0,0,1,3.368,4.145,39.75,39.75,0,0,0,2.409,4.223s3.187-4.663,6.3-5.363,5.518-.182,5.7.855.7,3.627,1.3,3.886,3.964,1.114,3.964,2.254c0,1.114.7,2.85,1.218,3.109s1.218,2.254,1.632,2.85c.44.6,2.072,1.632,2.072,3.549s-1.736,10.182-5.1,14.508-9.508,10.8-9.508,10.8-5.1-6.917-8.109-9.508S1256.4,1236.709,1256.4,1236.709Z" transform="translate(-1256.4 -1207.2)" fill="#fff"/>
      </g>
      <g id="Group_15240" data-name="Group 15240" transform="translate(306.686 133.451)">
        <path id="Path_15851" data-name="Path 15851" d="M1261.134,1207.818l.285-.363a2.381,2.381,0,0,1-.181-.156c-3.187.518-1.891,9.327-.6,12.358s.7,9.845.7,9.845l-4.741,7.306s3.109,1.451,6.063,3.187l.466.052a12.846,12.846,0,0,0,3.316-6.4c.855-4.922-2.591-13.394-4.482-18.731C1260.3,1210.383,1261.134,1207.818,1261.134,1207.818Z" transform="translate(-1256.6 -1207.3)" fill="#fff"/>
      </g>
      <g id="Group_15241" data-name="Group 15241" transform="translate(2.048 0)">
        <path id="Path_15852" data-name="Path 15852" d="M275.484,697.744c-2.668-5-10.881-7.436-19.353-3.808s-8.809,9.845-15.208,8.809a28.247,28.247,0,0,0-22.98,6.4c-7.772,6.581-10.182,8.472-15.882,6.736s-14.845-.182-21.944,10.544c-7.073,10.7-12.254,13.809-20.545,12.773a29.914,29.914,0,0,0-26.944,11.918c-7.073,9.664-5.881,12.954-16.244,16.063s-18.835,7.954-20.389,15.208-3.627,10.7-8.109,15.545-10.208,13.032-5.182,23.5c5.311,11.063,12.047,10.415,17.306,22.877,4.068,9.664,12.047,25.649,27.592,29.095s32.644-8.291,42.152-6.037,18.654,3.808,26.245-6.917,9.327-12.773,16.4-16.4,9.508-9.508,7.954-21.944-11.218-28.5-4.663-38.525,11.063-16.4,8.99-25.208-8.938-11.555-8.6-16.736,4.9-9.534,9.327-7.772c5.648,2.254,3.912,7.176,6.814,7.746,2.565.518,3.549-2.565,4.741-7.41,1.218-4.845,1.425-7.1,5-6.736,3.964.414,8.265,1.5,10.778-1.606,1.943-2.384.466-4.2,1.84-6.866,2.073-3.99,8.342-.648,15.856-6.088S276.987,700.542,275.484,697.744Z" transform="translate(-80.747 -692.2)" fill="#677282"/>
      </g>
      <g id="Group_15242" data-name="Group 15242" transform="translate(139.078 43.445)">
        <path id="Path_15853" data-name="Path 15853" d="M610.449,866.629a.716.716,0,0,1-.233-.026.787.787,0,0,1-.518-.984c1.762-5.6,5.726-6.088,7.565-5.57a.779.779,0,1,1-.415,1.5c-.181-.052-3.912-.959-5.648,4.534A.8.8,0,0,1,610.449,866.629Z" transform="translate(-609.662 -859.891)" fill="#677282"/>
      </g>
      <g id="Group_15243" data-name="Group 15243" transform="translate(142.463 44.051)">
        <path id="Path_15854" data-name="Path 15854" d="M625.441,868.153a.789.789,0,0,1-.7-.466l-1.943-4.353a.783.783,0,1,1,1.425-.647l1.943,4.353a.787.787,0,0,1-.389,1.036A.578.578,0,0,1,625.441,868.153Z" transform="translate(-622.727 -862.227)" fill="#677282"/>
      </g>
      <g id="Group_15244" data-name="Group 15244" transform="matrix(-0.966, -0.259, 0.259, -0.966, 181.1, 39.421)">
        <path id="Path_15855" data-name="Path 15855" d="M2.344,4.425A9.77,9.77,0,0,1,.66,4.3.773.773,0,1,1,.893,2.767c4.922.7,6.969-2.384,7-2.409a.769.769,0,1,1,1.3.829A8.031,8.031,0,0,1,2.344,4.425Z" transform="translate(0 0)" fill="#677282"/>
      </g>
      <path id="Path_15856" data-name="Path 15856" d="M739.629,859.815a13.229,13.229,0,0,0,4.974.233c1.088-.181,1.839-.57,1.917-1.01s-.44-1.088-1.347-1.71a13.722,13.722,0,0,0-4.612-1.839,16.33,16.33,0,0,0-3.316-.389c-2.1,0-3.446.544-3.575,1.14C733.489,857.147,735.717,858.96,739.629,859.815Z" transform="translate(-562.457 -812.896)" fill="#fff"/>
      <path id="Path_15857" data-name="Path 15857" d="M741.651,851.738a15.12,15.12,0,0,0-5.156-2.073c-3.86-.829-8.213-.44-8.731,1.943s3.29,4.56,7.151,5.389a16.405,16.405,0,0,0,3.627.414,11.383,11.383,0,0,0,1.943-.155c1.814-.311,2.928-1.088,3.187-2.2C743.879,853.966,743.179,852.774,741.651,851.738Zm-12.384.207c.13-.6,1.477-1.14,3.575-1.14a14.833,14.833,0,0,1,3.316.389,13.666,13.666,0,0,1,1.839.518c-1.4.259-2.358.8-2.539,1.606s.466,1.684,1.632,2.487a12.5,12.5,0,0,1-1.891-.311C731.313,854.64,729.086,852.826,729.267,851.945Z" transform="translate(-558.053 -808.575)" fill="#677282"/>
      <g id="Group_15245" data-name="Group 15245" transform="translate(162.007 59.535)">
        <path id="Path_15858" data-name="Path 15858" d="M710.591,925.168c1.192.233,2.429-.321,3.776-.5,2.332-.311,2.357,2.746,1.555,4.56-1.036,2.332-4.2,3.653-8.705,2.876s-10.311-3.757-8.809-8.083,14.638-.544,15.959.648c.827.738-3.227,1.9-4.772,1.773C708.568,926.357,709.867,925.023,710.591,925.168Z" transform="translate(-698.166 -921.996)" fill="#677282"/>
      </g>
      <path id="Path_15859" data-name="Path 15859" d="M793.572,1105.99c-.026-2.746-3.912-6.218-4.352-6.606a.771.771,0,0,0-1.166.181l-2.513,4.223a28.865,28.865,0,0,1-6.5-4.767,58.182,58.182,0,0,1-9.689-13.006.025.025,0,0,0-.026-.026c-.026-.026-.026-.052-.052-.078s-.026-.052-.052-.052l-.026-.026-.026-.026c-.026-.026-.052-.026-.052-.052-.026-.026-.052-.026-.052-.052a.09.09,0,0,1-.052-.026c-.026,0-.052-.026-.078-.026s-.052-.026-.078-.026a.1.1,0,0,1-.078-.026h-.233a.1.1,0,0,0-.078.026.1.1,0,0,0-.078.026c-.026,0-.052.026-.078.026a5.211,5.211,0,0,1-.052.052c-.026.026-.052.026-.078.052s-.052.026-.052.052l-.026.026-10.881,10.622a.775.775,0,0,0-.026,1.088.792.792,0,0,0,.544.233.747.747,0,0,0,.544-.233l10.156-9.9a59.175,59.175,0,0,0,9.482,12.488,33.56,33.56,0,0,0,12.928,7.643l-13.627,16.452a.753.753,0,0,0,.1,1.088.729.729,0,0,0,.492.181.776.776,0,0,0,.6-.285l14.353-17.333A2.544,2.544,0,0,0,793.572,1105.99Z" transform="translate(-579.74 -983.679)" fill="#677282"/>
      <g id="Group_15248" data-name="Group 15248" transform="translate(187.263 60.885)">
        <g id="Group_15246" data-name="Group 15246" transform="translate(0.883 1.342)">
          <path id="Path_15860" data-name="Path 15860" d="M800.44,960.94l6.658,2.409s29.535,10.544,29.794,10.285,4.482-3.964,5.959-8.109a58.794,58.794,0,0,0,2.254-9.4l-12-8.731-15.363-12.1-4.586-2.591s-1.3-2.332-6.917,5.7a38.652,38.652,0,0,0-6.555,15.882S797.849,959.644,800.44,960.94Z" transform="translate(-799.055 -932.386)" fill="#fff"/>
        </g>
        <path id="Path_15861" data-name="Path 15861" d="M830.9,1028.718c1.062-.7,2.125-1.4,3.213-2.1,2.954-1.943,5.985-3.912,9.431-4.741a4.748,4.748,0,0,1,1.71-.156,1.927,1.927,0,0,1,1.425.855,2.157,2.157,0,0,1-.363,2.383,14.871,14.871,0,0,1-1.917,1.684,15.885,15.885,0,0,0-2.1,2.28c-.7.881-1.451,1.917-1.192,3.031a5.783,5.783,0,0,0,1.243,1.943,1.987,1.987,0,0,1,.389,2.151c-.492.777-1.658.7-2.565.518-1.528-.311-3.083-.648-4.612-.959a11.92,11.92,0,0,1-3.99-1.347,10.3,10.3,0,0,1-2.383-2.358C827.9,1030.169,829.631,1029.548,830.9,1028.718Z" transform="translate(-820.161 -997.216)" fill="#fff"/>
        <g id="Group_15247" data-name="Group 15247" transform="translate(21.232 18.886)">
          <path id="Path_15862" data-name="Path 15862" d="M895.037,1024.586a.923.923,0,0,1-.259-.052l-16.659-5.8a.749.749,0,0,1-.466-.985.78.78,0,0,1,.985-.466l16.244,5.648a21.75,21.75,0,0,0,5.6-7.954,34.859,34.859,0,0,0,2.1-8.368l-6.814-5.1a.777.777,0,0,1,.933-1.244l7.176,5.363a.767.767,0,0,1,.311.673,36.229,36.229,0,0,1-2.254,9.223,22.993,22.993,0,0,1-6.4,8.887A.726.726,0,0,1,895.037,1024.586Z" transform="translate(-877.601 -1000.105)" fill="#677282"/>
        </g>
        <path id="Path_15863" data-name="Path 15863" d="M819.368,933.837l-7.824-5.855a1.543,1.543,0,0,0-.725-.622c-3.238-1.477-8.627,8.031-11.037,13.265s-6.089,15.545-2.876,17.021a2.242,2.242,0,0,0,.6.156l6.5,2.254a.927.927,0,0,0,.259.052.77.77,0,0,0,.233-1.5l-4.819-1.658c2.979-2.332,6.451-8.627,8.265-12.539,1.736-3.783,4.145-10.234,4.119-14.068l6.347,4.741a.777.777,0,0,0,1.088-.155A.753.753,0,0,0,819.368,933.837Zm-9.3-.6a50.448,50.448,0,0,1-3.627,10.441,51.275,51.275,0,0,1-5.544,9.56c-2.047,2.669-3.135,2.953-3.265,2.876-.155-.078-.622-1.062.052-4.378A50.438,50.438,0,0,1,801.31,941.3a51.252,51.252,0,0,1,5.544-9.56c1.891-2.461,2.954-2.9,3.213-2.9h.052C810.274,928.94,810.74,929.951,810.067,933.241Z" transform="translate(-795.649 -927.206)" fill="#677282"/>
      </g>
      <g id="Group_15250" data-name="Group 15250" transform="translate(205.793 62.727)">
        <g id="Group_15249" data-name="Group 15249" transform="translate(0.449 0.721)">
          <path id="Path_15864" data-name="Path 15864" d="M877.268,937.435c.466.156.389,3.886.829,3.627s2.8-.389,3.5.726a13.862,13.862,0,0,1,1.166,3.575s1.865-.466,2.539.311a5.768,5.768,0,0,1,.829,2.591s1.943.259,2.539,1.425a26.214,26.214,0,0,1,1.166,4.87s.259,3.834-.207,3.834-2.979-2.539-2.979-2.539-.389,2.332-.984,2.332-2.643-3.575-2.643-3.575-1.088,3.316-1.943,3.057-2.2-3.057-2.591-6.788a19.013,19.013,0,0,0-1.3-5.648s-5.052,10.363-7.384,8.757.57-5.907.57-5.907l3.238-6.892-2.979-2.176A6.593,6.593,0,0,1,877.268,937.435Z" transform="translate(-868.9 -937.097)" fill="#fff"/>
        </g>
        <path id="Path_15865" data-name="Path 15865" d="M889.095,952.655a45.57,45.57,0,0,0-1.036-5.052,2.8,2.8,0,0,0-2.617-2.2c-.1-.492-.207-.907-.285-1.166a2.835,2.835,0,0,0-3.187-1.943,13.478,13.478,0,0,0-.622-2.124,3.6,3.6,0,0,0-3.886-2.228,3.482,3.482,0,0,0-1.088-2.8c-3.264-2.513-7.954,1.5-8.161,1.658a.771.771,0,0,0,1.01,1.166c.026-.026,3.938-3.342,6.192-1.606,1.036.8.388,4.87-1.5,9.275-1.218,2.824-3.109,5.233-4.43,5.648a.739.739,0,0,1-.7-.052c-.052-.1-.466-1.088,1.425-5.933,1.062-2.695,2.306-5.233,2.332-5.26a.776.776,0,0,0-1.4-.674c-.026.026-1.373,2.8-2.487,5.7-1.71,4.482-1.943,6.71-.7,7.487a2.189,2.189,0,0,0,1.192.337,3.05,3.05,0,0,0,.8-.13c2.073-.648,4.2-3.757,5.389-6.529.1-.259.285-.674.492-1.218.13,1.192.337,2.85.622,4.508.6,3.472,1.373,6.736,3.057,6.891h.207a1.79,1.79,0,0,0,1.244-.518,3.579,3.579,0,0,0,.8-1.192c.544,1.114,1.373,2.2,2.513,2.2a2.255,2.255,0,0,0,.415-.052,1.394,1.394,0,0,0,.933-.751.96.96,0,0,0,.13-.285,4.121,4.121,0,0,0,1.813,1.373,1.8,1.8,0,0,0,.6.1,1.23,1.23,0,0,0,.777-.259C889.276,956.8,889.664,956.489,889.095,952.655Zm-9.353,2.228c-.855-.544-1.995-5.829-2.487-11.659a.753.753,0,0,0-.544-.673,20.09,20.09,0,0,0,.674-3.057,2.143,2.143,0,0,1,2.513,1.218c.855,2.228,1.062,5.078,1.114,8.679.026,2.539-.415,4.793-1.062,5.389A.311.311,0,0,1,879.742,954.883Zm4.56.492c-.466-.052-1.321-1.373-1.813-3.187-.026-.052-.026-.1-.052-.156a22.64,22.64,0,0,0,.129-2.642,43.909,43.909,0,0,0-.337-5.544,1.29,1.29,0,0,1,1.451.881,38.478,38.478,0,0,1,.881,5.751C884.846,954.157,884.431,955.168,884.3,955.375Zm1.969-2.1a.368.368,0,0,0-.052-.155,27.535,27.535,0,0,0-.13-3.109c-.078-1.036-.207-2.073-.363-2.979a1.443,1.443,0,0,1,.855,1.037,39.4,39.4,0,0,1,1.269,7.565A3.7,3.7,0,0,1,886.271,953.276Z" transform="translate(-867.168 -934.316)" fill="#677282"/>
      </g>
      <g id="Group_15251" data-name="Group 15251" transform="translate(28.652 175.024)">
        <path id="Path_15866" data-name="Path 15866" d="M184.2,1401.711a.706.706,0,0,1-.544-.233.774.774,0,0,1,0-1.088c.181-.181,17.928-17.669,22.488-32.074a.787.787,0,1,1,1.5.466c-1.969,6.218-6.425,13.628-13.213,22-5.052,6.218-9.612,10.674-9.638,10.726A1.106,1.106,0,0,1,184.2,1401.711Z" transform="translate(-183.437 -1367.762)" fill="#677282"/>
      </g>
      <g id="Group_15252" data-name="Group 15252" transform="translate(208.171 99.731)">
        <path id="Path_15867" data-name="Path 15867" d="M877.139,1094.49a.818.818,0,0,1-.415-.1.768.768,0,0,1-.259-1.062,128.332,128.332,0,0,0,7.98-15.7.772.772,0,0,1,1.425.6,129.664,129.664,0,0,1-8.083,15.907A.738.738,0,0,1,877.139,1094.49Z" transform="translate(-876.348 -1077.144)" fill="#677282"/>
      </g>
      <path id="Path_15868" data-name="Path 15868" d="M1285.539,1190.261c-.052-.026-.1-.078-.13-.078a2.376,2.376,0,0,1-.207-.777,3.66,3.66,0,0,0-.415-1.27,3.276,3.276,0,0,0-1.321-1.088c-.259-.129-.414-.207-.466-.311a2,2,0,0,1-.181-1.036,3.291,3.291,0,0,0-.648-2.176,3.915,3.915,0,0,0-2.8-1.3c-.466-.078-1.062-.181-1.14-.363a3.635,3.635,0,0,1-.156-.932c-.155-1.477-.466-4.223-4.093-4.638-3.679-.414-7.306,3.29-8.446,4.534l-2.591-2.668c-.052-.052-.1-.078-.13-.1-1.684-3.083-2.72-3.99-3.523-4.145a11.72,11.72,0,0,1-1.716-4.812,10.572,10.572,0,0,1,.55-4.826.778.778,0,1,0-1.477-.492,12.559,12.559,0,0,0,1.114,10.6,3.512,3.512,0,0,0-.881,1.036c-1.14,2.047-1.062,5.907.181,9.586a28.82,28.82,0,0,1,1.244,11.762c-.337.622-2.617,4.067-4.69,7.1a.79.79,0,0,0,.207,1.088.678.678,0,0,0,.44.13.81.81,0,0,0,.648-.337c4.819-7.073,4.87-7.41,4.922-7.617a29.388,29.388,0,0,0-1.3-12.591c-1.3-3.783-1.062-6.969-.311-8.316a1.466,1.466,0,0,1,.777-.725c1.062.337,4.016,5.933,6.529,12.332v.026c0,.026.026.052.026.078.026.026.026.052.052.078v.026l.026.026.078.078c.026,0,.026.026.052.026a.135.135,0,0,0,.1.052c.026,0,.026.026.052.026.052.026.1.026.156.052h0c.052,0,.1.026.156.026h.155c.052,0,.078-.026.1-.026h.026a.025.025,0,0,0,.026-.026c.026,0,.052-.026.078-.052.026,0,.026-.026.052-.026a.026.026,0,0,0,.026-.026,20.1,20.1,0,0,0,2.28-2.021c1.606-1.632,2.435-3.109,2.513-4.378a.765.765,0,0,0-1.529-.078,4.723,4.723,0,0,1-1.244,2.461l-2.073-2.124c1.27-1.476,4.457-4.43,7.177-4.119,2.384.285,2.565,1.787,2.72,3.264a4.306,4.306,0,0,0,.285,1.4c.414.959,1.425,1.114,2.306,1.244a2.828,2.828,0,0,1,1.813.725,1.787,1.787,0,0,1,.337,1.244,3.761,3.761,0,0,0,.337,1.71,2.325,2.325,0,0,0,1.14,1.01,1.731,1.731,0,0,1,.725.544,3,3,0,0,1,.181.7,2.575,2.575,0,0,0,.881,1.762,1.125,1.125,0,0,0,.181.1,2.567,2.567,0,0,1,1.5,2.331v.44c-.052,2-.1,5.363-4.223,12.41-3.213,5.492-10.156,11.943-10.208,12a.774.774,0,0,0-.052,1.088.831.831,0,0,0,.57.259.771.771,0,0,0,.518-.207c.285-.259,7.176-6.658,10.519-12.358,4.327-7.41,4.378-11.011,4.43-13.161v-.415A4.222,4.222,0,0,0,1285.539,1190.261Zm-18.965-4.016c-.363-.881-.933-2.254-1.606-3.757l2.695,2.746C1267.274,1185.623,1266.885,1185.96,1266.575,1186.245Z" transform="translate(-947.609 -1041.213)" fill="#677282"/>
      <g id="Group_15253" data-name="Group 15253" transform="translate(231.314 94.169)">
        <path id="Path_15869" data-name="Path 15869" d="M1021.724,1105.478a28.955,28.955,0,0,1-4.421-.337c-16.69-2.513-16.948-10.856-17.169-18.939a30.13,30.13,0,0,0-1.105-8.757c-2.653-7.9-12.748-17.954-32.422-20.234-.59-.078-.995-.467-.921-.881a1.153,1.153,0,0,1,1.253-.648c20.743,2.383,31.39,13.032,34.227,21.4a31.214,31.214,0,0,1,1.142,9.068c.11,4.016.221,7.8,2.211,10.907,2.174,3.446,6.374,5.519,13.227,6.555a21.165,21.165,0,0,0,12.748-1.632,22.93,22.93,0,0,0,9.911-10.285,39.729,39.729,0,0,0,2.789-6.854c.074-.414.417-.659,1.006-.582.59.052.669.289.559.7-.111.518-2.4,13.105-13.011,18.287A22.33,22.33,0,0,1,1021.724,1105.478Z" transform="translate(-965.677 -1055.677)" fill="#677282"/>
      </g>
      <path id="Path_15870" data-name="Path 15870" d="M762.747,1096.621c-9.12-17.462-20.415-20.312-20.882-20.441h-.337c-.026,0-.026,0-.052.026-.026,0-.052.026-.078.026s-.026.026-.052.026c-.026.026-.052.026-.078.052-.026,0-.026.026-.052.026-.026.026-.052.026-.078.052l-.052.052c-.026.026-.052.052-.052.078v.026a120.774,120.774,0,0,1-29.846,31.634c-12.1,8.679-23.965,12.876-33.4,11.814-8.964-1.01-17.358-7.747-24.949-20-5.6-9.042-10.648-20.7-15.933-36.712-3.757-11.374-8.783-20.649-15.337-28.343-5.234-6.14-11.322-11.218-19.742-16.5-2.176-1.373-4.456-2.643-6.71-3.808l2.539-22.384a.77.77,0,0,0-1.529-.182l-2.487,21.814c-4.871-2.435-9.638-4.4-13.317-5.8-3.5-1.347-6.3-2.254-8.006-2.8-3.342-1.062-3.575-.984-3.783-.907a.786.786,0,0,0,.233,1.529h0c1.632.259,19.172,5.7,32.229,13.861,13.032,8.161,26.245,19.146,34.431,44.017,7.8,23.654,20.649,55.365,42.178,57.774a27.579,27.579,0,0,0,3.264.181c11.555,0,23.188-6.529,31.219-12.28a121.59,121.59,0,0,0,29.924-31.556c2.254.751,11.5,4.663,19.2,19.172a89.06,89.06,0,0,1-6.581,12.177,144.073,144.073,0,0,1-23.835,28.317c-24.716,22.877-52.1,33.421-79.174,30.546a106.5,106.5,0,0,1-38.706-12.151,89.879,89.879,0,0,1-14.586-9.586h0c-.1-.1-10.985-9.327-15.6-18.835a77.4,77.4,0,0,1-4.689-12.488c-.907-3.005-1.5-5-2.617-6.114a4.589,4.589,0,0,0-4.353-1.114,6.179,6.179,0,0,0-4.352,4.171c-.648,1.995-3.472,12.721,5.337,26.737a67.611,67.611,0,0,0,8.213,10.13c5.1,5.466,7.747,8.627,5.1,12.254l-.518.648a.907.907,0,0,0-.156.363l-22.877,28.525a.778.778,0,0,0,.13,1.088.882.882,0,0,0,.492.181.737.737,0,0,0,.6-.285l34.924-43.551a94.585,94.585,0,0,0,14.2,9.249,108.389,108.389,0,0,0,39.328,12.358,87.851,87.851,0,0,0,42.593-6.3c13.109-5.285,25.83-13.6,37.8-24.664,22.851-21.115,30.856-41.193,30.934-41.4A1.251,1.251,0,0,0,762.747,1096.621Z" transform="translate(-435.024 -913.867)" fill="#677282"/>
      <path id="Path_15871" data-name="Path 15871" d="M707.627,801.3c-1.321-1.114-2.746-.855-4.145-.622a9.206,9.206,0,0,1-2.073.182c-.622-.026-.648-.026-1.01-1.995a44.681,44.681,0,0,0-1.788-7c-2.617-7.824-12.436-16.244-12.85-16.607a.771.771,0,0,0-1.011,1.166c.1.078,9.9,8.5,12.41,15.908a43.541,43.541,0,0,1,1.736,6.788c.363,1.969.57,3.161,2.461,3.264a10.287,10.287,0,0,0,2.435-.207c1.347-.233,2.15-.337,2.876.285a1.757,1.757,0,0,1,.518,1.58,4.871,4.871,0,0,1-3.109,3.394c-3.523,1.555-6.866,5.182-8.938,9.716a23.561,23.561,0,0,1-11.3,11.84c-5.674,2.668-12.332,2.876-19.82.57H664c-.026,0-.052-.026-.078-.026h-.181a.1.1,0,0,0-.078.026c-.026,0-.052,0-.052.026-.052.026-.078.026-.13.052-.026,0-.026.026-.052.026-.026.026-.052.026-.078.052l-.052.052c-.026.026-.052.026-.052.052l-.052.052c0,.026-.026.026-.026.052a.025.025,0,0,1-.026.026h0c-.207.389-2.124,4.249,2.746,12.073a17.525,17.525,0,0,1,2.694,9.715l-.285,2.384a.776.776,0,0,0,.622.855c.052,0,.1.026.155.026a.8.8,0,0,0,.752-.57,13.182,13.182,0,0,0,.337-2.72L672.47,832.7c.466.026.959.026,1.425.026a24.8,24.8,0,0,0,10.648-2.306,25.175,25.175,0,0,0,12.047-12.591c1.891-4.119,5.026-7.565,8.161-8.938a6.307,6.307,0,0,0,4.016-4.586A3.587,3.587,0,0,0,707.627,801.3Z" transform="translate(-509.806 -753.605)" fill="#677282"/>
      <g id="Group_15254" data-name="Group 15254" transform="translate(188.117 84.213)">
        <path id="Path_15872" data-name="Path 15872" d="M819.737,1039.31a.919.919,0,0,1-.363-.078.759.759,0,0,1-.337-1.036c1.5-2.9,1.166-6.192-.984-9.793-.1-.181-.156-.285-.207-.363-.337-.8.259-1.529,4.353-5.337l.44-.414a3.487,3.487,0,0,0,1.4-2.85c-.052-.207-.181-.492-.777-.622-.44-.1-2.643.441-7.928,3.265a52.4,52.4,0,0,0-8.265,5.156c-2.047,1.995-6.658,8.86-6.684,8.938a.783.783,0,0,1-1.3-.881c.181-.285,4.741-7.1,6.917-9.2,1.969-1.891,14.9-9.456,17.617-8.809a2.41,2.41,0,0,1,1.917,1.736c.337,1.3-.389,3.031-1.839,4.378l-.44.414a48.424,48.424,0,0,0-3.834,3.809c1.658,2.8,3.161,7.021,1.01,11.244A.792.792,0,0,1,819.737,1039.31Z" transform="translate(-798.945 -1017.249)" fill="#677282"/>
      </g>
    </g>
  </g>
</svg>
