<svg xmlns="http://www.w3.org/2000/svg" xmlns:xlink="http://www.w3.org/1999/xlink" width="320" height="204" viewBox="0 0 320 204">
  <defs>
    <clipPath id="clip-path">
      <rect id="Rectangle_3724" data-name="Rectangle 3724" width="320" height="204" transform="translate(-1025 4645)" fill="#202124"/>
    </clipPath>
  </defs>
  <g id="Mask_Group_542" data-name="Mask Group 542" transform="translate(1025 -4645)" clip-path="url(#clip-path)">
    <g id="Group_14997" data-name="Group 14997">
      <g id="Group_14970" data-name="Group 14970" transform="translate(10030.285 -1832.173)">
        <g id="Group_14969" data-name="Group 14969" transform="translate(-10962.509 6500.677)">
          <g id="Group_14957" data-name="Group 14957" transform="translate(34.523 36.167)">
            <path id="Path_15580" data-name="Path 15580" d="M1085.289,384.069l23.159,3.976a33.88,33.88,0,0,1-.7,8.346,18.069,18.069,0,0,1-2.359,5.506l-22.94-4.326s-2.4-.983-1.573-6.38S1083.258,383.917,1085.289,384.069Z" transform="translate(-1080.702 -384.061)" fill="#fff"/>
          </g>
          <g id="Group_14958" data-name="Group 14958" transform="translate(0.72 58.635)">
            <path id="Path_15581" data-name="Path 15581" d="M1043.768,497.475s25.78-2.119,48.787,8.084,34.52,22.875,36.552,30.587,1.027,19.379-17.042,38.889l-15.73,17.479a20.057,20.057,0,0,1-9.329-6.554,21.8,21.8,0,0,1-4.37-9.176l10.2-13.7,10.2-16.32s-5.68,3.78-15.883,4.37-16.451-1.9-19.226-.874c0,0,5.833,25.628,8.739,31.308l-9.176,7.865s-3.212,3.212-2.622,3.78,6.27-1.9,6.27-1.9-6.62,6.117-5.615,7.21,3.933-1.092,3.933-1.092-.59,1.595,0,2.032,8.521-3.059,8.521-3.059-2.906,3.277-2.687,4.523a68.6,68.6,0,0,1-15.141,4.741c-9.176,1.813-34.236,1.595-34.236,1.595s-22.219-.808-26.436-2.25c0,0-2.359-7.756-4.654-17.631-2.469-10.924-3.78-19.51-3.78-19.51s-4.042.262-5.965.262c-6.992,0-21.346-.568-31.789-3.67-13.327-3.933-25.234-13.655-27.092-25.781s8.521-23.049,8.521-23.049l11.143-12.563,6.227-6.336,7.537-9.832a24.6,24.6,0,0,0,7.756,5.243,30.6,30.6,0,0,0,8.63,1.639L968.7,507.109s-9.395,17.26-11.689,24.8l6.336-4.479s13.327-9.832,22.394-14.42a110.488,110.488,0,0,1,14.966-6.445s9.089,17.063,25.781,12.563C1041.431,515.128,1043.768,497.475,1043.768,497.475Z" transform="translate(-925.981 -486.9)" fill="#fff"/>
          </g>
          <g id="Group_14959" data-name="Group 14959" transform="translate(75.423 54.855)">
            <path id="Path_15582" data-name="Path 15582" d="M1310.985,483.954s-1.792,17.107-17.3,21.7-25.781-12.563-25.781-12.563l9.613-3.823-.109-16.823a9.653,9.653,0,0,0,6.773.328,32.736,32.736,0,0,0,6.773-3.168l3.059,9.5,2.731,6.227Z" transform="translate(-1267.901 -469.6)" fill="#fff"/>
          </g>
          <g id="Group_14960" data-name="Group 14960" transform="translate(68.752 29.948)">
            <path id="Path_15583" data-name="Path 15583" d="M1271.679,365.432s6.991-.983,6.008-6.664-7.538-.437-7.538-.437l-14.638-2.731-11.47,8.848-.765,2.294s-5.681-.437-5.9,4.588,5.134,4.042,6.991,2.294c0,0,2.294,7.975,9.176,9.722s10.705-1.2,10.705-1.2,5.571-4.26,6.882-9.067S1271.679,365.432,1271.679,365.432Z" transform="translate(-1237.371 -355.6)" fill="#fff"/>
          </g>
          <g id="Group_14961" data-name="Group 14961" transform="translate(34.348 41.934)">
            <path id="Path_15584" data-name="Path 15584" d="M1079.9,427.2l4.37-8.193,5.353.655,3.321-.83s-3.977-7.865-2.84-8.346,6.554,4.763,6.554,4.763,2.294,3.452,2.141,5.9-2.294,7.822-2.447,8.127-2.731,4.916-2.731,4.916l-8.127-2.84Z" transform="translate(-1079.9 -410.458)" fill="#fff"/>
          </g>
          <g id="Group_14962" data-name="Group 14962" transform="translate(41.886 29.933)">
            <path id="Path_15585" data-name="Path 15585" d="M1114.4,361.836c.262-.328,3.452-6.664,4.195-6.292s.044,4.588.044,4.588,2.141-1.136,2.578.437c0,0,1.7-.874,2.228.328,0,0,2.578.83,2.731,1.2s2.076,2.731,2.141,3.321,0,5.353-.546,5.353-2.076-4.588-2.076-4.588l-.918-1.092s-.437,5.418-1.267,5.418-1.748-2.076-1.748-2.076-.481,1.311-.765,1.136a6.756,6.756,0,0,1-1.354-2.141c.066-.218-.7-4.413-.7-4.413Z" transform="translate(-1114.4 -355.528)" fill="#fff"/>
          </g>
          <g id="Group_14963" data-name="Group 14963" transform="translate(139.574 148.518)">
            <path id="Path_15586" data-name="Path 15586" d="M1579.347,898.3l-9.984,8.259s-8.477,6.882-7.8,8.193,8.564-3.823,8.564-3.823-8.914,8.5-7.909,9.132c1.027.634,6.2-2.469,6.2-2.469s-3.3,2.8-2.272,3.43c1.027.612,9.985-3.911,9.985-3.911s-4.763,4.85-4.151,5.375,4.326-1.333,6.948-3.3a57.358,57.358,0,0,1,5.9-3.758s3.387-1.966,3.714-3.452a23.607,23.607,0,0,1-5.025-5.353A60.306,60.306,0,0,1,1579.347,898.3Z" transform="translate(-1561.524 -898.3)" fill="#fff"/>
          </g>
          <path id="Path_15587" data-name="Path 15587" d="M1585.1,909.789a.652.652,0,0,0-.9.262c-1.18,2.119-3.058,3.146-5.44,4.435-.415.219-.83.437-1.267.678-.742.415-1.77,1.136-2.949,1.944-1.617,1.114-4.872,3.386-5.877,3.452a13.462,13.462,0,0,1,1.967-2.207,22.074,22.074,0,0,0,2.643-2.928c.852-.5,1.42-.852,1.42-.852a.652.652,0,1,0-.677-1.114c-.022.022-2.556,1.595-5.265,3.037-4.348,2.338-5.7,2.513-6.074,2.491a7.8,7.8,0,0,1,2.01-2.36c.35-.218.677-.415,1.005-.59,2.228-1.355,5.309-3.452,6.183-4.064a.66.66,0,1,0-.743-1.092c-.874.612-3.911,2.687-6.118,4.02-.219.131-.459.262-.677.393a.677.677,0,0,0-.284.131c-.044.044-.109.087-.153.131-.262.153-.5.306-.765.481-1.552.961-3.67,2.294-4.391,2.119h-.022c.284-1.158,4.894-5.528,9.154-9.023a.606.606,0,0,0,.153-.2c.24-.153.459-.306.633-.415a.661.661,0,1,0-.743-1.092c-4.828,3.277-8.652,5.287-9.875,5.527a13.5,13.5,0,0,1,2.906-3.124c1.792-1.617,3.976-3.343,5.724-4.741.415-.328.808-.655,1.158-.939,3.343-2.709,8.149-6.751,8.193-6.773a.652.652,0,1,0-.83-1c-.044.044-4.85,4.064-8.193,6.773-.349.284-.743.59-1.158.939-7.865,6.292-9.9,8.477-9.023,9.766a1.1,1.1,0,0,0,.677.437.819.819,0,0,0,.24.022,11.424,11.424,0,0,0,4-1.508c-2.556,2.382-4.872,4.763-4.217,5.965a1.445,1.445,0,0,0,.9.7,1.492,1.492,0,0,0,.459.044,5.778,5.778,0,0,0,2.578-.9,1.3,1.3,0,0,0-.109.459,1.138,1.138,0,0,0,.349.9,1.38,1.38,0,0,0,1.005.349c.983,0,2.775-.568,6.38-2.49.2-.109.393-.2.568-.306-1.639,1.617-2.8,2.819-2.119,3.823a1.217,1.217,0,0,0,.786.5,1.232,1.232,0,0,0,.284.022c1.355,0,3.561-1.486,6.729-3.671,1.114-.765,2.163-1.507,2.84-1.879.437-.24.852-.459,1.245-.677,2.469-1.333,4.61-2.491,5.964-4.959A.7.7,0,0,0,1585.1,909.789Z" transform="translate(-1418.133 -748.162)" fill="#677282"/>
          <path id="Path_15588" data-name="Path 15588" d="M1127.086,365.378l-.022-.612a6.422,6.422,0,0,0-1.791-4.544l-.044-.044a3.089,3.089,0,0,0-3.1-1.464,3.155,3.155,0,0,0-.677-.743,1.976,1.976,0,0,0-2.272-.219,2.324,2.324,0,0,0-1.944-.459c.721-2.753.48-3.539.131-3.954a1.079,1.079,0,0,0-1.005-.393c-1.486.24-3.343,4.282-4.326,6.685a.651.651,0,1,0,1.2.5c1.092-2.665,2.469-5.178,3.146-5.768a19.726,19.726,0,0,1-1.464,5.877.655.655,0,0,0,.393.852.783.783,0,0,0,.219.044.657.657,0,0,0,.612-.437c.022-.044.306-.83.633-1.857a1.311,1.311,0,0,1,1.77.175c.852,1.136,1,6.554.481,7.647-.481-.524-1.027-3.059-1.158-5.637a.645.645,0,0,0-.7-.612.639.639,0,0,0-.612.677c.131,2.6.634,6.948,2.534,6.948h.022a1.039,1.039,0,0,0,.612-.219,2.747,2.747,0,0,0,.765,1.114,1.646,1.646,0,0,0,1.027.372h.175c1.4-.153,1.7-2.818,1.66-4.632a1.384,1.384,0,0,1,.131.35q.132.524.262.983c.59,2.294.874,3.365,2.053,3.365h.044a1.081,1.081,0,0,0,.808-.35C1127.174,368.459,1127.152,367.563,1127.086,365.378Zm-5.549,2.6c-.306-.044-.546-.612-.633-.874a10.04,10.04,0,0,1-.306-1.311.08.08,0,0,0-.022-.066,17.292,17.292,0,0,0-.634-6.926.633.633,0,0,1,.655.131c.852.721,1.289,2.338,1.442,5.4A6.738,6.738,0,0,1,1121.537,367.978Zm4.217-.044a15.435,15.435,0,0,1-.721-2.294c-.087-.306-.153-.634-.262-.983a8.347,8.347,0,0,0-1.617-2.6,10.819,10.819,0,0,0-.459-2.1,2.36,2.36,0,0,1,1.486,1.005l.044.044a5.132,5.132,0,0,1,1.507,3.78l.022.612A13.456,13.456,0,0,1,1125.754,367.934Z" transform="translate(-1070.628 -323.566)" fill="#677282"/>
          <path id="Path_15589" data-name="Path 15589" d="M1400.486,370.306a2.974,2.974,0,0,0-1.792-2.054,2.629,2.629,0,0,0-2.228.437.655.655,0,1,0,.786,1.049,1.5,1.5,0,0,1,.961-.262l-1.573,2.272a.666.666,0,0,0,.175.918.572.572,0,0,0,.372.109.683.683,0,0,0,.546-.284l1.42-2.054a2.376,2.376,0,0,1,.109.284.657.657,0,0,0,.612.437.772.772,0,0,0,.219-.044A.634.634,0,0,0,1400.486,370.306Z" transform="translate(-1292.75 -335.464)" fill="#677282"/>
          <path id="Path_15590" data-name="Path 15590" d="M1247.515,415.952l-1.158-1.158a1.811,1.811,0,0,1,.459-.328.639.639,0,0,0,.328-.852.657.657,0,0,0-.874-.328c-.917.415-2.469,1.9-1.7,4.632a.676.676,0,0,0,.634.481.48.48,0,0,0,.175-.022.661.661,0,0,0,.459-.808,3.584,3.584,0,0,1-.109-1.551l.874.874a.634.634,0,0,0,.918,0A.66.66,0,0,0,1247.515,415.952Z" transform="translate(-1174.081 -370.689)" fill="#677282"/>
          <g id="Group_14964" data-name="Group 14964" transform="translate(91.174 36.118)">
            <path id="Path_15591" data-name="Path 15591" d="M1348.583,385.47h0c-.634-1.595-2.971-2.1-5.331-1.158s-3.736,2.906-3.1,4.5a2.7,2.7,0,0,0,2.163,1.551,5.115,5.115,0,0,0,.83.065,6.332,6.332,0,0,0,2.316-.459C1347.84,389.031,1349.216,387.043,1348.583,385.47ZM1345,388.747a4.685,4.685,0,0,1-2.447.328,1.516,1.516,0,0,1-1.18-.743c-.306-.765.59-2.1,2.359-2.8.2-.087.393-.131.59-.2a1.882,1.882,0,0,0-.2,1.617,2.22,2.22,0,0,0,2.01,1.2A6.913,6.913,0,0,1,1345,388.747Z" transform="translate(-1339.995 -383.84)" fill="#677282"/>
          </g>
          <path id="Path_15592" data-name="Path 15592" d="M1287.784,413.8a4.992,4.992,0,0,0-1.835.371c-1.769.7-2.665,2.032-2.36,2.8a1.517,1.517,0,0,0,1.18.743,4.687,4.687,0,0,0,2.447-.328c1.77-.7,2.665-2.032,2.359-2.8C1289.4,414.128,1288.7,413.8,1287.784,413.8Z" transform="translate(-1204.693 -371.136)" fill="#fff"/>
          <path id="Path_15593" data-name="Path 15593" d="M1286.082,409.47h0c-.634-1.595-2.971-2.1-5.331-1.158s-3.736,2.906-3.1,4.5a2.7,2.7,0,0,0,2.163,1.551,5.116,5.116,0,0,0,.83.066,6.335,6.335,0,0,0,2.316-.459C1285.34,413.031,1286.716,411.043,1286.082,409.47Zm-3.583,3.277a4.685,4.685,0,0,1-2.447.328,1.517,1.517,0,0,1-1.18-.743c-.306-.765.59-2.1,2.359-2.8.109-.044.24-.087.349-.131a1.823,1.823,0,0,0-.175,1.595,2.317,2.317,0,0,0,2.163,1.2A9.78,9.78,0,0,1,1282.5,412.747Z" transform="translate(-1199.976 -366.478)" fill="#677282"/>
          <g id="Group_14965" data-name="Group 14965" transform="translate(87.26 39.956)">
            <path id="Path_15594" data-name="Path 15594" d="M1323.767,408.592a.679.679,0,0,1-.656-.59.658.658,0,0,1,.59-.721c.983-.087,1.529-.524,1.551-.9.022-.284-.371-.7-1.245-.874a2.311,2.311,0,0,1-1.551-1.027,3.678,3.678,0,0,1-.24-2.6.657.657,0,1,1,1.267.35,2.419,2.419,0,0,0,.088,1.551.96.96,0,0,0,.677.437c1.092.218,2.359.939,2.294,2.228-.044.939-.918,1.966-2.731,2.141Z" transform="translate(-1322.08 -401.405)" fill="#677282"/>
          </g>
          <g id="Group_14966" data-name="Group 14966" transform="translate(89.234 47.908)">
            <ellipse id="Ellipse_1015" data-name="Ellipse 1015" cx="2.622" cy="1.617" rx="2.622" ry="1.617" transform="translate(0 5.001) rotate(-72.5)" fill="#677282"/>
          </g>
          <g id="Group_14967" data-name="Group 14967" transform="translate(33.954 35.292)">
            <path id="Path_15595" data-name="Path 15595" d="M1174.909,395.509a.672.672,0,0,0-.546-.568l-6.882-1.18a.656.656,0,0,0-.241,1.289l6.38,1.092a24,24,0,0,1-.458,6.4,20.993,20.993,0,0,1-2.294,6.292l-5.244-1.049a.647.647,0,1,0-.262,1.267l5.68,1.136c.044,0,.087.022.131.022a.651.651,0,0,0,.524-.262c.066-.087,1.661-2.228,2.731-7.144A22.758,22.758,0,0,0,1174.909,395.509Z" transform="translate(-1145.893 -390.758)" fill="#677282"/>
            <path id="Path_15596" data-name="Path 15596" d="M1090.877,381.573l-8.149-1.442c-.044-.022-.109-.022-.153-.044-.044,0-.088,0-.109-.022h-.022a.735.735,0,0,0-.219,0h-.044c-1.791.2-3.255,3.518-3.823,6.97a16.549,16.549,0,0,0-.109,5.156c.349,2.1,1.2,2.687,1.857,2.8h0l8.87,1.661c.044,0,.088.022.131.022a.635.635,0,0,0,.634-.524.664.664,0,0,0-.525-.765l-7.144-1.333a5.911,5.911,0,0,0,.721-1.092,15.686,15.686,0,0,0,1.551-4.916,16.549,16.549,0,0,0,.109-5.156,6.833,6.833,0,0,0-.306-1.2l6.511,1.158h.109a.674.674,0,0,0,.655-.546A.661.661,0,0,0,1090.877,381.573Zm-7.734,1.551a15.111,15.111,0,0,1-.109,4.719,14.558,14.558,0,0,1-1.42,4.5c-.59,1.07-1.092,1.42-1.311,1.376-.2-.044-.59-.524-.786-1.726a15.115,15.115,0,0,1,.109-4.719c.612-3.714,2.032-5.855,2.665-5.877l.109.022C1082.618,381.507,1082.968,382.01,1083.142,383.124Z" transform="translate(-1078.094 -380.056)" fill="#677282"/>
          </g>
          <path id="Path_15597" data-name="Path 15597" d="M1228.129,968.372a.663.663,0,0,0-.743.568v.153a9.007,9.007,0,0,0-1.136.459c-.218.153-5.374,3.321-5.374,3.321s3.1,7.669,3.1,7.953c0,.24,3.5,7.122,4.523,9.132a390.72,390.72,0,0,1-45.969,1.617c-14.31-.262-28.031-1.158-40-2.578l-3.867-9.089-3.671-11.623a.674.674,0,0,0,.459-.7.692.692,0,0,0-.721-.59c-9.372,1.049-17.129,2.469-22.46,4.151-5.921,1.857-8.827,3.954-8.87,6.38-.087,4.981,12.693,8.433,23.421,10.421,14.857,2.775,34.651,4.523,55.712,4.916,2.993.066,5.943.087,8.87.087,17.719,0,34.148-1.005,46.995-2.928,10.815-1.617,23.705-4.566,23.793-9.548C1262.321,974.009,1240.91,970.12,1228.129,968.372Z" transform="translate(-1064.381 -801.609)"/>
          <g id="Group_14968" data-name="Group 14968" transform="translate(0 0)">
            <path id="Path_15598" data-name="Path 15598" d="M1642.784,1000.849c-1.682-3.627-3.474-7.691-3.5-7.734a.66.66,0,0,0-1.2.546c.022.044,1.813,4.129,3.5,7.778,3.168,6.795,4.435,9.482,4.435,9.5a.644.644,0,0,0,.59.371.677.677,0,0,0,.284-.066.655.655,0,0,0,.306-.874C1647.22,1010.309,1645.952,1007.644,1642.784,1000.849Z" transform="translate(-1481.739 -823.579)" fill="#677282"/>
            <path id="Path_15599" data-name="Path 15599" d="M1125.068,321.576c-7.887-14.048-30.172-27.376-54.183-32.444a112.968,112.968,0,0,0-29.407-2.207l-.2-.066a.659.659,0,0,0-.459.109,86.728,86.728,0,0,0-13.371,1.813l-5.964-15.447a17.777,17.777,0,0,0,3.889-6.336,16.749,16.749,0,0,0,1.136-8.106,6.871,6.871,0,0,0,5.965-4.85,4.356,4.356,0,0,0-1.989-5c-2.425-1.442-5.047.284-6.292,1.333a12.37,12.37,0,0,0-3.889-4.763c4.938-2.141,7.559-7.406,8.914-10.116a15.405,15.405,0,0,0,.59-10.946,8.472,8.472,0,0,0-4.7-5.091,10.354,10.354,0,0,0-8.739.066c-3.714,1.726-6.62,5.528-8.171,10.684-1.857,6.139-.634,10.05.524,12.082a30.563,30.563,0,0,0-9.613,2.731c-4.457,2.01-7.931,4.479-8.74,5.506a.656.656,0,0,0-.022.786c.153.218,3.168,4.326,7.013,6.117a14.052,14.052,0,0,0-.284,1.442,5.6,5.6,0,0,0-5.79,3.037,4.747,4.747,0,0,0,1.027,5.659,4.209,4.209,0,0,0,2.8,1.027,6.489,6.489,0,0,0,3.1-.9c1.748,4.391,4.479,7.363,8.149,8.8.109.044.24.087.35.131l.218,6.139v.459c0,.066.022.131.022.2l.328,9.242c-3.539,1.158-17.26,5.812-27.834,11.929A201.336,201.336,0,0,0,959.7,317.687l-4.064,2.862a186.1,186.1,0,0,1,9.089-18.68l9.416-17.478a.936.936,0,0,0,.219-.5v-.066c0-.306-.153-1.071-1.529-1.966a66.223,66.223,0,0,0,3.234-6.729,8.836,8.836,0,0,0-.874-8.739c-.612-.852-5.222-6.467-7.406-6.62a1.18,1.18,0,0,0-.983.35c-.5.524-.787,1.551.918,5.287.546,1.18,1.136,2.294,1.507,2.993a5.567,5.567,0,0,0-3.3,2.338.655.655,0,1,0,1.18.568c.524-1.049,2.512-1.7,3.233-1.857a.654.654,0,0,0,.459-.371.694.694,0,0,0-.022-.59c-1.879-3.255-3.255-6.642-3.037-7.406.219.044,1.027.306,3.037,2.272a41.291,41.291,0,0,1,3.364,3.8,8.718,8.718,0,0,1,.612,1,7.931,7.931,0,0,1,.131,6.467,50.1,50.1,0,0,1-4.479,8.7,27.291,27.291,0,0,1-5.112-1.529,19.963,19.963,0,0,1-7.406-4.807,48.969,48.969,0,0,0,3.933-7.581.657.657,0,0,0-1.224-.481,47.894,47.894,0,0,1-3.867,7.45.739.739,0,0,0-.109.306.021.021,0,0,1-.022.022l-.022.022a107.838,107.838,0,0,1-10.618,13.24l-.852.874c-11.143,11.4-20.756,21.258-22.2,31.833-1,7.341,1.42,14.4,7.035,20.406,5,5.353,12.453,9.744,21.018,12.366,10.88,3.321,23.508,3.911,30.98,3.911,2.84,0,4.96-.087,5.921-.131.634,4.086,4.654,28.315,13.152,45.706a.644.644,0,0,0,.59.371.672.672,0,0,0,.284-.065.655.655,0,0,0,.306-.874c-1.245-2.556-2.4-5.265-3.452-8.04a175.132,175.132,0,0,0,30.674,2.469c4.326,0,8.979-.131,13.917-.459,11.274-.765,18.7-2.447,22.962-3.736A28.758,28.758,0,0,0,1073,391.9a.648.648,0,1,0-.7-1.092c-.065.044-7.778,4.785-29.058,6.2-20.93,1.4-38.452-.743-45.029-2.119-6.314-17.194-9.089-36.2-9.133-36.421v-.044a.08.08,0,0,0-.022-.065c0-.022-.022-.044-.022-.066s-.022-.044-.022-.066a.047.047,0,0,0-.044-.044c-.022-.022-.022-.044-.043-.044l-.044-.044c-.022-.022-.044-.022-.044-.044-.022,0-.022-.022-.044-.022-.022-.022-.044-.022-.065-.044-.022,0-.022-.022-.044-.022-.022-.022-.044-.022-.087-.022h-.044a.165.165,0,0,1-.087-.022h-.109c-.2.022-20.668,1.333-37.054-3.692-8.346-2.556-15.6-6.817-20.45-11.995-5.331-5.7-7.647-12.388-6.707-19.336,1.4-10.137,10.858-19.86,21.848-31.09l.852-.874c2.01-2.054,3.911-4.3,5.549-6.358a25.432,25.432,0,0,0,15.578,8.543l-4.391,8.171c-2.95,5.506-9.81,18.2-10.815,24.4a23.983,23.983,0,0,0-.9,6.139,3.753,3.753,0,0,0,3.386,3.474,3.969,3.969,0,0,0,.7.065,3.536,3.536,0,0,0,3.474-2.425,41.315,41.315,0,0,0,1.245-4.719,39.2,39.2,0,0,1,1.682-5.965c2.381-5.9,8.543-10.618,10.487-12.016l.633-.437c.044-.044.087-.065.131-.109,2.054-1.289,4.217-2.622,6.489-3.933a132,132,0,0,1,17.544-8.193,29.2,29.2,0,0,0,6.1,7.472,22.315,22.315,0,0,0,14.835,5.812,24.531,24.531,0,0,0,4.261-.393c6.6-1.223,11.994-5.571,15.578-12.563a37.472,37.472,0,0,0,3.343-9.657,110.711,110.711,0,0,1,28.883,2.185,107.452,107.452,0,0,1,33.231,12.978c9.329,5.68,16.473,12.366,20.078,18.811,7.232,12.869-.5,23.88-6.729,32.728-3.452,4.894-10.553,12.89-16.168,18.986-9.875-2.513-13.961-12.366-14.572-14,2.84-3.954,6.445-9.176,10.137-15.184,5.287-8.586,7.953-12.519,8.783-13.721l.306-.437c.2-.262,2.469-3.277,1.377-5.528a6.129,6.129,0,0,0-9.941-.59,15.5,15.5,0,0,0-2.229,5.069c-1.464,4.61-3.255,10.269-10.356,11.1l-2.229.109c-.066,0-.109.022-.175.022a90.833,90.833,0,0,1-12.825-.961c-5.134-.721-9.832,2.207-10.247,2.491a23.127,23.127,0,0,0-2.774,1.726c-2.032,1.442-3.059,2.687-3.124,3.8a3.443,3.443,0,0,0,1.071,3.059c1.332,1.114,3.779,1.18,7.472.219a3.648,3.648,0,0,1,2.906.415c2.01,1.224,3.78,4.523,5.134,9.569.328,1.333.525,2.163.546,2.185a.644.644,0,0,0,.219.35,77.214,77.214,0,0,0,2.95,8.892.665.665,0,0,0,.59.393.582.582,0,0,0,.262-.066.664.664,0,0,0,.328-.874,112.242,112.242,0,0,1-4.26-13.83c-1.748-7.188-3.692-15.272-4-17.063a10.738,10.738,0,0,1,2.775.022c7.843,1.092,17.915,1.682,25.824-.656l.087-.022a.249.249,0,0,0,.175-.066l.022-.022a25.7,25.7,0,0,0,3.3-1.245c-.917,1.442-1.922,3.081-3.058,4.938a247.9,247.9,0,0,1-15.84,22.766.021.021,0,0,1-.022.022.114.114,0,0,0-.044.087c0,.022-.022.044-.022.066s-.022.044-.022.065a22.505,22.505,0,0,1-.044.131v.131c0,.044.022.066.022.109v.022h0c.087.262,1.835,5.986,5.265,9.854a28.629,28.629,0,0,0,8.521,6.183.582.582,0,0,0,.262.066.677.677,0,0,0,.481-.2c.175-.2,18.025-18.811,24.208-27.616,3.146-4.479,6.707-9.548,8.586-15.25A22.4,22.4,0,0,0,1125.068,321.576Zm-171.835-38.1c1.835-2.338,3.233-4.326,3.911-5.309a21.72,21.72,0,0,0,7.625,4.85,24.06,24.06,0,0,0,7.625,1.857l-3.758,6.991A24.531,24.531,0,0,1,953.233,283.473Zm39.96-16.889a3.45,3.45,0,0,1-.721-4.107,4.32,4.32,0,0,1,4.457-2.294,16.091,16.091,0,0,0,.83,6.27C995.268,267.961,993.739,267.065,993.193,266.584Zm5.987-.087a14.762,14.762,0,0,1-.568-8.586,7.425,7.425,0,0,0,1.944.35h.153c4.195,0,8.673-5.265,10.4-7.516a6.956,6.956,0,0,0,5.724,3.627c4.938.568,7.363-2.1,7.6-2.4.175-.175,3.081-3.168,5.4-1.792a3.012,3.012,0,0,1,1.377,3.539,5.66,5.66,0,0,1-5.484,3.933.642.642,0,0,0-.5.262.733.733,0,0,0-.109.568c0,.022.83,3.212-.961,8.062-2.578,6.948-7.385,8.848-10.007,9.373C1011.611,276.416,1003,277.224,999.179,266.5Zm38.06,30.784c-3.452,6.729-8.368,10.727-14.66,11.885a20.5,20.5,0,0,1-17.959-5.091,27.6,27.6,0,0,1-5.746-7.013c4.457-1.7,7.953-2.862,9.2-3.255l.087-.022c.022,0,.022,0,.022-.022.022,0,.044-.022.065-.022a.077.077,0,0,0,.044-.022c.022-.022.044-.022.044-.044.022-.022.044-.022.044-.044l.044-.044c.022-.022.022-.044.044-.044.022-.022.022-.044.044-.044,0-.022.022-.044.022-.066s.022-.044.022-.065.022-.044.022-.066v-.175l-.328-9.373c8.04-1.857,12.038-4.96,13.415-6.27l4.741,12.279c0,.022.022.022.022.044s0,.022.022.044a.165.165,0,0,1,.044.087v.022c.022.022.044.065.088.087l.022.022a.312.312,0,0,0,.088.066.021.021,0,0,1,.022.022c.022.022.066.022.088.044h.022a.2.2,0,0,0,.109.022h.153a.081.081,0,0,0,.066-.022h.022a79.052,79.052,0,0,1,13.153-1.879A34.058,34.058,0,0,1,1037.239,297.281Zm56.215,84.77a26.817,26.817,0,0,1-7.669-5.637,28.862,28.862,0,0,1-4.894-9.045c.59-.743,2.294-2.928,4.675-6.161a29.4,29.4,0,0,0,3.059,5.418,21.481,21.481,0,0,0,11.427,8.411C1096.862,378.446,1094.327,381.134,1093.453,382.051Z" transform="translate(-922.686 -218.524)" fill="#677282"/>
          </g>
          <path id="Path_15600" data-name="Path 15600" d="M1310.825,1012.6a395.531,395.531,0,0,0,45.968-1.617c-.481-.983-1.595-3.277-3.3-6.729-1.966-3.976-4.348-10.356-4.348-10.356a13.116,13.116,0,0,1-3.124,2.272c-2.229,1.267-3.365,1.158-3.8,1.027-.437-.153-4.872,2.185-4.872,2.185s-15.075,3.78-26.152,4.435a236.129,236.129,0,0,1-24.47-.219c-.219,0-19.226-1.835-19.226-1.835l3.43,8.281C1282.859,1011.444,1296.536,1012.34,1310.825,1012.6Z" transform="translate(-1192.165 -824.031)" fill="#fff"/>
        </g>
      </g>
      <path id="Path_15601" data-name="Path 15601" d="M-11036.156,6352.973s-75.044-7.505-66.469,63.253-167.392,88.512-52.533,221.924-161.887,63.254-161.887,63.254" transform="translate(10137 -1643)" fill="none" stroke="#677282" stroke-width="2"/>
    </g>
  </g>
</svg>
