<svg xmlns="http://www.w3.org/2000/svg" xmlns:xlink="http://www.w3.org/1999/xlink" width="579" height="467" viewBox="0 0 579 467">
  <defs>
    <clipPath id="clip-path">
      <rect id="Rectangle_3718" data-name="Rectangle 3718" width="579" height="467" transform="translate(-22017 5462)" fill="#202124"/>
    </clipPath>
  </defs>
  <g id="Mask_Group_544" data-name="Mask Group 544" transform="translate(22017 -5462)" clip-path="url(#clip-path)">
    <g id="Group_15270" data-name="Group 15270" transform="translate(-10778 -715)">
      <g id="Group_15269" data-name="Group 15269" transform="translate(-153.715 -237.173)">
        <g id="Group_15268" data-name="Group 15268" transform="translate(-10962.509 6500.677)">
          <g id="Group_15256" data-name="Group 15256" transform="translate(74.273 77.809)">
            <path id="Path_15873" data-name="Path 15873" d="M1090.571,384.079l49.824,8.555s.47,10.435-1.5,17.955a38.876,38.876,0,0,1-5.076,11.845l-49.354-9.307s-5.17-2.115-3.384-13.725S1086.2,383.75,1090.571,384.079Z" transform="translate(-1080.702 -384.061)" fill="#fff"/>
          </g>
          <g id="Group_15257" data-name="Group 15257" transform="translate(1.549 126.147)">
            <path id="Path_15874" data-name="Path 15874" d="M1179.388,509.65s55.464-4.56,104.96,17.391,74.266,49.213,78.637,65.805,2.209,41.693-36.663,83.667l-33.842,37.6a43.15,43.15,0,0,1-20.071-14.1c-8.132-10.67-9.4-19.742-9.4-19.742l21.951-29.471,21.95-35.112s-12.22,8.132-34.171,9.4-35.393-4.089-41.364-1.88c0,0,12.55,55.136,18.8,67.357l-19.742,16.921s-6.91,6.91-5.64,8.132,13.49-4.089,13.49-4.089-14.242,13.161-12.08,15.511,8.46-2.35,8.46-2.35-1.269,3.431,0,4.371,18.331-6.58,18.331-6.58-6.251,7.051-5.781,9.73c0,0-12.833,6.251-32.574,10.2-19.742,3.9-73.655,3.431-73.655,3.431s-47.8-1.739-56.875-4.841c0,0-5.076-16.686-10.012-37.932-5.312-23.5-8.132-41.974-8.132-41.974s-8.7.564-12.832.564c-15.042,0-45.923-1.222-68.391-7.9-28.672-8.461-54.289-29.377-58.285-55.465s18.332-49.589,18.332-49.589l23.972-27.028,13.4-13.631L998.376,486.9s7.756,7.991,16.686,11.281a65.829,65.829,0,0,0,18.566,3.525l-15.746,28.672s-20.212,37.133-25.147,53.349l13.631-9.636s28.672-21.151,48.179-31.022,32.2-13.866,32.2-13.866,19.553,36.71,55.464,27.027C1174.359,547.629,1179.388,509.65,1179.388,509.65Z" transform="translate(-925.981 -486.9)" fill="#fff"/>
          </g>
          <g id="Group_15258" data-name="Group 15258" transform="translate(162.264 118.015)">
            <path id="Path_15875" data-name="Path 15875" d="M1360.592,500.482s-3.854,36.8-37.227,46.675-55.464-27.027-55.464-27.027l20.681-8.226-.235-36.193a20.767,20.767,0,0,0,14.571.705,70.428,70.428,0,0,0,14.571-6.816l6.581,20.447,5.875,13.4Z" transform="translate(-1267.901 -469.6)" fill="#fff"/>
          </g>
          <g id="Group_15259" data-name="Group 15259" transform="translate(147.914 64.431)">
            <path id="Path_15876" data-name="Path 15876" d="M1311.181,376.752s15.041-2.115,12.926-14.336-16.216-.94-16.216-.94L1276.4,355.6l-24.677,19.036-1.645,4.935s-12.221-.94-12.691,9.871,11.046,8.7,15.041,4.935c0,0,4.935,17.156,19.742,20.917s23.032-2.585,23.032-2.585,11.986-9.166,14.806-19.507S1311.181,376.752,1311.181,376.752Z" transform="translate(-1237.37 -355.6)" fill="#fff"/>
          </g>
          <g id="Group_15260" data-name="Group 15260" transform="translate(73.897 90.216)">
            <path id="Path_15877" data-name="Path 15877" d="M1079.9,446.482l9.4-17.626,11.516,1.41,7.144-1.786s-8.555-16.921-6.11-17.955,14.1,10.247,14.1,10.247,4.935,7.427,4.607,12.691-4.935,16.827-5.265,17.485-5.876,10.576-5.876,10.576l-17.485-6.11Z" transform="translate(-1079.9 -410.458)" fill="#fff"/>
          </g>
          <g id="Group_15261" data-name="Group 15261" transform="translate(90.113 64.397)">
            <path id="Path_15878" data-name="Path 15878" d="M1114.4,369.1c.564-.705,7.427-14.336,9.024-13.537s.094,9.871.094,9.871,4.607-2.444,5.546.94c0,0,3.667-1.88,4.794.705,0,0,5.547,1.786,5.876,2.585s4.466,5.876,4.606,7.145,0,11.516-1.175,11.516-4.466-9.871-4.466-9.871l-1.974-2.35s-.94,11.657-2.726,11.657-3.76-4.465-3.76-4.465-1.034,2.82-1.645,2.444-3.055-4.136-2.914-4.606-1.5-9.495-1.5-9.495Z" transform="translate(-1114.4 -355.528)" fill="#fff"/>
          </g>
          <g id="Group_15262" data-name="Group 15262" transform="translate(300.278 319.521)">
            <path id="Path_15879" data-name="Path 15879" d="M1599.868,898.3l-21.48,17.768s-18.238,14.806-16.781,17.627,18.425-8.226,18.425-8.226-19.177,18.284-17.015,19.648c2.209,1.363,13.349-5.312,13.349-5.312s-7.1,6.016-4.889,7.38c2.209,1.316,21.481-8.414,21.481-8.414s-10.247,10.435-8.931,11.563,9.306-2.867,14.947-7.1a123.4,123.4,0,0,1,12.691-8.085s7.286-4.23,7.99-7.426a50.793,50.793,0,0,1-10.811-11.516C1604.38,909.393,1599.868,898.3,1599.868,898.3Z" transform="translate(-1561.524 -898.3)" fill="#fff"/>
          </g>
          <path id="Path_15880" data-name="Path 15880" d="M1617.867,925.4a1.4,1.4,0,0,0-1.927.564c-2.538,4.559-6.58,6.769-11.7,9.541-.893.471-1.786.941-2.726,1.458-1.6.893-3.807,2.444-6.345,4.183-3.479,2.4-10.482,7.286-12.644,7.427a28.983,28.983,0,0,1,4.231-4.747,47.516,47.516,0,0,0,5.687-6.3c1.833-1.081,3.055-1.833,3.055-1.833a1.4,1.4,0,1,0-1.457-2.4c-.047.047-5.5,3.431-11.328,6.533-9.354,5.03-12.269,5.406-13.067,5.359.282-.987,2.162-3.2,4.324-5.077.752-.47,1.457-.893,2.162-1.269,4.794-2.914,11.422-7.426,13.3-8.742a1.421,1.421,0,1,0-1.6-2.35c-1.88,1.316-8.414,5.781-13.161,8.648-.47.282-.987.564-1.457.846a1.456,1.456,0,0,0-.611.282c-.094.094-.235.188-.329.282-.564.329-1.081.658-1.645,1.034-3.338,2.068-7.9,4.935-9.448,4.559h-.047c.611-2.491,10.529-11.892,19.695-19.412a1.3,1.3,0,0,0,.329-.423c.517-.329.987-.658,1.363-.893a1.421,1.421,0,1,0-1.6-2.35c-10.388,7.051-18.613,11.375-21.245,11.892.423-.846,1.833-2.773,6.251-6.721,3.854-3.478,8.555-7.192,12.315-10.2.893-.7,1.739-1.41,2.491-2.021,7.192-5.829,17.532-14.524,17.626-14.571a1.4,1.4,0,1,0-1.786-2.162c-.094.094-10.435,8.743-17.627,14.571-.752.611-1.6,1.269-2.491,2.021-16.922,13.537-21.293,18.237-19.413,21.011a2.374,2.374,0,0,0,1.457.94,1.761,1.761,0,0,0,.517.047c1.833,0,5.077-1.41,8.6-3.244-5.5,5.124-10.482,10.247-9.072,12.832a3.109,3.109,0,0,0,1.927,1.5,3.212,3.212,0,0,0,.987.094,12.429,12.429,0,0,0,5.546-1.927,2.787,2.787,0,0,0-.235.987,2.449,2.449,0,0,0,.752,1.927,2.968,2.968,0,0,0,2.162.752c2.115,0,5.97-1.222,13.725-5.358.423-.235.846-.423,1.222-.658-3.525,3.478-6.016,6.064-4.559,8.226a2.617,2.617,0,0,0,1.692,1.081,2.663,2.663,0,0,0,.611.047c2.914,0,7.661-3.2,14.477-7.9,2.4-1.645,4.653-3.243,6.111-4.043.94-.516,1.833-.987,2.679-1.457,5.312-2.867,9.918-5.359,12.832-10.67A1.505,1.505,0,0,0,1617.867,925.4Z" transform="translate(-1258.657 -577.681)" fill="#677282"/>
          <path id="Path_15881" data-name="Path 15881" d="M1144.472,379.709l-.047-1.316c-.141-4.982-1.551-6.816-3.854-9.777l-.095-.094c-2.632-3.384-5.312-3.431-6.674-3.149a6.785,6.785,0,0,0-1.457-1.6,4.251,4.251,0,0,0-4.888-.47,5,5,0,0,0-4.183-.987c1.551-5.922,1.034-7.615.282-8.508a2.32,2.32,0,0,0-2.162-.846c-3.2.517-7.191,9.213-9.306,14.383a1.4,1.4,0,1,0,2.585,1.081c2.35-5.734,5.312-11.14,6.769-12.409.188,1.786-1.128,7.239-3.15,12.644a1.41,1.41,0,0,0,.846,1.833,1.68,1.68,0,0,0,.47.094,1.414,1.414,0,0,0,1.317-.94c.047-.094.658-1.786,1.363-4,.705-.376,2.586-1.269,3.807.376,1.833,2.444,2.162,14.1,1.034,16.451-1.034-1.128-2.209-6.58-2.491-12.127a1.388,1.388,0,0,0-1.5-1.316,1.374,1.374,0,0,0-1.316,1.457c.282,5.593,1.364,14.947,5.453,14.947h.047a2.235,2.235,0,0,0,1.316-.47,5.909,5.909,0,0,0,1.646,2.4,3.543,3.543,0,0,0,2.209.8h.376c3.008-.329,3.666-6.063,3.572-9.965a2.991,2.991,0,0,1,.282.752q.283,1.128.564,2.115c1.269,4.935,1.88,7.239,4.418,7.239h.094a2.326,2.326,0,0,0,1.739-.752C1144.66,386.336,1144.613,384.409,1144.472,379.709Zm-11.939,5.593c-.658-.094-1.175-1.316-1.363-1.88a21.62,21.62,0,0,1-.658-2.82.173.173,0,0,0-.047-.141c.565-4.559,0-11.469-1.363-14.9a1.362,1.362,0,0,1,1.41.282c1.833,1.551,2.773,5.029,3.1,11.61C1133.9,381.965,1133,384.738,1132.533,385.3Zm9.072-.094a33.227,33.227,0,0,1-1.551-4.935c-.188-.658-.329-1.363-.564-2.115-.564-2.115-2.82-4.841-3.479-5.593a23.288,23.288,0,0,0-.988-4.512,5.076,5.076,0,0,1,3.2,2.162l.094.094c2.162,2.773,3.15,4.042,3.243,8.132l.047,1.316A28.948,28.948,0,0,1,1141.6,385.208Z" transform="translate(-1023.008 -289.755)" fill="#677282"/>
          <path id="Path_15882" data-name="Path 15882" d="M1405.415,372.783c-.846-2.4-2.115-3.854-3.854-4.418a5.656,5.656,0,0,0-4.794.94,1.41,1.41,0,1,0,1.692,2.256,3.227,3.227,0,0,1,2.068-.564l-3.384,4.888a1.433,1.433,0,0,0,.376,1.974,1.23,1.23,0,0,0,.8.235,1.47,1.47,0,0,0,1.175-.611l3.056-4.418a5.151,5.151,0,0,1,.235.611,1.414,1.414,0,0,0,1.316.94,1.663,1.663,0,0,0,.47-.094A1.364,1.364,0,0,0,1405.415,372.783Z" transform="translate(-1173.633 -297.823)" fill="#677282"/>
          <path id="Path_15883" data-name="Path 15883" d="M1251.148,419.09l-2.491-2.491a3.9,3.9,0,0,1,.987-.705,1.376,1.376,0,0,0,.7-1.833,1.413,1.413,0,0,0-1.88-.7c-1.974.893-5.311,4.089-3.666,9.965a1.454,1.454,0,0,0,1.363,1.034,1.033,1.033,0,0,0,.376-.047,1.422,1.422,0,0,0,.987-1.739,7.715,7.715,0,0,1-.235-3.337l1.88,1.88a1.364,1.364,0,0,0,1.975,0A1.419,1.419,0,0,0,1251.148,419.09Z" transform="translate(-1093.161 -321.709)" fill="#677282"/>
          <g id="Group_15263" data-name="Group 15263" transform="translate(196.151 77.705)">
            <path id="Path_15884" data-name="Path 15884" d="M1358.47,387.346h0c-1.363-3.431-6.392-4.512-11.469-2.491s-8.038,6.252-6.675,9.683a5.816,5.816,0,0,0,4.654,3.337,11.008,11.008,0,0,0,1.786.141,13.621,13.621,0,0,0,4.982-.987C1356.872,395.008,1359.833,390.731,1358.47,387.346Zm-7.709,7.051a10.079,10.079,0,0,1-5.264.705c-.752-.141-2.115-.517-2.538-1.6-.658-1.645,1.269-4.512,5.076-6.017.423-.188.846-.282,1.269-.423a4.048,4.048,0,0,0-.423,3.478c.611,1.5,2.209,2.4,4.324,2.585A14.856,14.856,0,0,1,1350.761,394.4Z" transform="translate(-1339.995 -383.84)" fill="#677282"/>
          </g>
          <path id="Path_15885" data-name="Path 15885" d="M1292.682,413.8a10.739,10.739,0,0,0-3.949.8c-3.807,1.5-5.734,4.371-5.076,6.017.423,1.081,1.786,1.457,2.539,1.6a10.082,10.082,0,0,0,5.264-.705c3.807-1.5,5.734-4.371,5.076-6.017C1296.16,414.505,1294.656,413.8,1292.682,413.8Z" transform="translate(-1113.92 -322.013)" fill="#fff"/>
          <path id="Path_15886" data-name="Path 15886" d="M1295.97,411.346h0c-1.363-3.431-6.393-4.512-11.469-2.491s-8.037,6.252-6.675,9.683a5.816,5.816,0,0,0,4.654,3.337,11.006,11.006,0,0,0,1.786.141,13.627,13.627,0,0,0,4.983-.987C1294.372,419.008,1297.333,414.731,1295.97,411.346Zm-7.709,7.051a10.079,10.079,0,0,1-5.264.705c-.752-.141-2.115-.517-2.538-1.6-.658-1.645,1.269-4.512,5.076-6.016.235-.094.517-.188.752-.282a3.923,3.923,0,0,0-.376,3.431c.611,1.551,2.4,2.444,4.653,2.585A21.025,21.025,0,0,1,1288.261,418.4Z" transform="translate(-1110.721 -318.854)" fill="#677282"/>
          <g id="Group_15264" data-name="Group 15264" transform="translate(187.731 85.961)">
            <path id="Path_15887" data-name="Path 15887" d="M1325.709,416.867a1.461,1.461,0,0,1-1.41-1.269,1.416,1.416,0,0,1,1.27-1.551c2.115-.188,3.29-1.128,3.337-1.927.047-.611-.8-1.5-2.679-1.88a4.971,4.971,0,0,1-3.337-2.209,7.91,7.91,0,0,1-.517-5.593,1.414,1.414,0,1,1,2.726.752,5.208,5.208,0,0,0,.188,3.337,2.065,2.065,0,0,0,1.457.94c2.35.47,5.076,2.021,4.935,4.794-.094,2.021-1.974,4.23-5.876,4.606Z" transform="translate(-1322.08 -401.405)" fill="#677282"/>
          </g>
          <g id="Group_15265" data-name="Group 15265" transform="translate(191.977 103.069)">
            <ellipse id="Ellipse_1064" data-name="Ellipse 1064" cx="5.64" cy="3.478" rx="5.64" ry="3.478" transform="translate(0 10.759) rotate(-72.5)" fill="#677282"/>
          </g>
          <g id="Group_15266" data-name="Group 15266" transform="translate(73.048 75.926)">
            <path id="Path_15888" data-name="Path 15888" d="M1186.494,397.534a1.447,1.447,0,0,0-1.175-1.222l-14.806-2.538a1.411,1.411,0,0,0-.517,2.773l13.725,2.35a51.626,51.626,0,0,1-.987,13.772c-1.693,7.615-3.949,11.939-4.936,13.537l-11.281-2.256a1.392,1.392,0,1,0-.564,2.726l12.221,2.444c.094,0,.188.047.282.047a1.4,1.4,0,0,0,1.128-.564c.141-.188,3.573-4.794,5.876-15.37A48.958,48.958,0,0,0,1186.494,397.534Z" transform="translate(-1124.07 -387.313)" fill="#677282"/>
            <path id="Path_15889" data-name="Path 15889" d="M1105.594,383.32l-17.532-3.1c-.094-.047-.235-.047-.329-.094a.349.349,0,0,1-.234-.047h-.047a1.583,1.583,0,0,0-.47,0h-.094c-3.853.423-7,7.568-8.225,14.994a35.6,35.6,0,0,0-.235,11.093c.752,4.512,2.585,5.781,4,6.016h0l19.083,3.572c.094,0,.189.047.282.047a1.367,1.367,0,0,0,1.363-1.128,1.429,1.429,0,0,0-1.129-1.645l-15.37-2.867a12.726,12.726,0,0,0,1.552-2.35,33.741,33.741,0,0,0,3.337-10.576,35.593,35.593,0,0,0,.235-11.093,14.725,14.725,0,0,0-.658-2.585l14.008,2.491h.235a1.449,1.449,0,0,0,1.41-1.175A1.422,1.422,0,0,0,1105.594,383.32Zm-16.64,3.337a32.514,32.514,0,0,1-.235,10.153,31.321,31.321,0,0,1-3.055,9.683c-1.269,2.3-2.35,3.055-2.821,2.961-.423-.094-1.269-1.128-1.692-3.713a32.512,32.512,0,0,1,.235-10.153c1.316-7.991,4.371-12.6,5.734-12.644l.235.047C1087.827,383.179,1088.578,384.26,1088.955,386.657Z" transform="translate(-1078.094 -380.056)" fill="#677282"/>
          </g>
          <path id="Path_15890" data-name="Path 15890" d="M1371.744,969.958a1.425,1.425,0,0,0-1.6,1.222v.329a19.349,19.349,0,0,0-2.444.987c-.47.329-11.562,7.144-11.562,7.144s6.674,16.5,6.674,17.109c0,.517,7.521,15.323,9.73,19.648-28.625,2.914-62.938,4.184-98.9,3.479-30.787-.564-60.306-2.491-86.064-5.547l-8.32-19.553-7.9-25.006a1.45,1.45,0,0,0,.987-1.5A1.488,1.488,0,0,0,1170.8,967c-20.164,2.256-36.85,5.311-48.32,8.931-12.738,3.995-18.989,8.508-19.083,13.725-.188,10.717,27.309,18.143,50.388,22.421,31.963,5.97,74.548,9.73,119.859,10.576,6.44.141,12.785.188,19.084.188,38.12,0,73.467-2.162,101.1-6.3,23.267-3.478,51-9.824,51.187-20.541C1445.3,982.085,1399.24,973.719,1371.744,969.958Z" transform="translate(-1019.456 -611.185)"/>
          <g id="Group_15267" data-name="Group 15267" transform="translate(0 0)">
            <path id="Path_15891" data-name="Path 15891" d="M1648.261,1010.2c-3.619-7.8-7.474-16.546-7.521-16.64a1.42,1.42,0,0,0-2.585,1.175c.047.094,3.9,8.884,7.521,16.733,6.816,14.618,9.542,20.4,9.542,20.447a1.386,1.386,0,0,0,1.269.8,1.457,1.457,0,0,0,.612-.141,1.409,1.409,0,0,0,.658-1.88C1657.8,1030.553,1655.077,1024.818,1648.261,1010.2Z" transform="translate(-1301.79 -628.822)" fill="#677282"/>
            <path id="Path_15892" data-name="Path 15892" d="M1358.089,440.23c-16.968-30.223-64.912-58.9-116.569-69.8a243.042,243.042,0,0,0-63.267-4.747l-.423-.141a1.418,1.418,0,0,0-.988.235,186.6,186.6,0,0,0-28.766,3.9l-12.832-33.232a38.239,38.239,0,0,0,8.366-13.631c3.1-8.367,2.868-14.571,2.444-17.438a14.783,14.783,0,0,0,12.832-10.435,9.373,9.373,0,0,0-4.278-10.764c-5.218-3.1-10.858.611-13.537,2.867a26.609,26.609,0,0,0-8.366-10.247c10.622-4.606,16.263-15.934,19.177-21.763,2.773-5.546,4.137-15.652,1.269-23.549a18.227,18.227,0,0,0-10.106-10.952,22.276,22.276,0,0,0-18.8.141c-7.991,3.713-14.242,11.892-17.58,22.985-3.995,13.208-1.363,21.622,1.128,25.993a65.754,65.754,0,0,0-20.681,5.875c-9.589,4.324-17.063,9.636-18.8,11.845a1.411,1.411,0,0,0-.047,1.692c.329.47,6.816,9.307,15.088,13.161a30.265,30.265,0,0,0-.611,3.1c-3.713-.376-9.589.611-12.456,6.534a10.214,10.214,0,0,0,2.21,12.174,9.056,9.056,0,0,0,6.016,2.209,13.961,13.961,0,0,0,6.675-1.927c3.76,9.448,9.636,15.84,17.532,18.942.235.094.517.188.752.282l.469,13.208v.987c0,.141.048.282.048.423l.7,19.883c-7.615,2.491-37.133,12.5-59.883,25.664a433.118,433.118,0,0,0-42.491,28.155l-8.743,6.157c5.264-13.631,14.759-31.3,19.554-40.188l20.258-37.6a2.017,2.017,0,0,0,.47-1.081v-.141c0-.658-.329-2.3-3.291-4.23a142.5,142.5,0,0,0,6.957-14.477,19.01,19.01,0,0,0-1.88-18.8c-1.316-1.833-11.234-13.913-15.934-14.242a2.537,2.537,0,0,0-2.115.752c-1.081,1.128-1.692,3.337,1.974,11.375,1.175,2.538,2.444,4.935,3.243,6.44-2.209.705-5.734,2.256-7.1,5.029a1.409,1.409,0,1,0,2.539,1.222c1.128-2.256,5.405-3.666,6.956-4a1.406,1.406,0,0,0,.987-.8,1.493,1.493,0,0,0-.047-1.269c-4.042-7-7-14.289-6.533-15.934.47.094,2.209.658,6.533,4.888a88.842,88.842,0,0,1,7.238,8.179,18.746,18.746,0,0,1,1.316,2.162,17.064,17.064,0,0,1,.282,13.913c-1.927,4.653-5.687,13.114-9.635,18.707a58.707,58.707,0,0,1-11-3.29c-9.4-3.713-14.383-8.649-15.934-10.341a105.368,105.368,0,0,0,8.461-16.31,1.414,1.414,0,0,0-2.633-1.034,103.053,103.053,0,0,1-8.32,16.028,1.586,1.586,0,0,0-.235.658.046.046,0,0,1-.047.047l-.047.047a232.007,232.007,0,0,1-22.844,28.484l-1.833,1.88c-23.972,24.536-44.654,45.735-47.756,68.485-2.162,15.793,3.056,30.976,15.135,43.9,10.764,11.516,26.792,20.964,45.218,26.6,23.408,7.145,50.576,8.414,66.651,8.414,6.111,0,10.67-.188,12.738-.282,1.363,8.79,10.012,60.917,28.3,98.332a1.386,1.386,0,0,0,1.269.8,1.447,1.447,0,0,0,.611-.141,1.409,1.409,0,0,0,.658-1.88c-2.679-5.5-5.171-11.328-7.426-17.3,7.285,1.363,31.68,5.312,65.993,5.312,9.307,0,19.318-.282,29.941-.987,24.254-1.645,40.235-5.265,49.4-8.038,10.012-3.008,14.242-5.64,14.43-5.782a1.4,1.4,0,1,0-1.5-2.35c-.141.094-16.733,10.294-62.515,13.349-45.029,3.008-82.727-1.6-96.875-4.559-13.584-36.992-19.554-77.885-19.648-78.355v-.094a.173.173,0,0,0-.047-.141c0-.047-.047-.094-.047-.141s-.047-.094-.047-.141a.1.1,0,0,0-.095-.094c-.047-.047-.047-.094-.094-.094l-.094-.094c-.047-.047-.094-.047-.094-.094-.047,0-.047-.047-.095-.047-.047-.047-.094-.047-.141-.094-.047,0-.047-.047-.094-.047-.047-.047-.094-.047-.188-.047h-.094a.356.356,0,0,1-.188-.047h-.235c-.423.047-44.465,2.867-79.718-7.944-17.955-5.5-33.561-14.665-44-25.8-11.469-12.268-16.451-26.651-14.43-41.6,3.008-21.81,23.361-42.726,47-66.886l1.833-1.88c4.324-4.418,8.414-9.26,11.939-13.678a54.715,54.715,0,0,0,33.514,18.379l-9.448,17.579c-6.345,11.845-21.1,39.154-23.267,52.5-1.081,4.23-2.068,9.354-1.927,13.208.094,3.76,3.1,6.815,7.286,7.474a8.535,8.535,0,0,0,1.5.141,7.607,7.607,0,0,0,7.474-5.217,88.865,88.865,0,0,0,2.679-10.153,84.324,84.324,0,0,1,3.619-12.832c5.123-12.691,18.379-22.844,22.562-25.852l1.363-.94c.094-.094.188-.141.282-.235,4.418-2.773,9.072-5.64,13.96-8.461,12.08-7,26.182-13.114,37.744-17.626a62.821,62.821,0,0,0,13.115,16.075c6.862,6.017,17.532,12.5,31.915,12.5a52.777,52.777,0,0,0,9.167-.846c14.2-2.632,25.8-11.986,33.513-27.027a80.618,80.618,0,0,0,7.192-20.776,238.182,238.182,0,0,1,62.139,4.7,231.168,231.168,0,0,1,71.493,27.92c20.071,12.221,35.441,26.6,43.2,40.47,15.558,27.685-1.081,51.375-14.477,70.412-7.427,10.529-22.7,27.732-34.783,40.846-21.246-5.405-30.036-26.6-31.351-30.129,6.11-8.508,13.866-19.742,21.81-32.668,11.375-18.473,17.109-26.933,18.9-29.518l.658-.94c.424-.564,5.312-7.05,2.962-11.892-1.223-2.538-4.936-5.453-9.683-6.063a12.859,12.859,0,0,0-11.7,4.794c-2.115,2.491-3.337,6.392-4.795,10.9-3.149,9.918-7,22.092-22.28,23.878l-4.794.235c-.142,0-.235.047-.377.047a195.438,195.438,0,0,1-27.591-2.068c-11.045-1.551-21.152,4.747-22.045,5.358a49.742,49.742,0,0,0-5.969,3.713c-4.372,3.1-6.581,5.781-6.722,8.179-.235,2.867.564,5.076,2.3,6.58,2.867,2.4,8.131,2.538,16.075.47a7.848,7.848,0,0,1,6.251.893c4.324,2.632,8.131,9.73,11.046,20.588.705,2.867,1.128,4.653,1.175,4.7a1.385,1.385,0,0,0,.47.752,166.134,166.134,0,0,0,6.346,19.131,1.43,1.43,0,0,0,1.269.846,1.251,1.251,0,0,0,.564-.141,1.428,1.428,0,0,0,.705-1.88c-2.491-5.546-5.97-17.486-9.166-29.754-3.76-15.464-7.944-32.856-8.6-36.71a23.1,23.1,0,0,1,5.97.047c16.874,2.35,38.543,3.619,55.558-1.41l.188-.047a.535.535,0,0,0,.376-.141l.047-.047a55.3,55.3,0,0,0,7.1-2.679c-1.974,3.1-4.136,6.628-6.58,10.623a533.25,533.25,0,0,1-34.079,48.978.046.046,0,0,1-.047.047.244.244,0,0,0-.094.188c0,.047-.047.094-.047.141s-.047.094-.047.141a40.919,40.919,0,0,1-.094.282v.282c0,.094.047.141.047.235v.047h0c.188.564,3.948,12.879,11.328,21.2,7.427,8.367,17.909,13.067,18.332,13.3a1.251,1.251,0,0,0,.564.141,1.457,1.457,0,0,0,1.034-.423c.376-.423,38.779-40.47,52.081-59.413,6.769-9.636,14.43-20.541,18.472-32.809C1366.69,466.5,1365.421,453.2,1358.089,440.23ZM988.4,358.255c3.948-5.029,6.956-9.307,8.414-11.422,2.209,2.3,7.427,6.862,16.4,10.435,6.251,2.491,12.5,3.948,16.4,4l-8.085,15.041A52.776,52.776,0,0,1,988.4,358.255Zm85.97-36.334a7.422,7.422,0,0,1-1.551-8.837c2.4-4.935,7.38-5.123,9.589-4.935a34.617,34.617,0,0,0,1.786,13.49C1078.839,324.882,1075.549,322.955,1074.373,321.921Zm12.879-.188a31.759,31.759,0,0,1-1.222-18.473,15.972,15.972,0,0,0,4.183.752h.329c9.025,0,18.66-11.328,22.374-16.169,1.457,2.773,4.841,6.957,12.314,7.8,10.623,1.222,15.841-4.512,16.358-5.17.376-.376,6.628-6.816,11.61-3.854a6.481,6.481,0,0,1,2.962,7.615c-1.034,3.948-5.171,8.273-11.8,8.461a1.381,1.381,0,0,0-1.082.564,1.579,1.579,0,0,0-.235,1.222c0,.047,1.786,6.91-2.068,17.345-5.547,14.947-15.887,19.036-21.528,20.164C1114,343.073,1095.478,344.812,1087.253,321.733Zm81.881,66.228c-7.427,14.477-18,23.079-31.54,25.57-14.336,2.632-27.309-1.034-38.637-10.952a59.384,59.384,0,0,1-12.362-15.088c9.588-3.666,17.109-6.157,19.789-7l.187-.047c.048,0,.048,0,.048-.047.047,0,.094-.047.141-.047a.164.164,0,0,0,.094-.047c.047-.047.094-.047.094-.094.047-.047.094-.047.094-.094l.094-.094c.047-.047.047-.094.094-.094.047-.047.047-.094.094-.094,0-.047.047-.094.047-.141s.047-.094.047-.141.047-.094.047-.141v-.376l-.7-20.165c17.3-4,25.9-10.67,28.86-13.49l10.2,26.416c0,.047.047.047.047.094s0,.047.047.094a.353.353,0,0,1,.094.188v.047c.047.047.095.141.188.188l.047.047a.664.664,0,0,0,.188.141.046.046,0,0,1,.047.047c.047.047.142.047.189.094h.046a.424.424,0,0,0,.235.047h.33a.174.174,0,0,0,.141-.047h.047c.188-.047,10.858-2.82,28.3-4.042A73.265,73.265,0,0,1,1169.134,387.961Zm120.94,182.375c-2.632-1.316-10.717-5.593-16.5-12.127-6.016-6.815-9.635-16.78-10.529-19.46,1.269-1.6,4.935-6.3,10.058-13.255a63.243,63.243,0,0,0,6.581,11.657c8.084,11.187,17.485,16.028,24.583,18.1C1297.407,562.58,1291.954,568.362,1290.074,570.336Z" transform="translate(-922.686 -218.524)" fill="#677282"/>
          </g>
          <path id="Path_15893" data-name="Path 15893" d="M1360.709,1034.135c35.957.658,70.271-.564,98.9-3.478-1.034-2.115-3.431-7.05-7.1-14.477-4.23-8.555-9.354-22.28-9.354-22.28a28.216,28.216,0,0,1-6.722,4.888c-4.794,2.726-7.238,2.491-8.179,2.209-.94-.329-10.482,4.7-10.482,4.7s-32.433,8.132-56.264,9.542-52.174-.47-52.644-.47-41.363-3.948-41.363-3.948l7.38,17.815C1300.544,1031.644,1329.968,1033.571,1360.709,1034.135Z" transform="translate(-1105.424 -628.444)" fill="#fff"/>
        </g>
      </g>
      <path id="Path_15894" data-name="Path 15894" d="M-11036.156,6352.973s-75.044-7.505-66.469,63.253-167.392,88.512-52.533,221.924-161.887,63.254-161.887,63.254" fill="none" stroke="#677282" stroke-width="2"/>
    </g>
  </g>
</svg>
