<svg xmlns="http://www.w3.org/2000/svg" xmlns:xlink="http://www.w3.org/1999/xlink" width="320" height="311" viewBox="0 0 320 311">
  <defs>
    <clipPath id="clip-path">
      <rect id="Rectangle_3725" data-name="Rectangle 3725" width="320" height="311" transform="translate(-1025 4094)" fill="#202124"/>
    </clipPath>
  </defs>
  <g id="Mask_Group_543" data-name="Mask Group 543" transform="translate(1025 -4094)" clip-path="url(#clip-path)">
    <g id="Group_14996" data-name="Group 14996">
      <path id="Path_15602" data-name="Path 15602" d="M-11036.156,6352.973s-75.044-7.505-66.469,63.253-167.392,88.512-52.533,221.924-161.887,63.254-161.887,63.254" transform="translate(-7205.892 -6816.31) rotate(-90)" fill="none" stroke="#677282" stroke-width="2"/>
      <g id="Group_14995" data-name="Group 14995" transform="translate(-1102.12 4104.167)">
        <path id="Path_15603" data-name="Path 15603" d="M406.941,1107.116c-4.088-5.353-11.194-7.884-11.194-7.884s-15.477,24.237-35.917,31.148-27.254-7.3-32.51-15.184-10.9-26.086-10.9-26.086a69.255,69.255,0,0,0-10.026-19.272c-7.2-9.734-18.494-15.866-25.4-18.883s-13.335-5.354-13.335-5.354l-2.92,2.823-33.484,47.306L203.6,1111.652l-2.141,3.582a.561.561,0,0,1-.02.467.586.586,0,0,1-.467.331c-1.772,2.94-3.835,6.307-4.069,6.463-.35.234-7.728,8.741-9.208,10.435,3,2.613-60.25,44.445-60.336,51.783-.268,23.007,14.669,67.253,29.153,76.764,4.732,3.107,16.687,12.914,21.582,15.94,3.343,2.067,79.738-94.758,83.226-92.7L278.2,1163.98c-.078-.058-.136-.1-.214-.156a.584.584,0,1,1,.7-.934,2.213,2.213,0,0,1,.253.195l8.955-11c24.723,19.856,53.924,16.45,53.924,16.45s18.3-1.557,39.129-17.131a102.368,102.368,0,0,0,30.077-36.988S411.029,1112.47,406.941,1107.116Z" transform="translate(-164.832 -976.802)" fill="#fff"/>
        <g id="Group_14971" data-name="Group 14971" transform="translate(133.443 77.168)">
          <path id="Path_15604" data-name="Path 15604" d="M764.733,1088.6s3.446,6.561,7.456,10.065a38.612,38.612,0,0,0,10.181,5.782l-11.35,13.822L755.7,1096.99Z" transform="translate(-755.7 -1088.6)" fill="#fff"/>
        </g>
        <g id="Group_14976" data-name="Group 14976" transform="translate(136.713 78.901)">
          <g id="Group_14973" data-name="Group 14973">
            <g id="Group_14972" data-name="Group 14972">
              <path id="Path_15605" data-name="Path 15605" d="M779.956,1103.691a35.631,35.631,0,0,1-3.893-6.191c-.6.564-1.246,1.09-1.83,1.674-.136.136-.272.292-.409.428l-.019.02a9.628,9.628,0,0,1-.681,1.129,3.475,3.475,0,0,1-.623.837,42.7,42.7,0,0,0,3.329,5.042,38.63,38.63,0,0,0,14.328,11.544c1.129-1.4,2.492-2.57,3.66-3.932A33.039,33.039,0,0,1,779.956,1103.691Z" transform="translate(-772.5 -1097.5)" fill="#fff"/>
            </g>
          </g>
          <g id="Group_14975" data-name="Group 14975" transform="translate(9.597 20.616)">
            <g id="Group_14974" data-name="Group 14974">
              <path id="Path_15606" data-name="Path 15606" d="M821.8,1203.4a21.741,21.741,0,0,1,1.713,3.271c.234.642.389,1.285.564,1.947.02.039.078.253.136.428.078.117.273.486.351.642.389-.35.759-.7,1.149-1.051.389-.37.759-.739,1.109-1.129a6.727,6.727,0,0,0,.487-.565c.019-.039.059-.078.1-.136a4.179,4.179,0,0,1,.272-.35A30.111,30.111,0,0,1,821.8,1203.4Z" transform="translate(-821.8 -1203.4)" fill="#fff"/>
            </g>
          </g>
        </g>
        <path id="Path_15607" data-name="Path 15607" d="M714.542,1104.452c0-.02-.02-.02,0,0,.526-.9,1.051-1.771,1.577-2.686a30.148,30.148,0,0,0-4.906-2.434s-.759,1.207-2.18,3.134c-.253.331-.526.642-.8.954-.039.1-.078.194-.136.312-5.509,7.32-17.832,21.687-32.8,26.748-20.441,6.911-27.254-7.3-32.51-15.184s-10.9-26.086-10.9-26.086a69.258,69.258,0,0,0-10.026-19.273c-7.2-9.734-18.494-15.866-25.4-18.883s-13.335-5.354-13.335-5.354l-2.92,2.823-.8,1.129c4.322.837,16.352,4.322,25.814,10.96,10.9,7.865,14.893,18.007,20.441,32.608,3.893,10.259,8.955,25.872,17.7,35.644a.06.06,0,0,0-.039-.019s4.692,4.964,5.976,9.189-1.168,8.429-2.725,10.22c-2.083,2.394-2.667,5.392.506,6.5s10.376-4.439,15.9-9.714c7.826-7.456,18.338-11.252,18.338-11.252l-.409.117a74.085,74.085,0,0,0,24.665-17.735,41.3,41.3,0,0,1,11.447,13.588,9.569,9.569,0,0,1,1.11-1.616c.759-.954,1.674-1.791,2.472-2.725a46.689,46.689,0,0,0-11.583-13.238c.9-1.11,1.752-2.239,2.589-3.407a39.589,39.589,0,0,1,11.057,13.55,16.381,16.381,0,0,0,.876-1.48c.1-.194.195-.37.272-.565a1.758,1.758,0,0,1,.058-.175,8.67,8.67,0,0,0,.292-1.227,3.167,3.167,0,0,1,1.421-2.1C721.842,1110.545,719.642,1108.56,714.542,1104.452Z" transform="translate(-480.278 -976.883)" fill="#fff"/>
        <g id="Group_14977" data-name="Group 14977" transform="translate(99.518 17.504)">
          <path id="Path_15608" data-name="Path 15608" d="M601.871,840.552l2.2-17.267a20.306,20.306,0,0,0,11.933-3.5c6.093-4.03,5.977-8.176,6.619-8.819s4.049-4.808,5.315-5,3.855-3.309,3.076-4.711-4.088.039-5.159-.779-1.518-6.327-2.725-8.6-6.23-8.994-8.137-9.695-6.424,5.451-6.424,5.451l-12.031,3.738s-11.525,1.713-11.719,1.849-3.212,6.191-3.212,6.191-.35,6.775-.039,6.813,3.66,10.415,3.66,10.415l-.487,16.781s6.969,2.531,9.773,3.738S601.871,840.552,601.871,840.552Z" transform="translate(-581.437 -782.114)" fill="#fff"/>
        </g>
        <g id="Group_14978" data-name="Group 14978" transform="translate(142.495 63.819)">
          <path id="Path_15609" data-name="Path 15609" d="M820.674,1020.217a2.756,2.756,0,0,1-.837,3.309c-1.752,1.616-3.562,3.5-3.368,3.952s1.363,2.394,1.363,2.394,5.976,1.811,5.587,1.947-8.313,15.515-8.313,15.515a34.09,34.09,0,0,1-7.4-5.84,37.8,37.8,0,0,1-5.509-8.118s4.478-6.366,5.451-7.144,9.4-5.646,9.4-5.646S819.759,1019.633,820.674,1020.217Z" transform="translate(-802.2 -1020.028)" fill="#fff"/>
        </g>
        <g id="Group_14979" data-name="Group 14979" transform="translate(230.915 100.257)">
          <path id="Path_15610" data-name="Path 15610" d="M1256.4,1229.373l3.563-5.49s.448-5.12-.526-7.4-1.947-8.9.448-9.286a9.7,9.7,0,0,1,2.531,3.114,29.86,29.86,0,0,0,1.81,3.173s2.394-3.5,4.731-4.03,4.146-.136,4.283.642.526,2.725.974,2.92,2.978.837,2.978,1.694a3.568,3.568,0,0,0,.915,2.336c.389.195.915,1.693,1.227,2.141.331.448,1.557,1.227,1.557,2.667s-1.3,7.651-3.835,10.9-7.145,8.118-7.145,8.118a61.1,61.1,0,0,0-6.093-7.145C1261.559,1231.787,1256.4,1229.373,1256.4,1229.373Z" transform="translate(-1256.4 -1207.2)" fill="#fff"/>
        </g>
        <g id="Group_14980" data-name="Group 14980" transform="translate(230.954 100.276)">
          <path id="Path_15611" data-name="Path 15611" d="M1260.007,1207.689l.214-.273c-.1-.078-.136-.117-.136-.117-2.394.389-1.421,7.008-.448,9.286s.526,7.4.526,7.4l-3.562,5.49s2.336,1.09,4.555,2.395l.35.039A9.653,9.653,0,0,0,1264,1227.1c.642-3.7-1.947-10.065-3.368-14.075C1259.384,1209.617,1260.007,1207.689,1260.007,1207.689Z" transform="translate(-1256.6 -1207.3)" fill="#fff"/>
        </g>
        <g id="Group_14981" data-name="Group 14981" transform="translate(2.048 0)">
          <path id="Path_15612" data-name="Path 15612" d="M227.074,696.366c-2.005-3.757-8.176-5.587-14.542-2.862s-6.619,7.4-11.427,6.619a21.225,21.225,0,0,0-17.267,4.808c-5.84,4.945-7.651,6.366-11.933,5.062s-11.155-.136-16.489,7.923c-5.315,8.04-9.208,10.376-15.438,9.6a22.477,22.477,0,0,0-20.246,8.955c-5.315,7.261-4.419,9.734-12.206,12.07S93.372,754.514,92.2,759.965a21.253,21.253,0,0,1-6.093,11.68c-3.368,3.641-7.67,9.792-3.893,17.657,3.991,8.313,9.052,7.826,13,17.19,3.056,7.261,9.052,19.273,20.733,21.862s24.529-6.23,31.673-4.536,14.016,2.862,19.72-5.2,7.008-9.6,12.323-12.323,7.144-7.144,5.976-16.489-8.429-21.414-3.5-28.948,8.313-12.323,6.755-18.942-6.716-8.682-6.463-12.576,3.679-7.164,7.008-5.84c4.244,1.694,2.94,5.392,5.12,5.821,1.927.389,2.667-1.927,3.563-5.568.915-3.64,1.071-5.334,3.757-5.061,2.979.311,6.21,1.129,8.1-1.207,1.46-1.791.35-3.154,1.382-5.159,1.557-3,6.268-.487,11.914-4.575S228.2,698.468,227.074,696.366Z" transform="translate(-80.747 -692.2)" fill="#677282"/>
        </g>
        <g id="Group_14982" data-name="Group 14982" transform="translate(105.013 32.645)">
          <path id="Path_15613" data-name="Path 15613" d="M610.253,864.954a.537.537,0,0,1-.175-.02.591.591,0,0,1-.389-.74c1.324-4.205,4.3-4.575,5.684-4.185a.586.586,0,0,1-.312,1.129c-.136-.039-2.94-.72-4.244,3.407A.6.6,0,0,1,610.253,864.954Z" transform="translate(-609.662 -859.891)" fill="#677282"/>
        </g>
        <g id="Group_14983" data-name="Group 14983" transform="translate(107.556 33.1)">
          <path id="Path_15614" data-name="Path 15614" d="M624.766,866.68a.593.593,0,0,1-.526-.35l-1.46-3.271a.588.588,0,1,1,1.071-.487l1.46,3.271a.591.591,0,0,1-.292.779A.434.434,0,0,1,624.766,866.68Z" transform="translate(-622.727 -862.227)" fill="#677282"/>
        </g>
        <g id="Group_14984" data-name="Group 14984" transform="matrix(-0.966, -0.259, 0.259, -0.966, 136.588, 29.621)">
          <path id="Path_15615" data-name="Path 15615" d="M1.761,3.325A7.341,7.341,0,0,1,.5,3.228.581.581,0,1,1,.671,2.079C4.37,2.6,5.908.288,5.927.269A.578.578,0,1,1,6.9.892,6.034,6.034,0,0,1,1.761,3.325Z" transform="translate(0 0)" fill="#677282"/>
        </g>
        <path id="Path_15616" data-name="Path 15616" d="M738.146,858.643a9.941,9.941,0,0,0,3.738.175c.818-.136,1.382-.428,1.44-.759s-.331-.818-1.012-1.285a10.313,10.313,0,0,0-3.465-1.382,12.269,12.269,0,0,0-2.492-.292c-1.577,0-2.589.409-2.686.857C733.532,856.638,735.206,858,738.146,858.643Z" transform="translate(-604.508 -823.388)" fill="#fff"/>
        <path id="Path_15617" data-name="Path 15617" d="M738.187,851.124a11.363,11.363,0,0,0-3.874-1.557c-2.9-.623-6.171-.331-6.561,1.46s2.472,3.426,5.373,4.049a12.324,12.324,0,0,0,2.725.311,8.559,8.559,0,0,0,1.46-.117c1.363-.234,2.2-.818,2.394-1.655C739.861,852.8,739.335,851.9,738.187,851.124Zm-9.305.156c.1-.448,1.11-.857,2.686-.857a11.146,11.146,0,0,1,2.492.292,10.284,10.284,0,0,1,1.382.389c-1.051.195-1.772.6-1.908,1.207s.35,1.266,1.226,1.869a9.4,9.4,0,0,1-1.421-.234C730.419,853.3,728.745,851.941,728.881,851.28Z" transform="translate(-599.721 -818.691)" fill="#677282"/>
        <g id="Group_14985" data-name="Group 14985" transform="translate(122.242 44.735)">
          <path id="Path_15618" data-name="Path 15618" d="M707.5,924.379a9.346,9.346,0,0,0,2.837-.377c1.752-.234,1.771,2.063,1.168,3.426-.779,1.752-3.154,2.745-6.541,2.161s-7.748-2.823-6.619-6.074,11-.409,11.992.487c.621.555-2.425,1.425-3.585,1.332C705.982,925.273,706.958,924.271,707.5,924.379Z" transform="translate(-698.166 -921.996)" fill="#677282"/>
        </g>
        <path id="Path_15619" data-name="Path 15619" d="M784.477,1100.921c-.019-2.064-2.939-4.672-3.27-4.964a.579.579,0,0,0-.876.136l-1.888,3.173a21.687,21.687,0,0,1-4.886-3.582,43.717,43.717,0,0,1-7.281-9.773.019.019,0,0,0-.02-.019c-.019-.02-.019-.039-.039-.058s-.019-.039-.039-.039l-.02-.019-.019-.019c-.02-.02-.039-.02-.039-.039-.019-.019-.039-.019-.039-.039a.068.068,0,0,1-.039-.02c-.019,0-.039-.02-.058-.02s-.039-.019-.058-.019a.071.071,0,0,1-.058-.02h-.175a.071.071,0,0,0-.058.02.072.072,0,0,0-.058.019c-.019,0-.039.02-.058.02a3.52,3.52,0,0,1-.039.039c-.019.019-.039.019-.058.039s-.039.02-.039.039l-.019.019-8.176,7.982a.582.582,0,0,0-.02.818.6.6,0,0,0,.409.175.561.561,0,0,0,.409-.175l7.631-7.437a44.472,44.472,0,0,0,7.125,9.383,25.217,25.217,0,0,0,9.714,5.743l-10.24,12.362a.566.566,0,0,0,.078.818.547.547,0,0,0,.37.136.583.583,0,0,0,.448-.214l10.785-13.024A1.912,1.912,0,0,0,784.477,1100.921Z" transform="translate(-623.294 -1009.016)" fill="#677282"/>
        <g id="Group_14988" data-name="Group 14988" transform="translate(141.22 45.749)">
          <g id="Group_14986" data-name="Group 14986" transform="translate(0.663 1.008)">
            <path id="Path_15620" data-name="Path 15620" d="M800.1,953.841l5,1.81s22.193,7.923,22.388,7.729,3.368-2.979,4.477-6.093a44.182,44.182,0,0,0,1.694-7.067l-9.013-6.56L813.1,934.569l-3.446-1.947s-.973-1.752-5.2,4.283a29.044,29.044,0,0,0-4.925,11.933S798.149,952.868,800.1,953.841Z" transform="translate(-799.055 -932.386)" fill="#fff"/>
          </g>
          <path id="Path_15621" data-name="Path 15621" d="M830.362,1026.973c.8-.526,1.6-1.051,2.414-1.577a23.111,23.111,0,0,1,7.086-3.562,3.565,3.565,0,0,1,1.285-.117,1.448,1.448,0,0,1,1.071.642,1.62,1.62,0,0,1-.272,1.79,11.166,11.166,0,0,1-1.441,1.266,11.942,11.942,0,0,0-1.577,1.713,2.854,2.854,0,0,0-.9,2.278,4.345,4.345,0,0,0,.934,1.46,1.493,1.493,0,0,1,.292,1.616c-.37.584-1.246.526-1.927.389-1.148-.234-2.317-.487-3.465-.72a8.952,8.952,0,0,1-3-1.012,7.736,7.736,0,0,1-1.791-1.771C828.1,1028.063,829.408,1027.6,830.362,1026.973Z" transform="translate(-822.292 -1003.302)" fill="#fff"/>
          <g id="Group_14987" data-name="Group 14987" transform="translate(15.954 14.191)">
            <path id="Path_15622" data-name="Path 15622" d="M890.7,1018.5a.7.7,0,0,1-.195-.039L877.99,1014.1a.563.563,0,0,1-.35-.74.586.586,0,0,1,.74-.35l12.206,4.244a16.343,16.343,0,0,0,4.2-5.976,26.188,26.188,0,0,0,1.577-6.288l-5.12-3.835a.584.584,0,0,1,.7-.934l5.392,4.03a.577.577,0,0,1,.234.506,27.225,27.225,0,0,1-1.694,6.93,17.276,17.276,0,0,1-4.808,6.677A.545.545,0,0,1,890.7,1018.5Z" transform="translate(-877.601 -1000.105)" fill="#677282"/>
          </g>
          <path id="Path_15623" data-name="Path 15623" d="M813.471,932.188l-5.879-4.4a1.16,1.16,0,0,0-.545-.467c-2.433-1.11-6.483,6.035-8.293,9.967s-4.575,11.68-2.161,12.79a1.682,1.682,0,0,0,.448.117l4.886,1.694a.7.7,0,0,0,.195.039.578.578,0,0,0,.175-1.129l-3.621-1.246c2.239-1.752,4.847-6.483,6.21-9.422,1.3-2.842,3.115-7.69,3.1-10.571l4.769,3.562a.584.584,0,0,0,.818-.117A.566.566,0,0,0,813.471,932.188Zm-6.989-.448a37.9,37.9,0,0,1-2.725,7.845,38.524,38.524,0,0,1-4.166,7.183c-1.538,2.005-2.356,2.219-2.453,2.161-.117-.058-.467-.8.039-3.29a37.892,37.892,0,0,1,2.726-7.845,38.508,38.508,0,0,1,4.166-7.183c1.421-1.849,2.219-2.18,2.414-2.18h.039C806.638,928.509,806.989,929.268,806.483,931.741Z" transform="translate(-795.649 -927.206)" fill="#677282"/>
        </g>
        <g id="Group_14990" data-name="Group 14990" transform="translate(155.143 47.133)">
          <g id="Group_14989" data-name="Group 14989" transform="translate(0.337 0.542)">
            <path id="Path_15624" data-name="Path 15624" d="M875.188,937.351c.35.117.292,2.92.623,2.725s2.1-.292,2.628.545a10.418,10.418,0,0,1,.876,2.686s1.4-.35,1.908.234a4.335,4.335,0,0,1,.623,1.947s1.46.195,1.908,1.071a19.693,19.693,0,0,1,.876,3.66s.195,2.881-.156,2.881-2.239-1.908-2.239-1.908-.292,1.752-.74,1.752-1.986-2.687-1.986-2.687-.817,2.492-1.46,2.3-1.655-2.3-1.947-5.1a14.288,14.288,0,0,0-.973-4.244s-3.8,7.787-5.548,6.58.428-4.439.428-4.439l2.433-5.178-2.239-1.635A4.954,4.954,0,0,1,875.188,937.351Z" transform="translate(-868.9 -937.097)" fill="#fff"/>
          </g>
          <path id="Path_15625" data-name="Path 15625" d="M883.644,948.1a34.259,34.259,0,0,0-.779-3.8,2.1,2.1,0,0,0-1.966-1.655c-.078-.37-.156-.681-.214-.876a2.13,2.13,0,0,0-2.395-1.46,10.118,10.118,0,0,0-.467-1.6,2.7,2.7,0,0,0-2.92-1.674,2.617,2.617,0,0,0-.818-2.1c-2.453-1.888-5.977,1.129-6.132,1.246a.58.58,0,0,0,.759.876c.02-.019,2.959-2.511,4.653-1.207.779.6.292,3.66-1.129,6.969-.915,2.122-2.336,3.932-3.329,4.244a.556.556,0,0,1-.526-.039c-.039-.078-.35-.818,1.071-4.458.8-2.025,1.733-3.932,1.752-3.952a.583.583,0,0,0-1.051-.506c-.019.02-1.032,2.1-1.869,4.283-1.285,3.368-1.46,5.042-.526,5.626a1.644,1.644,0,0,0,.9.253,2.294,2.294,0,0,0,.6-.1c1.557-.487,3.154-2.823,4.049-4.906.078-.195.214-.506.37-.915.1.9.253,2.141.467,3.387.448,2.609,1.032,5.061,2.3,5.178h.156a1.345,1.345,0,0,0,.934-.389,2.69,2.69,0,0,0,.6-.9c.409.837,1.032,1.655,1.888,1.655a1.693,1.693,0,0,0,.312-.039,1.048,1.048,0,0,0,.7-.565.719.719,0,0,0,.1-.214A3.1,3.1,0,0,0,882.5,951.5a1.354,1.354,0,0,0,.448.078.924.924,0,0,0,.584-.195C883.78,951.21,884.072,950.977,883.644,948.1Zm-7.028,1.674c-.642-.409-1.5-4.38-1.869-8.76a.566.566,0,0,0-.409-.506,15.1,15.1,0,0,0,.506-2.3,1.61,1.61,0,0,1,1.888.915,19.656,19.656,0,0,1,.837,6.522c.019,1.908-.312,3.6-.8,4.049A.234.234,0,0,1,876.616,949.77Zm3.426.37c-.35-.039-.993-1.032-1.363-2.394-.02-.039-.02-.078-.039-.117a17.02,17.02,0,0,0,.1-1.986,32.977,32.977,0,0,0-.253-4.166.97.97,0,0,1,1.09.662,28.916,28.916,0,0,1,.662,4.322C880.451,949.225,880.14,949.984,880.042,950.14Zm1.48-1.577a.277.277,0,0,0-.039-.117,20.7,20.7,0,0,0-.1-2.336c-.058-.779-.156-1.557-.273-2.239a1.084,1.084,0,0,1,.643.779,29.611,29.611,0,0,1,.954,5.684A2.781,2.781,0,0,1,881.522,948.563Z" transform="translate(-867.168 -934.316)" fill="#677282"/>
        </g>
        <g id="Group_14991" data-name="Group 14991" transform="translate(22.039 131.514)">
          <path id="Path_15626" data-name="Path 15626" d="M184.014,1393.271a.531.531,0,0,1-.409-.175.582.582,0,0,1,0-.818c.136-.136,13.471-13.277,16.9-24.1a.591.591,0,0,1,1.129.35c-1.48,4.672-4.828,10.24-9.928,16.528-3.8,4.672-7.222,8.021-7.242,8.06A.832.832,0,0,1,184.014,1393.271Z" transform="translate(-183.437 -1367.762)" fill="#677282"/>
        </g>
        <g id="Group_14992" data-name="Group 14992" transform="translate(156.93 74.938)">
          <path id="Path_15627" data-name="Path 15627" d="M876.942,1090.178a.614.614,0,0,1-.312-.078.577.577,0,0,1-.194-.8,96.452,96.452,0,0,0,6-11.8.58.58,0,1,1,1.071.448,97.42,97.42,0,0,1-6.074,11.953A.555.555,0,0,1,876.942,1090.178Z" transform="translate(-876.348 -1077.144)" fill="#677282"/>
        </g>
        <path id="Path_15628" data-name="Path 15628" d="M1277.572,1183.546c-.039-.02-.078-.059-.1-.059a1.787,1.787,0,0,1-.156-.584,2.749,2.749,0,0,0-.312-.954,2.463,2.463,0,0,0-.993-.818c-.194-.1-.311-.156-.35-.234a1.5,1.5,0,0,1-.136-.778,2.473,2.473,0,0,0-.487-1.635,2.942,2.942,0,0,0-2.1-.974c-.35-.058-.8-.136-.856-.272a2.73,2.73,0,0,1-.117-.7c-.117-1.11-.35-3.173-3.076-3.485-2.764-.311-5.49,2.472-6.346,3.407l-1.947-2.005c-.039-.039-.078-.058-.1-.078-1.266-2.317-2.044-3-2.648-3.115a8.81,8.81,0,0,1-1.289-3.616,7.945,7.945,0,0,1,.413-3.626.585.585,0,1,0-1.11-.37,9.437,9.437,0,0,0,.837,7.962,2.637,2.637,0,0,0-.662.779c-.857,1.538-.8,4.438.136,7.2a21.657,21.657,0,0,1,.935,8.838c-.253.467-1.966,3.056-3.524,5.334a.593.593,0,0,0,.156.818.51.51,0,0,0,.331.1.608.608,0,0,0,.487-.253c3.621-5.314,3.66-5.568,3.7-5.724a22.084,22.084,0,0,0-.973-9.461c-.973-2.842-.8-5.237-.234-6.249a1.1,1.1,0,0,1,.584-.545c.8.253,3.018,4.458,4.906,9.266v.02c0,.019.02.039.02.058.019.019.019.039.039.058v.019l.02.019.059.058c.019,0,.019.02.039.02a.1.1,0,0,0,.078.039c.02,0,.02.019.039.019.039.02.078.02.117.039h0c.039,0,.078.019.117.019h.117c.039,0,.058-.019.078-.019h.019a.019.019,0,0,0,.02-.019c.019,0,.039-.02.058-.039.019,0,.019-.02.039-.02a.019.019,0,0,0,.02-.02,15.1,15.1,0,0,0,1.713-1.518,5.6,5.6,0,0,0,1.888-3.29.575.575,0,1,0-1.149-.058,3.55,3.55,0,0,1-.935,1.849l-1.557-1.6c.954-1.109,3.349-3.329,5.393-3.1,1.791.214,1.927,1.343,2.044,2.453a3.235,3.235,0,0,0,.214,1.051c.311.72,1.071.837,1.733.935a2.124,2.124,0,0,1,1.363.545,1.343,1.343,0,0,1,.253.935,2.827,2.827,0,0,0,.253,1.285,1.747,1.747,0,0,0,.857.759,1.3,1.3,0,0,1,.545.409,2.25,2.25,0,0,1,.136.526,1.935,1.935,0,0,0,.662,1.324.845.845,0,0,0,.136.078,1.929,1.929,0,0,1,1.129,1.752v.331c-.039,1.5-.078,4.03-3.173,9.325-2.414,4.127-7.631,8.974-7.67,9.013a.582.582,0,0,0-.039.817.624.624,0,0,0,.428.195.58.58,0,0,0,.389-.156c.214-.195,5.392-5,7.9-9.286,3.251-5.568,3.29-8.274,3.329-9.889v-.312A3.172,3.172,0,0,0,1277.572,1183.546Zm-14.25-3.017c-.272-.662-.7-1.694-1.207-2.823l2.025,2.063C1263.847,1180.062,1263.555,1180.315,1263.321,1180.529Z" transform="translate(-1023.14 -1071.551)" fill="#677282"/>
        <g id="Group_14993" data-name="Group 14993" transform="translate(174.319 70.759)">
          <path id="Path_15629" data-name="Path 15629" d="M1007.791,1093.1a21.77,21.77,0,0,1-3.322-.253c-12.541-1.889-12.735-8.157-12.9-14.231a22.642,22.642,0,0,0-.83-6.58c-1.993-5.937-9.579-13.491-24.362-15.2-.443-.059-.747-.351-.692-.662a.867.867,0,0,1,.941-.487c15.586,1.791,23.587,9.792,25.719,16.08a23.455,23.455,0,0,1,.858,6.813c.083,3.017.166,5.86,1.661,8.2,1.634,2.589,4.789,4.147,9.939,4.925a15.9,15.9,0,0,0,9.579-1.226,17.23,17.23,0,0,0,7.447-7.729,29.841,29.841,0,0,0,2.1-5.15c.055-.311.313-.5.756-.437.443.039.5.217.42.528-.083.39-1.8,9.848-9.777,13.741A16.778,16.778,0,0,1,1007.791,1093.1Z" transform="translate(-965.677 -1055.677)" fill="#677282"/>
        </g>
        <path id="Path_15630" data-name="Path 15630" d="M712.76,1070.458c-6.852-13.121-15.34-15.262-15.691-15.36h-.253c-.019,0-.019,0-.039.019-.019,0-.039.02-.058.02s-.02.019-.039.019c-.019.019-.039.019-.058.039-.019,0-.019.019-.039.019-.019.019-.039.019-.058.039l-.039.039c-.02.02-.039.039-.039.058v.019a90.749,90.749,0,0,1-22.426,23.77c-9.091,6.521-18.007,9.675-25.093,8.877-6.736-.759-13.043-5.821-18.747-15.029-4.2-6.794-8-15.554-11.972-27.585a62.243,62.243,0,0,0-11.525-21.3,61.623,61.623,0,0,0-14.834-12.4c-1.635-1.032-3.348-1.986-5.042-2.862l1.908-16.82a.578.578,0,0,0-1.149-.136L585.7,1008.28c-3.66-1.83-7.242-3.309-10.006-4.36-2.628-1.012-4.731-1.694-6.015-2.1-2.511-.8-2.687-.74-2.842-.681a.59.59,0,0,0,.175,1.149h0a103.25,103.25,0,0,1,24.217,10.415c9.792,6.132,19.72,14.386,25.872,33.075,5.86,17.773,15.516,41.6,31.693,43.412a20.727,20.727,0,0,0,2.453.136c8.682,0,17.423-4.906,23.458-9.228a91.362,91.362,0,0,0,22.485-23.711c1.694.564,8.643,3.5,14.425,14.406a66.916,66.916,0,0,1-4.945,9.15,108.255,108.255,0,0,1-17.91,21.278c-18.572,17.19-39.149,25.113-59.492,22.952a80.025,80.025,0,0,1-29.084-9.13,67.534,67.534,0,0,1-10.96-7.2h0c-.078-.078-8.254-7.008-11.719-14.153a58.16,58.16,0,0,1-3.524-9.383c-.681-2.258-1.129-3.757-1.966-4.594a3.448,3.448,0,0,0-3.27-.837,4.643,4.643,0,0,0-3.27,3.134c-.487,1.5-2.609,9.558,4.01,20.09a50.8,50.8,0,0,0,6.171,7.612c3.835,4.108,5.821,6.483,3.835,9.208l-.389.487a.679.679,0,0,0-.117.273l-17.19,21.433a.585.585,0,0,0,.1.818.663.663,0,0,0,.37.136.554.554,0,0,0,.448-.214l26.242-32.725a71.081,71.081,0,0,0,10.668,6.95,81.445,81.445,0,0,0,29.551,9.286,66.012,66.012,0,0,0,32-4.73,94.07,94.07,0,0,0,28.4-18.533c17.17-15.866,23.186-30.953,23.244-31.109A.939.939,0,0,0,712.76,1070.458Z" transform="translate(-465.998 -933.136)" fill="#677282"/>
        <path id="Path_15631" data-name="Path 15631" d="M696.433,794.783a3.462,3.462,0,0,0-3.115-.467,6.919,6.919,0,0,1-1.557.136c-.467-.019-.487-.019-.759-1.5a33.578,33.578,0,0,0-1.343-5.256c-1.966-5.879-9.344-12.206-9.656-12.478a.58.58,0,0,0-.759.876c.078.058,7.437,6.385,9.325,11.953a32.718,32.718,0,0,1,1.3,5.1c.273,1.479.428,2.375,1.849,2.453a7.733,7.733,0,0,0,1.83-.156c1.012-.175,1.616-.253,2.161.214a1.32,1.32,0,0,1,.389,1.187,3.66,3.66,0,0,1-2.336,2.55c-2.647,1.168-5.159,3.894-6.716,7.3a17.7,17.7,0,0,1-8.488,8.9c-4.263,2.005-9.266,2.161-14.892.428h-.019c-.019,0-.039-.02-.058-.02h-.136a.071.071,0,0,0-.058.02c-.019,0-.039,0-.039.019-.039.02-.058.02-.1.039-.019,0-.019.019-.039.019-.019.02-.039.02-.058.039l-.039.039c-.019.019-.039.019-.039.039l-.039.039c0,.019-.019.019-.019.039a.019.019,0,0,1-.019.019h0c-.156.292-1.6,3.193,2.064,9.072a13.169,13.169,0,0,1,2.025,7.3l-.214,1.791a.583.583,0,0,0,.467.642c.039,0,.078.019.117.019a.6.6,0,0,0,.565-.428,9.906,9.906,0,0,0,.253-2.044l1.733-14.289c.351.019.72.019,1.071.019a18.638,18.638,0,0,0,8-1.732,18.916,18.916,0,0,0,9.052-9.461c1.421-3.1,3.777-5.684,6.132-6.716a4.74,4.74,0,0,0,3.017-3.446A2.7,2.7,0,0,0,696.433,794.783Z" transform="translate(-547.28 -758.943)" fill="#677282"/>
        <g id="Group_14994" data-name="Group 14994" transform="translate(141.861 63.278)">
          <path id="Path_15632" data-name="Path 15632" d="M814.568,1033.825a.69.69,0,0,1-.273-.058.57.57,0,0,1-.253-.779c1.129-2.18.876-4.653-.74-7.359-.078-.136-.117-.214-.156-.272-.253-.6.195-1.149,3.271-4.01l.331-.311a2.621,2.621,0,0,0,1.051-2.142c-.039-.156-.136-.37-.584-.467-.331-.078-1.986.331-5.957,2.453a39.376,39.376,0,0,0-6.21,3.874,64.079,64.079,0,0,0-5.022,6.716.589.589,0,0,1-.973-.662,63.962,63.962,0,0,1,5.2-6.911c1.48-1.421,11.194-7.105,13.238-6.619a1.811,1.811,0,0,1,1.441,1.3,3.658,3.658,0,0,1-1.382,3.29l-.331.311a36.387,36.387,0,0,0-2.881,2.862c1.246,2.1,2.375,5.276.759,8.449A.6.6,0,0,1,814.568,1033.825Z" transform="translate(-798.944 -1017.249)" fill="#677282"/>
        </g>
      </g>
    </g>
  </g>
</svg>
