<svg xmlns="http://www.w3.org/2000/svg" width="38" height="38" viewBox="0 0 281.065 262">
  <g id="Group_14627" data-name="Group 14627" transform="translate(-186 -220)">
    <rect id="Rectangle_3" data-name="Rectangle 3" width="281" height="262" transform="translate(186 220)" fill="none"/>
    <g id="Group_21" data-name="Group 21">
      <path id="Path_5459" data-name="Path 5459" d="M-28.815,0V-128.86h-24.65V-74.8h-.34a29.073,29.073,0,0,0-14.11-9.69,37.971,37.971,0,0,0-11.05-1.7c-24.31,0-40.63,22.44-40.63,43.86a47.518,47.518,0,0,0,10.88,30.43A38.422,38.422,0,0,0-79.3,1.7c11.9,0,20.57-4.25,26.18-12.41h.34V0Zm-29.92-26.86a20.26,20.26,0,0,1-14.96,6.12,19.618,19.618,0,0,1-14.79-6.12A20.879,20.879,0,0,1-94.6-42.33a20.879,20.879,0,0,1,6.12-15.47,20,20,0,0,1,14.79-5.95,20.115,20.115,0,0,1,14.96,5.95,21.428,21.428,0,0,1,5.95,15.47A21.428,21.428,0,0,1-58.735-26.86ZM17.255,1.7c11.05,0,19.38-4.25,25.16-12.24h.34A75.987,75.987,0,0,0,43.265,0h22.95c-.34-3.91-.68-8.5-.68-13.6V-52.36c0-22.44-15.47-34.34-36.38-34.17a50.255,50.255,0,0,0-17,2.89,32.986,32.986,0,0,0-13.77,9.01,27.754,27.754,0,0,0-7.31,14.79l21.76,4.93a15.012,15.012,0,0,1,15.13-11.56c8.5,0,13.26,4.59,13.26,10.54,0,3.57-2.21,5.78-6.63,5.78h-8.16a55.039,55.039,0,0,0-20.23,3.4c-9.69,3.4-17,10.37-17,22.44v.68A22.907,22.907,0,0,0-2.465-5.27,29.734,29.734,0,0,0,17.255,1.7ZM24.4-16.32c-5.78,0-10.37-3.06-10.37-8.67a7.992,7.992,0,0,1,4.08-7.14,14.586,14.586,0,0,1,8.33-2.55h14.79v2.04a15.647,15.647,0,0,1-4.59,11.39A16.127,16.127,0,0,1,24.4-16.32Zm76.5,18.19a16.693,16.693,0,0,0,12.24-5.1,16.438,16.438,0,0,0,4.93-11.9,17.22,17.22,0,0,0-4.93-12.24,17.22,17.22,0,0,0-12.24-4.93,16.826,16.826,0,0,0-12.07,4.93,16.693,16.693,0,0,0-5.1,12.24,15.949,15.949,0,0,0,5.1,11.9A16.318,16.318,0,0,0,100.895,1.87Z" transform="translate(349 413.86)" fill="#212121"/>
      <line id="Line_1" data-name="Line 1" x2="246" transform="translate(204.5 237.5)" fill="none" stroke="#212121" stroke-linecap="square" stroke-width="15"/>
      <line id="Line_2" data-name="Line 2" y1="102" transform="translate(450.5 237.5)" fill="none" stroke="#212121" stroke-linecap="square" stroke-width="15"/>
      <line id="Line_3" data-name="Line 3" y2="226" transform="translate(204.5 237.5)" fill="none" stroke="#212121" stroke-linecap="square" stroke-width="15"/>
      <line id="Line_4" data-name="Line 4" x1="246" transform="translate(204.5 463.5)" fill="none" stroke="#212121" stroke-linecap="square" stroke-width="15"/>
    </g>
  </g>
</svg>
