<svg xmlns="http://www.w3.org/2000/svg" width="585" height="567.009" viewBox="0 0 585 567.009">
  <g id="Group_14334" data-name="Group 14334" transform="translate(1017.76 -1863.933)">
    <path id="Path_14729" data-name="Path 14729" d="M1331.981,1021.734a588.658,588.658,0,0,0,68.415-2.406c-.715-1.463-2.374-4.877-4.91-10.015-2.926-5.918-6.471-15.413-6.471-15.413a19.513,19.513,0,0,1-4.65,3.382c-3.317,1.886-5.008,1.723-5.658,1.528-.651-.227-7.251,3.252-7.251,3.252s-22.437,5.625-38.922,6.6-36.094-.325-36.419-.325-28.615-2.732-28.615-2.732l5.1,12.324C1290.359,1020.011,1310.715,1021.344,1331.981,1021.734Z" transform="translate(-1896.691 1144.035)" fill="#fff"/>
    <g id="Group_14277" data-name="Group 14277" transform="translate(-741.313 1885.808)">
      <g id="Group_14264" data-name="Group 14264" transform="translate(51.382 53.827)">
        <path id="Path_14730" data-name="Path 14730" d="M1087.529,384.074,1122,389.992s.325,7.219-1.041,12.421a26.9,26.9,0,0,1-3.512,8.194l-34.143-6.438s-3.577-1.463-2.341-9.495S1084.506,383.846,1087.529,384.074Z" transform="translate(-1080.702 -384.061)" fill="#fff"/>
      </g>
      <g id="Group_14265" data-name="Group 14265" transform="translate(1.072 87.267)">
        <path id="Path_14731" data-name="Path 14731" d="M1101.285,502.638s38.37-3.154,72.61,12.031,51.376,34.045,54.4,45.523,1.528,28.842-25.363,57.88l-23.412,26.014a29.85,29.85,0,0,1-13.885-9.755c-5.626-7.381-6.5-13.657-6.5-13.657l15.185-20.388L1189.5,576s-8.454,5.625-23.639,6.5-24.485-2.829-28.615-1.3c0,0,8.682,38.142,13.007,46.6L1136.6,639.5s-4.78,4.78-3.9,5.625,9.332-2.829,9.332-2.829-9.852,9.1-8.357,10.731,5.853-1.626,5.853-1.626-.878,2.374,0,3.024,12.682-4.552,12.682-4.552-4.325,4.878-4,6.731a102.074,102.074,0,0,1-22.534,7.056c-13.657,2.7-50.954,2.374-50.954,2.374s-33.069-1.2-39.345-3.349c0,0-3.512-11.543-6.926-26.241-3.675-16.258-5.626-29.038-5.626-29.038s-6.016.39-8.877.39c-10.405,0-31.769-.845-47.312-5.463-19.835-5.853-37.557-20.323-40.321-38.37s12.682-34.3,12.682-34.3l16.584-18.7,9.267-9.43L976.063,486.9s5.365,5.528,11.543,7.8a45.543,45.543,0,0,0,12.844,2.439l-10.893,19.835s-13.982,25.688-17.4,36.906l9.43-6.666s19.835-14.633,33.33-21.461a164.429,164.429,0,0,1,22.274-9.592s13.527,25.4,38.37,18.7C1097.806,528.912,1101.285,502.638,1101.285,502.638Z" transform="translate(-925.981 -486.9)" fill="#fff"/>
      </g>
      <g id="Group_14267" data-name="Group 14267" transform="translate(112.252 81.642)">
        <path id="Path_14741" data-name="Path 14741" d="M1332.023,490.963s-2.667,25.461-25.753,32.289-38.37-18.7-38.37-18.7l14.307-5.69-.162-25.038a14.366,14.366,0,0,0,10.08.488,48.725,48.725,0,0,0,10.08-4.715l4.553,14.145,4.064,9.267Z" transform="translate(-1267.9 -469.6)" fill="#fff"/>
      </g>
      <g id="Group_14268" data-name="Group 14268" transform="translate(102.325 44.573)">
        <path id="Path_14742" data-name="Path 14742" d="M1288.431,370.233s10.405-1.463,8.942-9.918-11.218-.65-11.218-.65l-21.786-4.065L1247.3,368.769l-1.138,3.414s-8.454-.65-8.78,6.829,7.641,6.016,10.405,3.414c0,0,3.414,11.869,13.657,14.47s15.933-1.788,15.933-1.788,8.292-6.341,10.243-13.494S1288.431,370.233,1288.431,370.233Z" transform="translate(-1237.37 -355.6)" fill="#fff"/>
      </g>
      <g id="Group_14269" data-name="Group 14269" transform="translate(51.121 62.411)">
        <path id="Path_14743" data-name="Path 14743" d="M1079.9,435.379l6.5-12.194,7.967.975,4.943-1.236s-5.918-11.706-4.227-12.421,9.755,7.089,9.755,7.089,3.414,5.138,3.187,8.779-3.414,11.641-3.642,12.1-4.065,7.316-4.065,7.316l-12.1-4.227Z" transform="translate(-1079.9 -410.458)" fill="#fff"/>
      </g>
      <g id="Group_14270" data-name="Group 14270" transform="translate(62.339 44.549)">
        <path id="Path_14744" data-name="Path 14744" d="M1114.4,364.916c.39-.488,5.138-9.918,6.243-9.365s.065,6.828.065,6.828,3.187-1.691,3.837.65c0,0,2.536-1.3,3.316.488,0,0,3.837,1.236,4.065,1.788s3.089,4.065,3.187,4.943,0,7.966-.813,7.966-3.089-6.828-3.089-6.828l-1.366-1.626s-.65,8.064-1.886,8.064-2.6-3.089-2.6-3.089-.715,1.951-1.138,1.691a10.06,10.06,0,0,1-2.016-3.187c.1-.325-1.041-6.568-1.041-6.568Z" transform="translate(-1114.4 -355.528)" fill="#fff"/>
      </g>
      <g id="Group_14271" data-name="Group 14271" transform="translate(207.729 221.041)">
        <path id="Path_14745" data-name="Path 14745" d="M1588.05,898.3l-14.86,12.291s-12.617,10.243-11.609,12.194,12.746-5.69,12.746-5.69-13.267,12.649-11.771,13.592c1.528.943,9.235-3.674,9.235-3.674s-4.91,4.162-3.382,5.105c1.528.91,14.86-5.821,14.86-5.821s-7.089,7.219-6.178,8,6.438-1.984,10.34-4.91a85.314,85.314,0,0,1,8.78-5.593s5.04-2.927,5.528-5.137a35.146,35.146,0,0,1-7.479-7.967A89.809,89.809,0,0,1,1588.05,898.3Z" transform="translate(-1561.524 -898.3)" fill="#fff"/>
      </g>
      <path id="Path_14746" data-name="Path 14746" d="M1599,916.411a.969.969,0,0,0-1.333.39c-1.756,3.154-4.552,4.683-8.1,6.6-.618.325-1.236.65-1.886,1.008-1.105.618-2.634,1.691-4.39,2.894-2.406,1.658-7.251,5.04-8.747,5.138a20.055,20.055,0,0,1,2.927-3.284,32.864,32.864,0,0,0,3.935-4.357c1.268-.748,2.113-1.268,2.113-1.268a.97.97,0,1,0-1.008-1.658c-.033.033-3.8,2.374-7.837,4.52-6.471,3.479-8.487,3.739-9.04,3.707a11.606,11.606,0,0,1,2.992-3.512c.52-.325,1.008-.618,1.5-.878,3.317-2.016,7.9-5.137,9.2-6.048a.983.983,0,1,0-1.105-1.626c-1.3.911-5.821,4-9.1,5.983-.325.2-.683.39-1.008.585a1.008,1.008,0,0,0-.423.2c-.065.065-.163.13-.228.2-.39.227-.748.455-1.138.715-2.309,1.431-5.463,3.414-6.536,3.154h-.032c.422-1.723,7.284-8.227,13.625-13.429a.894.894,0,0,0,.227-.293c.358-.227.683-.455.943-.618a.983.983,0,0,0-1.105-1.626c-7.186,4.878-12.877,7.869-14.7,8.227.293-.585,1.268-1.918,4.325-4.65,2.666-2.406,5.918-4.975,8.519-7.056.618-.488,1.2-.975,1.723-1.4,4.975-4.032,12.129-10.048,12.194-10.08a.97.97,0,0,0-1.235-1.5c-.065.065-7.219,6.048-12.194,10.08-.52.423-1.105.878-1.723,1.4-11.706,9.365-14.73,12.616-13.43,14.535a1.643,1.643,0,0,0,1.008.65,1.217,1.217,0,0,0,.358.033c1.268,0,3.512-.976,5.951-2.244-3.8,3.544-7.251,7.089-6.276,8.877a2.149,2.149,0,0,0,1.333,1.041,2.22,2.22,0,0,0,.683.065,8.6,8.6,0,0,0,3.837-1.333,1.926,1.926,0,0,0-.162.683,1.694,1.694,0,0,0,.52,1.333,2.053,2.053,0,0,0,1.5.52c1.463,0,4.13-.845,9.495-3.707.293-.163.585-.293.845-.455-2.439,2.406-4.162,4.195-3.154,5.69a1.811,1.811,0,0,0,1.171.748,1.846,1.846,0,0,0,.423.033c2.016,0,5.3-2.211,10.015-5.463,1.658-1.138,3.219-2.244,4.227-2.8.65-.358,1.268-.683,1.853-1.008,3.674-1.984,6.861-3.707,8.877-7.381A1.041,1.041,0,0,0,1599,916.411Z" transform="translate(-1350.498 -675.86)" fill="#1a1a1a"/>
      <path id="Path_14747" data-name="Path 14747" d="M1134.46,371.456l-.033-.91c-.1-3.447-1.073-4.715-2.666-6.763l-.065-.065c-1.821-2.341-3.674-2.374-4.617-2.179a4.7,4.7,0,0,0-1.008-1.106,2.941,2.941,0,0,0-3.382-.325,3.46,3.46,0,0,0-2.894-.683c1.073-4.1.715-5.268.195-5.885a1.6,1.6,0,0,0-1.5-.585c-2.211.358-4.975,6.373-6.438,9.95a.969.969,0,1,0,1.788.748c1.626-3.967,3.674-7.706,4.683-8.584.13,1.236-.781,5.008-2.179,8.747a.975.975,0,0,0,.585,1.268,1.158,1.158,0,0,0,.325.065.978.978,0,0,0,.91-.65c.032-.065.455-1.236.943-2.764.488-.26,1.788-.878,2.634.26,1.268,1.691,1.5,9.755.715,11.381-.715-.78-1.528-4.552-1.723-8.389a.961.961,0,0,0-1.041-.91.95.95,0,0,0-.911,1.008c.2,3.869.943,10.34,3.772,10.34h.032a1.547,1.547,0,0,0,.911-.325,4.086,4.086,0,0,0,1.138,1.658,2.451,2.451,0,0,0,1.528.553h.26c2.081-.228,2.536-4.195,2.471-6.894a2.076,2.076,0,0,1,.2.52q.2.78.39,1.463c.878,3.414,1.3,5.008,3.057,5.008h.065a1.608,1.608,0,0,0,1.2-.52C1134.59,376.041,1134.557,374.707,1134.46,371.456Zm-8.259,3.87c-.455-.065-.813-.91-.943-1.3a14.968,14.968,0,0,1-.455-1.951.12.12,0,0,0-.032-.1,25.738,25.738,0,0,0-.943-10.308.942.942,0,0,1,.975.2c1.268,1.073,1.919,3.479,2.146,8.032C1127.143,373.017,1126.525,374.935,1126.2,375.325Zm6.276-.065a22.965,22.965,0,0,1-1.073-3.414c-.13-.455-.228-.943-.39-1.463a12.422,12.422,0,0,0-2.406-3.87,16.108,16.108,0,0,0-.683-3.122,3.512,3.512,0,0,1,2.211,1.5l.065.065c1.5,1.918,2.179,2.8,2.244,5.625l.032.91A20.053,20.053,0,0,1,1132.476,375.26Z" transform="translate(-1050.432 -309.227)" fill="#1a1a1a"/>
      <path id="Path_14748" data-name="Path 14748" d="M1402.577,371.356a4.426,4.426,0,0,0-2.667-3.057,3.913,3.913,0,0,0-3.317.65.976.976,0,0,0,1.171,1.561,2.231,2.231,0,0,1,1.431-.39l-2.341,3.382a.991.991,0,0,0,.26,1.366.851.851,0,0,0,.553.163,1.017,1.017,0,0,0,.813-.423l2.114-3.057a3.627,3.627,0,0,1,.162.423.978.978,0,0,0,.911.65,1.152,1.152,0,0,0,.325-.065A.944.944,0,0,0,1402.577,371.356Z" transform="translate(-1242.232 -319.5)" fill="#1a1a1a"/>
      <path id="Path_14749" data-name="Path 14749" d="M1249.056,417.283l-1.724-1.723a2.705,2.705,0,0,1,.683-.488.951.951,0,0,0,.488-1.268.977.977,0,0,0-1.3-.488c-1.366.618-3.675,2.829-2.536,6.894a1.006,1.006,0,0,0,.943.715.716.716,0,0,0,.26-.033.983.983,0,0,0,.683-1.2,5.339,5.339,0,0,1-.163-2.309l1.3,1.3a.943.943,0,0,0,1.366,0A.982.982,0,0,0,1249.056,417.283Z" transform="translate(-1139.762 -349.916)" fill="#1a1a1a"/>
      <g id="Group_14272" data-name="Group 14272" transform="translate(135.695 53.755)">
        <path id="Path_14750" data-name="Path 14750" d="M1352.361,389.8a7.426,7.426,0,0,0-2.731.553c-2.634,1.041-3.967,3.024-3.512,4.162a2.257,2.257,0,0,0,1.756,1.106,6.974,6.974,0,0,0,3.642-.488c2.634-1.04,3.967-3.024,3.511-4.162C1354.767,390.288,1353.726,389.8,1352.361,389.8Z" transform="translate(-1344.067 -387.862)" fill="#fff"/>
        <path id="Path_14751" data-name="Path 14751" d="M1352.776,386.266h0c-.943-2.374-4.422-3.122-7.934-1.723s-5.56,4.325-4.617,6.7a4.023,4.023,0,0,0,3.219,2.309,7.616,7.616,0,0,0,1.236.1,9.424,9.424,0,0,0,3.447-.683C1351.67,391.566,1353.719,388.607,1352.776,386.266Zm-5.333,4.878a6.974,6.974,0,0,1-3.642.488,2.257,2.257,0,0,1-1.756-1.106c-.455-1.138.878-3.122,3.512-4.162.293-.13.585-.2.878-.293a2.8,2.8,0,0,0-.293,2.406,3.3,3.3,0,0,0,2.992,1.788A10.288,10.288,0,0,1,1347.443,391.143Z" transform="translate(-1339.995 -383.84)" fill="#1a1a1a"/>
      </g>
      <path id="Path_14752" data-name="Path 14752" d="M1289.861,413.8a7.429,7.429,0,0,0-2.732.553c-2.634,1.041-3.967,3.024-3.512,4.162a2.257,2.257,0,0,0,1.756,1.106,6.974,6.974,0,0,0,3.642-.488c2.634-1.04,3.967-3.024,3.512-4.162C1292.267,414.288,1291.226,413.8,1289.861,413.8Z" transform="translate(-1166.195 -350.303)" fill="#fff"/>
      <path id="Path_14753" data-name="Path 14753" d="M1290.276,410.266h0c-.943-2.374-4.422-3.122-7.934-1.723s-5.56,4.325-4.617,6.7a4.023,4.023,0,0,0,3.219,2.309,7.614,7.614,0,0,0,1.235.1,9.424,9.424,0,0,0,3.447-.683C1289.17,415.566,1291.219,412.607,1290.276,410.266Zm-5.333,4.878a6.973,6.973,0,0,1-3.642.488,2.257,2.257,0,0,1-1.756-1.106c-.455-1.138.878-3.122,3.512-4.162.163-.065.358-.13.52-.2a2.714,2.714,0,0,0-.26,2.374c.422,1.073,1.658,1.691,3.219,1.788A14.553,14.553,0,0,1,1284.943,415.143Z" transform="translate(-1162.123 -346.281)" fill="#1a1a1a"/>
      <g id="Group_14273" data-name="Group 14273" transform="translate(129.87 59.467)">
        <path id="Path_14754" data-name="Path 14754" d="M1324.59,412.1a1.011,1.011,0,0,1-.975-.878.979.979,0,0,1,.878-1.073c1.463-.13,2.276-.78,2.309-1.333.033-.423-.553-1.041-1.853-1.3a3.438,3.438,0,0,1-2.309-1.528,5.474,5.474,0,0,1-.358-3.869.978.978,0,1,1,1.886.52,3.6,3.6,0,0,0,.13,2.309,1.429,1.429,0,0,0,1.008.65c1.626.325,3.512,1.4,3.414,3.317-.065,1.4-1.366,2.926-4.065,3.187Z" transform="translate(-1322.08 -401.405)" fill="#1a1a1a"/>
      </g>
      <g id="Group_14274" data-name="Group 14274" transform="translate(132.808 71.302)">
        <ellipse id="Ellipse_927" data-name="Ellipse 927" cx="3.902" cy="2.406" rx="3.902" ry="2.406" transform="translate(0 7.443) rotate(-72.5)" fill="#1a1a1a"/>
      </g>
      <g id="Group_14275" data-name="Group 14275" transform="translate(50.534 52.525)">
        <path id="Path_14755" data-name="Path 14755" d="M1179.822,396.368a1,1,0,0,0-.813-.845l-10.243-1.756a.976.976,0,0,0-.358,1.919l9.495,1.626a35.722,35.722,0,0,1-.683,9.527,31.239,31.239,0,0,1-3.414,9.365l-7.8-1.561a.963.963,0,1,0-.39,1.886l8.454,1.691c.065,0,.13.033.2.033a.969.969,0,0,0,.78-.39c.1-.13,2.471-3.317,4.065-10.633A33.873,33.873,0,0,0,1179.822,396.368Z" transform="translate(-1136.638 -389.297)" fill="#1a1a1a"/>
        <path id="Path_14756" data-name="Path 14756" d="M1097.119,382.314l-12.129-2.146c-.065-.033-.162-.033-.228-.065a.243.243,0,0,1-.162-.033h-.033a1.093,1.093,0,0,0-.325,0h-.065c-2.666.293-4.845,5.235-5.69,10.373a24.628,24.628,0,0,0-.162,7.674c.52,3.122,1.788,4,2.764,4.162h0l13.2,2.471c.065,0,.13.032.2.032a.945.945,0,0,0,.943-.78.988.988,0,0,0-.781-1.138l-10.633-1.984a8.8,8.8,0,0,0,1.073-1.626,23.342,23.342,0,0,0,2.308-7.316,24.625,24.625,0,0,0,.163-7.674,10.181,10.181,0,0,0-.455-1.788l9.69,1.723h.162a1,1,0,0,0,.975-.813A.984.984,0,0,0,1097.119,382.314Zm-11.511,2.309a22.5,22.5,0,0,1-.162,7.024,21.665,21.665,0,0,1-2.114,6.7c-.878,1.593-1.626,2.114-1.951,2.049-.293-.065-.878-.78-1.171-2.569a22.488,22.488,0,0,1,.162-7.024c.91-5.528,3.024-8.714,3.967-8.747l.163.033C1084.827,382.216,1085.347,382.964,1085.607,384.622Z" transform="translate(-1078.094 -380.056)" fill="#1a1a1a"/>
      </g>
      <path id="Path_14757" data-name="Path 14757" d="M1289.037,969.044a.985.985,0,0,0-1.106.845v.228a13.411,13.411,0,0,0-1.691.683c-.325.228-8,4.943-8,4.943s4.617,11.413,4.617,11.836c0,.358,5.2,10.6,6.731,13.592a581.552,581.552,0,0,1-68.415,2.406c-21.3-.39-41.719-1.724-59.538-3.837l-5.756-13.527-5.463-17.3a1,1,0,0,0,.683-1.04,1.029,1.029,0,0,0-1.073-.878c-13.95,1.561-25.493,3.674-33.427,6.178-8.812,2.764-13.137,5.885-13.2,9.495-.13,7.414,18.892,12.551,34.858,15.51,22.112,4.13,51.572,6.731,82.918,7.316,4.455.1,8.845.13,13.2.13,26.371,0,50.823-1.5,69.943-4.357,16.1-2.406,35.281-6.8,35.411-14.21C1339.925,977.434,1308.059,971.646,1289.037,969.044Z" transform="translate(-1044.636 -723.616)" fill="#1a1a1a"/>
      <g id="Group_14276" data-name="Group 14276" transform="translate(0 0)">
        <path id="Path_14758" data-name="Path 14758" d="M1645.107,1004.815c-2.5-5.4-5.17-11.446-5.2-11.511a.982.982,0,0,0-1.789.813c.033.065,2.7,6.146,5.2,11.576,4.715,10.113,6.6,14.112,6.6,14.145a.959.959,0,0,0,.878.553,1,1,0,0,0,.423-.1.974.974,0,0,0,.455-1.3C1651.708,1018.894,1649.822,1014.927,1645.107,1004.815Z" transform="translate(-1405.422 -740.982)" fill="#1a1a1a"/>
        <path id="Path_14759" data-name="Path 14759" d="M1223.893,371.9c-11.739-20.908-44.905-40.743-80.641-48.287a168.134,168.134,0,0,0-43.767-3.284l-.293-.1a.98.98,0,0,0-.683.163,129.1,129.1,0,0,0-19.9,2.7l-8.877-22.989a26.455,26.455,0,0,0,5.788-9.43,24.937,24.937,0,0,0,1.691-12.064,10.226,10.226,0,0,0,8.877-7.219,6.484,6.484,0,0,0-2.959-7.446c-3.609-2.146-7.511.423-9.365,1.984a18.408,18.408,0,0,0-5.788-7.089c7.349-3.187,11.251-11.023,13.267-15.055a22.929,22.929,0,0,0,.878-16.291,12.61,12.61,0,0,0-6.991-7.576,15.411,15.411,0,0,0-13.007.1c-5.528,2.569-9.853,8.227-12.161,15.9-2.764,9.137-.943,14.958.78,17.982a45.489,45.489,0,0,0-14.307,4.065c-6.634,2.992-11.8,6.666-13.007,8.194a.976.976,0,0,0-.032,1.171c.228.325,4.715,6.438,10.438,9.1a20.881,20.881,0,0,0-.423,2.146,8.331,8.331,0,0,0-8.617,4.52,7.066,7.066,0,0,0,1.528,8.422,6.265,6.265,0,0,0,4.162,1.528,9.657,9.657,0,0,0,4.618-1.333c2.6,6.536,6.666,10.958,12.129,13.1.162.065.358.13.52.2l.325,9.137v.683c0,.1.033.2.033.293l.487,13.755c-5.268,1.723-25.688,8.649-41.426,17.754a299.641,299.641,0,0,0-29.4,19.478l-6.048,4.26c3.642-9.43,10.21-21.656,13.527-27.8l14.015-26.013a1.4,1.4,0,0,0,.325-.748v-.1c0-.455-.228-1.593-2.276-2.926a98.555,98.555,0,0,0,4.812-10.015,13.152,13.152,0,0,0-1.3-13.007c-.91-1.268-7.772-9.625-11.023-9.853a1.755,1.755,0,0,0-1.463.52c-.748.78-1.171,2.309,1.366,7.869.813,1.756,1.691,3.414,2.243,4.455-1.528.488-3.967,1.561-4.91,3.479a.974.974,0,1,0,1.756.845c.78-1.561,3.739-2.536,4.813-2.764a.974.974,0,0,0,.683-.553,1.034,1.034,0,0,0-.033-.878c-2.8-4.845-4.845-9.885-4.52-11.023.325.065,1.528.455,4.52,3.382a61.512,61.512,0,0,1,5.008,5.658,13.007,13.007,0,0,1,.911,1.5,11.806,11.806,0,0,1,.195,9.625,74.6,74.6,0,0,1-6.666,12.942,40.62,40.62,0,0,1-7.609-2.276,29.709,29.709,0,0,1-11.023-7.154,72.884,72.884,0,0,0,5.853-11.283.978.978,0,0,0-1.821-.715,71.294,71.294,0,0,1-5.756,11.088,1.094,1.094,0,0,0-.162.455.032.032,0,0,1-.033.033l-.032.033a160.508,160.508,0,0,1-15.8,19.705l-1.268,1.3c-16.584,16.974-30.891,31.639-33.037,47.377-1.5,10.926,2.114,21.429,10.47,30.371,7.446,7.967,18.534,14.5,31.281,18.4,16.193,4.943,34.988,5.821,46.109,5.821,4.227,0,7.381-.13,8.812-.2.943,6.081,6.926,42.142,19.575,68.025a.959.959,0,0,0,.878.553,1,1,0,0,0,.422-.1.974.974,0,0,0,.456-1.3c-1.854-3.8-3.577-7.837-5.138-11.966,5.04.943,21.916,3.674,45.653,3.674,6.438,0,13.364-.2,20.713-.683,16.779-1.138,27.834-3.642,34.175-5.56,6.926-2.081,9.853-3.9,9.983-4a.965.965,0,0,0-1.04-1.626c-.1.065-11.576,7.121-43.248,9.235-31.151,2.081-57.229-1.106-67.017-3.154-9.4-25.591-13.527-53.88-13.592-54.205v-.065a.12.12,0,0,0-.032-.1c0-.033-.033-.065-.033-.1s-.032-.065-.032-.1a.07.07,0,0,0-.065-.065c-.032-.033-.032-.065-.065-.065l-.065-.065c-.032-.033-.065-.033-.065-.065-.033,0-.033-.033-.065-.033-.032-.032-.065-.032-.1-.065-.032,0-.032-.033-.065-.033-.032-.032-.065-.032-.13-.032h-.065a.246.246,0,0,1-.13-.033h-.162c-.293.033-30.761,1.983-55.148-5.5-12.422-3.8-23.217-10.145-30.436-17.852-7.934-8.487-11.381-18.437-9.982-28.777,2.081-15.088,16.161-29.558,32.517-46.271l1.268-1.3c2.991-3.057,5.821-6.406,8.259-9.462A37.852,37.852,0,0,0,990.1,329.561l-6.536,12.161c-4.39,8.194-14.6,27.086-16.1,36.321a35.694,35.694,0,0,0-1.333,9.137,5.585,5.585,0,0,0,5.04,5.17,5.9,5.9,0,0,0,1.041.1,5.262,5.262,0,0,0,5.17-3.609,61.423,61.423,0,0,0,1.853-7.024,58.346,58.346,0,0,1,2.5-8.877c3.544-8.779,12.714-15.8,15.608-17.884l.943-.65c.065-.065.13-.1.2-.163,3.057-1.918,6.276-3.9,9.657-5.853a196.42,196.42,0,0,1,26.111-12.194,43.455,43.455,0,0,0,9.072,11.121,33.212,33.212,0,0,0,22.079,8.649,36.5,36.5,0,0,0,6.341-.585c9.82-1.821,17.852-8.292,23.185-18.7a55.77,55.77,0,0,0,4.975-14.372,164.769,164.769,0,0,1,42.987,3.252,159.922,159.922,0,0,1,49.458,19.315c13.885,8.454,24.518,18.4,29.883,28,10.763,19.152-.748,35.541-10.015,48.71-5.138,7.284-15.706,19.185-24.062,28.257-14.7-3.739-20.778-18.4-21.688-20.843,4.227-5.886,9.592-13.657,15.088-22.6,7.869-12.779,11.836-18.632,13.072-20.42l.455-.65c.293-.39,3.674-4.877,2.049-8.227-.846-1.756-3.415-3.772-6.7-4.195a8.9,8.9,0,0,0-8.1,3.317c-1.463,1.723-2.309,4.422-3.317,7.544-2.179,6.861-4.845,15.283-15.413,16.518l-3.317.163c-.1,0-.163.033-.26.033a135.2,135.2,0,0,1-19.087-1.431c-7.641-1.073-14.633,3.284-15.25,3.707a34.384,34.384,0,0,0-4.129,2.569c-3.024,2.146-4.553,4-4.65,5.658a5.125,5.125,0,0,0,1.593,4.552c1.983,1.658,5.625,1.756,11.121.325a5.429,5.429,0,0,1,4.325.618c2.992,1.821,5.625,6.731,7.641,14.242.488,1.984.781,3.219.813,3.252a.958.958,0,0,0,.325.52,114.973,114.973,0,0,0,4.39,13.234.989.989,0,0,0,.878.585.865.865,0,0,0,.39-.1.988.988,0,0,0,.488-1.3c-1.723-3.837-4.13-12.1-6.341-20.583-2.6-10.7-5.5-22.729-5.951-25.4a15.982,15.982,0,0,1,4.13.033c11.673,1.626,26.664,2.5,38.435-.976l.13-.032a.37.37,0,0,0,.26-.1l.032-.033a38.285,38.285,0,0,0,4.91-1.853c-1.365,2.146-2.861,4.585-4.552,7.349a368.969,368.969,0,0,1-23.575,33.882.032.032,0,0,1-.032.032.169.169,0,0,0-.065.13c0,.032-.032.065-.032.1s-.033.065-.033.1a91.236,91.236,0,0,1-.065.2v.2c0,.065.032.1.032.163v.033h0c.13.39,2.732,8.91,7.836,14.665a42.608,42.608,0,0,0,12.682,9.2.867.867,0,0,0,.39.1,1.008,1.008,0,0,0,.715-.293c.26-.293,26.826-28,36.029-41.1,4.682-6.666,9.983-14.21,12.779-22.7C1229.843,390.074,1228.965,380.872,1223.893,371.9ZM968.149,315.188c2.731-3.479,4.813-6.438,5.821-7.9a32.328,32.328,0,0,0,11.348,7.219,35.808,35.808,0,0,0,11.348,2.764l-5.593,10.405A36.511,36.511,0,0,1,968.149,315.188Zm59.473-25.135a5.135,5.135,0,0,1-1.073-6.113,6.43,6.43,0,0,1,6.634-3.414,23.946,23.946,0,0,0,1.235,9.332C1030.711,292.1,1028.435,290.768,1027.622,290.053Zm8.91-.13a21.969,21.969,0,0,1-.845-12.779,11.057,11.057,0,0,0,2.894.52h.228c6.243,0,12.909-7.837,15.478-11.186,1.008,1.918,3.349,4.812,8.519,5.4,7.349.845,10.958-3.122,11.316-3.577.26-.26,4.585-4.715,8.032-2.666a4.483,4.483,0,0,1,2.049,5.268,8.424,8.424,0,0,1-8.162,5.853.955.955,0,0,0-.748.39,1.092,1.092,0,0,0-.162.845c0,.033,1.236,4.78-1.431,12-3.837,10.34-10.991,13.169-14.893,13.95C1055.033,304.685,1042.222,305.888,1036.531,289.923Zm56.644,45.816c-5.138,10.015-12.454,15.966-21.819,17.689-9.918,1.821-18.892-.715-26.729-7.576a41.082,41.082,0,0,1-8.552-10.438c6.633-2.536,11.836-4.26,13.69-4.845l.13-.033c.033,0,.033,0,.033-.033.032,0,.065-.032.1-.032a.114.114,0,0,0,.065-.033c.032-.032.065-.032.065-.065.032-.033.065-.033.065-.065l.065-.065c.032-.033.032-.065.065-.065.032-.032.032-.065.065-.065,0-.033.032-.065.032-.1s.033-.065.033-.1.032-.065.032-.1v-.26l-.488-13.95c11.966-2.764,17.917-7.381,19.965-9.332l7.056,18.274c0,.033.032.033.032.065s0,.033.033.065a.247.247,0,0,1,.065.13v.032c.032.033.065.1.13.13l.032.033a.451.451,0,0,0,.13.1.032.032,0,0,1,.032.033c.032.033.1.033.13.065h.032a.294.294,0,0,0,.162.032h.228a.121.121,0,0,0,.1-.032h.032a117.643,117.643,0,0,1,19.575-2.8A50.67,50.67,0,0,1,1093.176,335.739ZM1176.841,461.9a39.911,39.911,0,0,1-11.413-8.389c-4.162-4.715-6.666-11.608-7.284-13.462.878-1.106,3.414-4.357,6.958-9.17a43.755,43.755,0,0,0,4.553,8.064c5.593,7.739,12.1,11.088,17.006,12.519C1181.914,456.538,1178.142,460.538,1176.841,461.9Z" transform="translate(-922.686 -218.524)" fill="#1a1a1a"/>
      </g>
    </g>
    <g id="Group_14278" data-name="Group 14278" transform="translate(-963.82 1863.933)">
      <path id="Path_14760" data-name="Path 14760" d="M710.7,695.889a49.994,49.994,0,0,1-14.763-2.276c-9.527-2.926-17.559-10.145-22.632-20.323-7.121-14.275-7.414-32.322-.748-50.759a209.216,209.216,0,0,0,12.291-62.367c.2-5.008.163-9.918-.065-14.632-7.576,8.422-16.1,16.681-34.728,19.25-8.617,1.2-18.535-4.13-29.4-15.836a124.927,124.927,0,0,1-13.657-17.754.97.97,0,0,1,1.658-1.008c.228.358,22.014,35.313,41.134,32.647,18.99-2.634,27.119-11.446,34.825-20.063-.845-12.421-3.187-23.477-6.828-32.062-3.447-8.1-11.316-19.835-29.33-29.785-17.071-9.43-39.085-14.958-65.424-16.453-52.059-2.959-84.771-18.632-109.354-52.417-17.364-23.9-43.6-45.361-66.724-64.286-10.926-8.942-21.233-17.364-28.745-24.68-9.462-9.2-23.64-27.412-33.395-49.36-16.681,2.016-32,2.146-41.491.845a82.679,82.679,0,0,1-39.8-17.364c-11.609-9.3-19.9-21.136-23.314-33.33a45.112,45.112,0,0,1,.52-27.054c3.219-9.527,9.657-18.307,19.185-26.078,13.657-11.153,30.045-17.559,48.71-19.12,15.9-1.333,33.525.91,52.384,6.568,32.972,9.95,64.416,29.1,82.885,43.735,33.882,26.859,72.187,33.817,72.577,33.882a.976.976,0,1,1-.358,1.918,157.174,157.174,0,0,1-23.737-6.829c-12.779-4.682-31.8-13.234-49.686-27.412-18.307-14.5-49.555-33.525-82.235-43.41-18.6-5.625-36-7.8-51.669-6.5-18.242,1.528-34.273,7.8-47.637,18.7-9.235,7.511-15.478,16-18.567,25.168a43.073,43.073,0,0,0-.488,25.883c3.317,11.8,11.381,23.282,22.664,32.354a80.669,80.669,0,0,0,38.858,16.974c9.235,1.268,24.16,1.171,40.418-.78-.2-.423-.358-.878-.553-1.3-13.332-31.769-8.324-50.141-1.788-59.928,5.983-9.007,16.876-14.828,30.631-16.388a69.2,69.2,0,0,1,36.549,5.983c7.121,3.447,12.584,8.064,15.771,13.332a22.376,22.376,0,0,1,2.016,19.38c-2.8,8.584-9.658,16.161-20.388,22.567-9.137,5.463-20.908,9.983-34.955,13.429a222.454,222.454,0,0,1-24.453,4.52c9.657,21.429,23.477,39.183,32.744,48.19,7.446,7.251,17.754,15.673,28.615,24.583,23.184,19.055,49.523,40.613,67.049,64.708,24.192,33.265,56.449,48.71,107.858,51.637,26.631,1.528,48.938,7.121,66.269,16.681,18.5,10.21,26.631,22.339,30.175,30.728,3.544,8.357,5.853,18.925,6.829,30.826a72.667,72.667,0,0,1,10.178-9.755,52.169,52.169,0,0,1,22.241-10.113,34.226,34.226,0,0,1,21.916,3.089c19.152,9.755,29.33,37.232,28.68,77.422-.358,21.786-3.544,40.353-9.462,55.246-5.3,13.332-12.682,23.51-21.981,30.241A46.26,46.26,0,0,1,710.7,695.889ZM686.609,543.516c.325,5.365.39,10.991.2,16.746a211.878,211.878,0,0,1-12.389,62.952c-6.471,17.917-6.243,35.411.65,49.23,4.78,9.56,12.584,16.584,21.461,19.315,14.275,4.39,28.582,2.114,40.288-6.406,8.975-6.536,16.128-16.421,21.3-29.4,5.821-14.665,8.975-33,9.3-54.563.65-39.378-9.17-66.269-27.607-75.634-12.519-6.373-27.834-3.87-42.077,6.861A76.568,76.568,0,0,0,686.609,543.516Zm-306.8-347.734c-14.828,0-29.2,4.943-36.516,15.966-6.276,9.4-11.023,27.119,1.951,58.107.26.618.52,1.2.781,1.821a223.947,223.947,0,0,0,24.81-4.552c13.852-3.414,25.461-7.869,34.435-13.234,10.308-6.178,16.876-13.4,19.543-21.526A20.65,20.65,0,0,0,423,214.577c-2.992-4.943-8.162-9.3-14.958-12.584A66.145,66.145,0,0,0,379.814,195.782Z" transform="translate(-238.398 -151.251)" fill="#1a1a1a"/>
    </g>
    <g id="Group_14333" data-name="Group 14333" transform="translate(-1017.76 2039.831)">
      <path id="Path_14761" data-name="Path 14761" d="M553.9,1148.353c-6.828-8.942-18.7-13.169-18.7-13.169s-25.851,40.484-59.993,52.027-45.523-12.194-54.3-25.363-18.209-43.572-18.209-43.572a115.686,115.686,0,0,0-16.746-32.192c-12.031-16.258-30.891-26.5-42.434-31.541s-22.274-8.942-22.274-8.942l-4.877,4.715-55.929,79.016-46.174,26.6s-1.593,2.666-3.577,5.983a.937.937,0,0,1-.033.78.978.978,0,0,1-.78.553c-2.959,4.91-6.406,10.536-6.8,10.8-.585.39-12.909,14.6-15.38,17.429,21.494,18.73,50.141,40.061,81.682,60.774,14.015,9.2,27.932,17.851,41.3,25.72l28.192-34.63c-.13-.1-.228-.162-.358-.26a.976.976,0,0,1,1.171-1.561,3.715,3.715,0,0,1,.423.325l14.958-18.372c41.3,33.167,90.071,27.477,90.071,27.477s30.566-2.6,65.359-28.615,50.238-61.782,50.238-61.782S560.732,1157.295,553.9,1148.353Z" transform="translate(-150.246 -930.686)" fill="#fff"/>
      <g id="Group_14279" data-name="Group 14279" transform="translate(222.149 128.896)">
        <path id="Path_14762" data-name="Path 14762" d="M770.788,1088.6s5.755,10.958,12.454,16.811c6.731,5.853,17.006,9.658,17.006,9.658l-18.957,23.087L755.7,1102.615Z" transform="translate(-755.7 -1088.6)" fill="#fff"/>
      </g>
      <g id="Group_14284" data-name="Group 14284" transform="translate(227.612 131.79)">
        <g id="Group_14281" data-name="Group 14281">
          <g id="Group_14280" data-name="Group 14280">
            <path id="Path_14763" data-name="Path 14763" d="M784.954,1107.84a59.5,59.5,0,0,1-6.5-10.34c-1.008.943-2.081,1.821-3.057,2.8-.228.228-.455.488-.683.715l-.032.033a16.13,16.13,0,0,1-1.138,1.886,5.8,5.8,0,0,1-1.041,1.4,71.374,71.374,0,0,0,5.56,8.422,64.533,64.533,0,0,0,23.932,19.282c1.886-2.341,4.162-4.292,6.113-6.569A55.18,55.18,0,0,1,784.954,1107.84Z" transform="translate(-772.5 -1097.5)" fill="#fff"/>
          </g>
        </g>
        <g id="Group_14283" data-name="Group 14283" transform="translate(16.031 34.435)">
          <g id="Group_14282" data-name="Group 14282">
            <path id="Path_14764" data-name="Path 14764" d="M821.8,1203.4a36.31,36.31,0,0,1,2.861,5.463c.39,1.073.65,2.146.943,3.252.033.065.13.423.228.715.13.2.455.813.585,1.073.65-.586,1.268-1.171,1.919-1.756.65-.618,1.268-1.235,1.853-1.886a11.278,11.278,0,0,0,.813-.943c.033-.065.1-.13.163-.228a7.131,7.131,0,0,1,.455-.585A50.272,50.272,0,0,1,821.8,1203.4Z" transform="translate(-821.8 -1203.4)" fill="#fff"/>
          </g>
        </g>
      </g>
      <path id="Path_14765" data-name="Path 14765" d="M805.131,1143.835c0-.033-.032-.033,0,0,.878-1.5,1.756-2.959,2.634-4.487a50.363,50.363,0,0,0-8.194-4.065s-1.268,2.016-3.642,5.235c-.423.553-.878,1.073-1.333,1.593-.065.163-.13.325-.228.521-9.2,12.226-29.785,36.223-54.791,44.678-34.142,11.544-45.523-12.194-54.3-25.363s-18.209-43.572-18.209-43.572a115.681,115.681,0,0,0-16.746-32.192c-12.031-16.258-30.891-26.5-42.434-31.541s-22.274-8.942-22.274-8.942l-4.878,4.715L579.4,1052.3c7.219,1.4,27.314,7.219,43.117,18.307,18.209,13.137,24.875,30.078,34.143,54.466,6.5,17.136,14.958,43.215,29.558,59.538a.1.1,0,0,0-.065-.032s7.837,8.292,9.983,15.348-1.951,14.08-4.552,17.071c-3.479,4-4.455,9.007.846,10.86s17.331-7.414,26.566-16.226c13.072-12.454,30.631-18.795,30.631-18.795l-.683.2a123.749,123.749,0,0,0,41.2-29.623,68.989,68.989,0,0,1,19.12,22.7,15.964,15.964,0,0,1,1.853-2.7c1.268-1.593,2.8-2.991,4.13-4.552a77.983,77.983,0,0,0-19.347-22.111c1.5-1.854,2.927-3.739,4.325-5.691a66.129,66.129,0,0,1,18.47,22.632,27.4,27.4,0,0,0,1.463-2.472c.162-.325.325-.618.455-.943a2.989,2.989,0,0,1,.1-.292,14.474,14.474,0,0,0,.487-2.049,5.289,5.289,0,0,1,2.374-3.512C817.325,1154.013,813.651,1150.7,805.131,1143.835Z" transform="translate(-414.578 -930.753)" fill="#fff"/>
      <g id="Group_14309" data-name="Group 14309" transform="translate(165.484 29.237)">
        <path id="Path_14789" data-name="Path 14789" d="M615.568,879.725l3.674-28.842a33.918,33.918,0,0,0,19.933-5.853c10.178-6.731,9.983-13.657,11.056-14.73s6.763-8.032,8.877-8.357,6.438-5.528,5.138-7.869-6.829.065-8.617-1.3-2.536-10.568-4.552-14.372-10.405-15.023-13.592-16.193-10.73,9.1-10.73,9.1l-20.1,6.243s-19.25,2.861-19.575,3.089-5.365,10.34-5.365,10.34-.585,11.316-.065,11.381,6.113,17.4,6.113,17.4l-.813,28.029s11.641,4.227,16.323,6.243S615.568,879.725,615.568,879.725Z" transform="translate(-581.437 -782.114)" fill="#fff"/>
      </g>
      <g id="Group_14310" data-name="Group 14310" transform="translate(237.269 106.599)">
        <path id="Path_14790" data-name="Path 14790" d="M833.058,1020.344s1.528,2.829-1.4,5.528-5.951,5.853-5.625,6.6,2.276,4,2.276,4,9.983,3.024,9.332,3.252-13.885,25.916-13.885,25.916a56.946,56.946,0,0,1-12.356-9.755,63.127,63.127,0,0,1-9.2-13.559s7.479-10.633,9.1-11.933,15.706-9.43,15.706-9.43S831.53,1019.368,833.058,1020.344Z" transform="translate(-802.2 -1020.028)" fill="#fff"/>
      </g>
      <g id="Group_14311" data-name="Group 14311" transform="translate(384.96 167.461)">
        <path id="Path_14791" data-name="Path 14791" d="M1256.4,1244.236l5.95-9.17s.748-8.552-.878-12.356-3.252-14.86.748-15.51a16.2,16.2,0,0,1,4.227,5.2,49.893,49.893,0,0,0,3.024,5.3s4-5.853,7.9-6.731,6.926-.228,7.154,1.073.878,4.552,1.626,4.877,4.975,1.4,4.975,2.829c0,1.4.878,3.577,1.528,3.9s1.528,2.829,2.049,3.577c.553.748,2.6,2.049,2.6,4.455s-2.179,12.779-6.406,18.209-11.934,13.559-11.934,13.559-6.406-8.682-10.178-11.933S1256.4,1244.236,1256.4,1244.236Z" transform="translate(-1256.4 -1207.2)" fill="#fff"/>
      </g>
      <g id="Group_14312" data-name="Group 14312" transform="translate(385.025 167.494)">
        <path id="Path_14792" data-name="Path 14792" d="M1262.29,1207.95l.358-.455c-.163-.13-.228-.2-.228-.2-4,.65-2.374,11.706-.748,15.51s.878,12.356.878,12.356l-5.951,9.169s3.9,1.821,7.609,4l.585.065a16.126,16.126,0,0,0,4.162-8.032c1.073-6.178-3.252-16.811-5.625-23.509C1261.25,1211.17,1262.29,1207.95,1262.29,1207.95Z" transform="translate(-1256.6 -1207.3)" fill="#fff"/>
      </g>
      <g id="Group_14313" data-name="Group 14313" transform="translate(2.676 0)">
        <path id="Path_14793" data-name="Path 14793" d="M325.16,699.158c-3.349-6.276-13.657-9.332-24.29-4.78s-11.056,12.356-19.087,11.056a35.452,35.452,0,0,0-28.842,8.032c-9.755,8.259-12.779,10.633-19.933,8.454s-18.632-.228-27.542,13.234c-8.877,13.429-15.38,17.331-25.786,16.031a37.545,37.545,0,0,0-33.817,14.958c-8.877,12.129-7.381,16.258-20.388,20.16s-23.64,9.983-25.591,19.087S95.332,818.82,89.707,824.9s-12.812,16.356-6.5,29.493c6.666,13.885,15.12,13.072,21.721,28.712,5.105,12.129,15.12,32.191,34.63,36.516s40.971-10.405,52.9-7.576,23.412,4.78,32.939-8.682,11.706-16.031,20.583-20.583,11.934-11.934,9.983-27.542-14.08-35.768-5.853-48.352S264,786.3,261.395,775.247s-11.218-14.5-10.8-21.006,6.146-11.966,11.706-9.755c7.089,2.829,4.91,9.007,8.552,9.723,3.219.65,4.455-3.219,5.951-9.3,1.528-6.081,1.788-8.91,6.276-8.454,4.975.52,10.373,1.886,13.527-2.016,2.439-2.992.585-5.268,2.309-8.617,2.6-5.008,10.47-.813,19.9-7.641S327.046,702.67,325.16,699.158Z" transform="translate(-80.747 -692.2)" fill="#1a1a1a"/>
      </g>
      <g id="Group_14314" data-name="Group 14314" transform="translate(174.662 54.528)">
        <path id="Path_14794" data-name="Path 14794" d="M610.65,868.348a.9.9,0,0,1-.293-.033.988.988,0,0,1-.65-1.236c2.211-7.024,7.186-7.641,9.495-6.991a.978.978,0,1,1-.52,1.886c-.228-.065-4.91-1.2-7.089,5.69A1,1,0,0,1,610.65,868.348Z" transform="translate(-609.662 -859.891)" fill="#1a1a1a"/>
      </g>
      <g id="Group_14315" data-name="Group 14315" transform="translate(178.911 55.287)">
        <path id="Path_14795" data-name="Path 14795" d="M626.133,869.665a.99.99,0,0,1-.878-.585l-2.439-5.463a.982.982,0,1,1,1.788-.813l2.439,5.463a.988.988,0,0,1-.488,1.3A.725.725,0,0,1,626.133,869.665Z" transform="translate(-622.727 -862.227)" fill="#1a1a1a"/>
      </g>
      <g id="Group_14316" data-name="Group 14316" transform="matrix(-0.966, -0.259, 0.259, -0.966, 227.403, 49.477)">
        <path id="Path_14796" data-name="Path 14796" d="M2.942,5.554A12.262,12.262,0,0,1,.828,5.391a.97.97,0,1,1,.293-1.918C7.3,4.351,9.868.481,9.9.449a.965.965,0,1,1,1.626,1.041C11.428,1.685,8.86,5.554,2.942,5.554Z" transform="translate(0 0)" fill="#1a1a1a"/>
      </g>
      <path id="Path_14797" data-name="Path 14797" d="M741.152,861.018a16.607,16.607,0,0,0,6.243.293c1.366-.228,2.309-.715,2.406-1.268s-.553-1.366-1.691-2.146a17.221,17.221,0,0,0-5.788-2.309,20.5,20.5,0,0,0-4.162-.488c-2.634,0-4.325.683-4.487,1.431C733.446,857.669,736.242,859.945,741.152,861.018Z" transform="translate(-518.678 -802.13)" fill="#fff"/>
      <path id="Path_14798" data-name="Path 14798" d="M745.205,852.368a18.976,18.976,0,0,0-6.471-2.6c-4.845-1.041-10.308-.553-10.958,2.439s4.13,5.723,8.975,6.763a20.585,20.585,0,0,0,4.552.52,14.251,14.251,0,0,0,2.439-.2c2.276-.39,3.674-1.366,4-2.764C748,855.164,747.124,853.668,745.205,852.368Zm-15.543.26c.162-.748,1.853-1.431,4.487-1.431a18.62,18.62,0,0,1,4.162.488,17.176,17.176,0,0,1,2.309.65c-1.756.325-2.959,1.008-3.187,2.016s.585,2.114,2.049,3.122a15.677,15.677,0,0,1-2.374-.39C732.231,856.01,729.435,853.733,729.662,852.628Z" transform="translate(-514.667 -798.195)" fill="#1a1a1a"/>
      <g id="Group_14317" data-name="Group 14317" transform="translate(203.441 74.722)">
        <path id="Path_14799" data-name="Path 14799" d="M713.761,925.977c1.5.293,3.048-.4,4.739-.631,2.926-.39,2.959,3.447,1.951,5.723-1.3,2.927-5.268,4.585-10.926,3.609s-12.942-4.715-11.056-10.145,18.372-.683,20.03.813c1.038.927-4.05,2.38-5.989,2.226C711.222,927.469,712.852,925.8,713.761,925.977Z" transform="translate(-698.166 -921.996)" fill="#1a1a1a"/>
      </g>
      <path id="Path_14800" data-name="Path 14800" d="M802.905,1111.191c-.032-3.447-4.91-7.8-5.463-8.292a.968.968,0,0,0-1.463.228l-3.154,5.3a36.231,36.231,0,0,1-8.162-5.983,73.032,73.032,0,0,1-12.161-16.323.032.032,0,0,0-.032-.032c-.032-.033-.032-.065-.065-.1s-.033-.065-.065-.065l-.033-.032-.032-.033c-.032-.033-.065-.033-.065-.065-.032-.032-.065-.032-.065-.065a.113.113,0,0,1-.065-.033c-.033,0-.065-.032-.1-.032s-.065-.033-.1-.033a.12.12,0,0,1-.1-.032h-.293a78.286,78.286,0,0,0-.2.065c-.032,0-.065.032-.1.032a12.284,12.284,0,0,1-.065.065c-.032.032-.065.032-.1.065s-.065.033-.065.065l-.032.032-13.657,13.332a.973.973,0,0,0-.033,1.366.992.992,0,0,0,.683.293.937.937,0,0,0,.683-.293l12.746-12.422a74.257,74.257,0,0,0,11.9,15.673,42.126,42.126,0,0,0,16.226,9.592l-17.1,20.648a.946.946,0,0,0,.13,1.366.913.913,0,0,0,.618.227.973.973,0,0,0,.748-.357L801.9,1113.6A3.193,3.193,0,0,0,802.905,1111.191Z" transform="translate(-534.42 -957.679)" fill="#1a1a1a"/>
      <g id="Group_14320" data-name="Group 14320" transform="translate(235.139 76.416)">
        <g id="Group_14318" data-name="Group 14318" transform="translate(1.108 1.684)">
          <path id="Path_14801" data-name="Path 14801" d="M800.793,968.224l8.357,3.024s37.069,13.234,37.394,12.909,5.625-4.975,7.479-10.178a73.792,73.792,0,0,0,2.829-11.8L841.8,951.217l-19.282-15.185-5.756-3.252s-1.626-2.927-8.682,7.154a48.513,48.513,0,0,0-8.227,19.933S797.542,966.6,800.793,968.224Z" transform="translate(-799.056 -932.385)" fill="#fff"/>
        </g>
        <path id="Path_14802" data-name="Path 14802" d="M831.453,1030.51c1.333-.878,2.667-1.756,4.032-2.634,3.707-2.439,7.511-4.91,11.836-5.95a5.959,5.959,0,0,1,2.146-.2,2.419,2.419,0,0,1,1.789,1.073,2.707,2.707,0,0,1-.455,2.991,18.66,18.66,0,0,1-2.406,2.114,19.937,19.937,0,0,0-2.634,2.861c-.878,1.105-1.821,2.406-1.5,3.8a7.259,7.259,0,0,0,1.561,2.439,2.494,2.494,0,0,1,.488,2.7c-.618.975-2.081.878-3.219.65-1.918-.39-3.87-.813-5.788-1.2a14.966,14.966,0,0,1-5.008-1.691,12.911,12.911,0,0,1-2.991-2.959C827.682,1032.331,829.86,1031.55,831.453,1030.51Z" transform="translate(-817.975 -990.972)" fill="#fff"/>
        <g id="Group_14319" data-name="Group 14319" transform="translate(26.648 23.704)">
          <path id="Path_14803" data-name="Path 14803" d="M899.484,1030.831a1.154,1.154,0,0,1-.325-.065l-20.908-7.284a.94.94,0,0,1-.585-1.236.979.979,0,0,1,1.236-.585l20.388,7.089a27.3,27.3,0,0,0,7.023-9.983,43.756,43.756,0,0,0,2.634-10.5l-8.552-6.406a.975.975,0,0,1,1.171-1.561l9.007,6.731a.963.963,0,0,1,.39.845,45.468,45.468,0,0,1-2.829,11.576A28.858,28.858,0,0,1,900.1,1030.6.912.912,0,0,1,899.484,1030.831Z" transform="translate(-877.601 -1000.105)" fill="#1a1a1a"/>
        </g>
        <path id="Path_14804" data-name="Path 14804" d="M825.418,935.528l-9.82-7.349a1.935,1.935,0,0,0-.911-.78c-4.065-1.854-10.828,10.08-13.852,16.648s-7.641,19.51-3.609,21.363a2.814,2.814,0,0,0,.748.2l8.162,2.829a1.155,1.155,0,0,0,.325.065.966.966,0,0,0,.293-1.886l-6.048-2.081c3.739-2.927,8.1-10.828,10.373-15.738,2.179-4.747,5.2-12.844,5.17-17.656l7.967,5.951a.976.976,0,0,0,1.366-.2A.946.946,0,0,0,825.418,935.528Zm-11.673-.748a63.312,63.312,0,0,1-4.552,13.1,64.347,64.347,0,0,1-6.959,12c-2.569,3.349-3.935,3.707-4.1,3.609-.2-.1-.78-1.333.065-5.5a63.307,63.307,0,0,1,4.552-13.1,64.342,64.342,0,0,1,6.958-12c2.374-3.089,3.707-3.642,4.032-3.642h.065C814,929.383,814.59,930.651,813.745,934.78Z" transform="translate(-795.649 -927.206)" fill="#1a1a1a"/>
      </g>
      <g id="Group_14322" data-name="Group 14322" transform="translate(258.395 78.728)">
        <g id="Group_14321" data-name="Group 14321" transform="translate(0.563 0.905)">
          <path id="Path_14805" data-name="Path 14805" d="M879.4,937.521c.585.2.488,4.878,1.04,4.552s3.512-.488,4.39.911a17.4,17.4,0,0,1,1.463,4.487s2.341-.585,3.187.39a7.24,7.24,0,0,1,1.04,3.252s2.439.325,3.187,1.788,1.463,6.113,1.463,6.113.325,4.813-.26,4.813-3.739-3.187-3.739-3.187-.488,2.927-1.236,2.927-3.317-4.487-3.317-4.487-1.366,4.162-2.439,3.837-2.764-3.837-3.252-8.519a23.866,23.866,0,0,0-1.626-7.089s-6.341,13.006-9.267,10.991.715-7.414.715-7.414l4.065-8.65-3.739-2.732A8.275,8.275,0,0,1,879.4,937.521Z" transform="translate(-868.9 -937.098)" fill="#fff"/>
        </g>
        <path id="Path_14806" data-name="Path 14806" d="M894.688,957.333a57.2,57.2,0,0,0-1.3-6.341,3.516,3.516,0,0,0-3.284-2.764c-.13-.618-.26-1.138-.358-1.463a3.559,3.559,0,0,0-4-2.439,16.931,16.931,0,0,0-.781-2.666,4.517,4.517,0,0,0-4.877-2.8,4.371,4.371,0,0,0-1.366-3.512c-4.1-3.154-9.983,1.886-10.243,2.081a.968.968,0,0,0,1.268,1.463c.033-.033,4.942-4.195,7.771-2.016,1.3,1.008.488,6.113-1.886,11.641-1.529,3.544-3.9,6.568-5.56,7.089a.928.928,0,0,1-.878-.065c-.065-.13-.585-1.366,1.788-7.446,1.333-3.382,2.894-6.568,2.927-6.6a.974.974,0,0,0-1.756-.845c-.032.033-1.723,3.512-3.122,7.154-2.146,5.625-2.439,8.422-.878,9.4a2.747,2.747,0,0,0,1.5.423,3.82,3.82,0,0,0,1.008-.163c2.6-.813,5.268-4.715,6.763-8.194.13-.325.358-.846.618-1.528.163,1.5.423,3.577.78,5.658.748,4.357,1.723,8.454,3.837,8.649h.26a2.246,2.246,0,0,0,1.561-.65,4.488,4.488,0,0,0,1.008-1.5c.683,1.4,1.723,2.764,3.154,2.764a2.846,2.846,0,0,0,.52-.065,1.751,1.751,0,0,0,1.17-.943,1.2,1.2,0,0,0,.163-.358,5.173,5.173,0,0,0,2.276,1.723,2.262,2.262,0,0,0,.748.13,1.543,1.543,0,0,0,.976-.325C894.916,962.535,895.4,962.145,894.688,957.333Zm-11.739,2.8c-1.073-.683-2.5-7.316-3.122-14.633a.945.945,0,0,0-.683-.845,25.221,25.221,0,0,0,.845-3.837,2.689,2.689,0,0,1,3.154,1.528c1.073,2.8,1.333,6.373,1.4,10.893.033,3.187-.52,6.016-1.333,6.763A.389.389,0,0,1,882.949,960.129Zm5.723.618c-.585-.065-1.658-1.723-2.276-4-.033-.065-.033-.13-.065-.2a28.42,28.42,0,0,0,.162-3.317,55.118,55.118,0,0,0-.423-6.959,1.62,1.62,0,0,1,1.821,1.106A48.283,48.283,0,0,1,889,954.6C889.355,959.219,888.835,960.487,888.672,960.747Zm2.471-2.634a.463.463,0,0,0-.065-.195,34.585,34.585,0,0,0-.163-3.9c-.1-1.3-.26-2.6-.455-3.74a1.811,1.811,0,0,1,1.073,1.3,49.453,49.453,0,0,1,1.593,9.495A4.643,4.643,0,0,1,891.144,958.113Z" transform="translate(-867.168 -934.316)" fill="#1a1a1a"/>
      </g>
      <g id="Group_14323" data-name="Group 14323" transform="translate(36.068 219.671)">
        <path id="Path_14807" data-name="Path 14807" d="M184.4,1410.371a.886.886,0,0,1-.683-.293.972.972,0,0,1,0-1.366c.228-.227,22.5-22.176,28.224-40.255a.987.987,0,0,1,1.886.585c-2.471,7.8-8.064,17.1-16.584,27.607-6.341,7.8-12.064,13.4-12.1,13.462A1.387,1.387,0,0,1,184.4,1410.371Z" transform="translate(-183.437 -1367.762)" fill="#1a1a1a"/>
      </g>
      <g id="Group_14324" data-name="Group 14324" transform="translate(261.38 125.171)">
        <path id="Path_14808" data-name="Path 14808" d="M877.341,1098.916a1.029,1.029,0,0,1-.52-.13.964.964,0,0,1-.325-1.333,161.112,161.112,0,0,0,10.015-19.705.969.969,0,0,1,1.788.748,162.77,162.77,0,0,1-10.145,19.965A.927.927,0,0,1,877.341,1098.916Z" transform="translate(-876.348 -1077.144)" fill="#1a1a1a"/>
      </g>
      <path id="Path_14809" data-name="Path 14809" d="M1293.715,1197.15c-.065-.033-.13-.1-.163-.1a2.984,2.984,0,0,1-.26-.976,4.592,4.592,0,0,0-.52-1.593,4.111,4.111,0,0,0-1.658-1.366c-.325-.162-.52-.26-.585-.39a2.512,2.512,0,0,1-.228-1.3,4.131,4.131,0,0,0-.813-2.731,4.915,4.915,0,0,0-3.512-1.626c-.585-.1-1.333-.227-1.431-.455a4.559,4.559,0,0,1-.2-1.171c-.195-1.854-.585-5.3-5.138-5.82-4.617-.52-9.169,4.129-10.6,5.69l-3.252-3.349c-.065-.065-.13-.1-.163-.13-2.114-3.87-3.414-5.007-4.422-5.2a13.9,13.9,0,0,1-1.463-12.1.977.977,0,0,0-1.854-.618,15.763,15.763,0,0,0,1.4,13.3,4.411,4.411,0,0,0-1.105,1.3c-1.431,2.569-1.333,7.414.228,12.031a36.169,36.169,0,0,1,1.561,14.763c-.423.78-3.284,5.1-5.886,8.91a.991.991,0,0,0,.26,1.366.852.852,0,0,0,.553.162,1.017,1.017,0,0,0,.813-.423c6.048-8.877,6.113-9.3,6.178-9.56a36.883,36.883,0,0,0-1.626-15.8c-1.626-4.747-1.333-8.747-.39-10.438a1.839,1.839,0,0,1,.976-.911c1.333.423,5.04,7.446,8.194,15.478v.032c0,.033.033.065.033.1.032.033.032.065.065.1v.032l.032.032.1.1c.032,0,.032.032.065.032a.168.168,0,0,0,.13.065c.032,0,.032.032.065.032.065.033.13.033.2.065h0c.065,0,.13.033.2.033h.195c.065,0,.1-.033.13-.033h.032a.032.032,0,0,0,.033-.032c.032,0,.065-.033.1-.065.032,0,.032-.032.065-.032a.032.032,0,0,0,.033-.033,25.174,25.174,0,0,0,2.862-2.536c2.016-2.049,3.056-3.9,3.154-5.5a.961.961,0,1,0-1.919-.1,5.929,5.929,0,0,1-1.561,3.089l-2.6-2.666c1.594-1.853,5.593-5.56,9.007-5.17,2.992.358,3.219,2.244,3.414,4.1a5.406,5.406,0,0,0,.358,1.756c.52,1.2,1.788,1.4,2.894,1.561a3.549,3.549,0,0,1,2.276.91,2.243,2.243,0,0,1,.423,1.561,4.722,4.722,0,0,0,.423,2.146,2.917,2.917,0,0,0,1.431,1.268,2.177,2.177,0,0,1,.911.683,3.756,3.756,0,0,1,.227.878,3.235,3.235,0,0,0,1.106,2.211,1.393,1.393,0,0,0,.228.13,3.222,3.222,0,0,1,1.886,2.926v.553c-.065,2.5-.13,6.731-5.3,15.576-4.032,6.893-12.747,14.99-12.812,15.055a.973.973,0,0,0-.065,1.366,1.044,1.044,0,0,0,.715.325.967.967,0,0,0,.65-.26c.358-.325,9.007-8.357,13.2-15.51,5.43-9.3,5.5-13.82,5.56-16.519v-.52A5.3,5.3,0,0,0,1293.715,1197.15Zm-23.8-5.04c-.455-1.105-1.171-2.829-2.016-4.715l3.382,3.447C1270.791,1191.33,1270.3,1191.752,1269.913,1192.11Z" transform="translate(-869.475 -1010.082)" fill="#1a1a1a"/>
      <g id="Group_14328" data-name="Group 14328" transform="translate(290.426 118.191)">
        <path id="Path_14813" data-name="Path 14813" d="M1036.021,1118.181a36.319,36.319,0,0,1-5.549-.423c-20.947-3.154-21.271-13.625-21.549-23.77-.092-3.707-.231-7.544-1.387-10.991-3.33-9.917-16-22.534-40.693-25.4-.74-.1-1.249-.585-1.156-1.105a1.448,1.448,0,0,1,1.572-.813c26.034,2.992,39.4,16.356,42.959,26.859,1.2,3.609,1.341,7.576,1.434,11.381.139,5.04.277,9.787,2.775,13.69,2.728,4.325,8,6.926,16.6,8.227a26.566,26.566,0,0,0,16-2.048c6.381-3.122,10.312-8.747,12.439-12.909a49.865,49.865,0,0,0,3.5-8.6c.092-.52.523-.827,1.263-.73.74.065.84.363.7.883-.139.651-3.013,16.449-16.331,22.952A28.028,28.028,0,0,1,1036.021,1118.181Z" transform="translate(-965.677 -1055.677)" fill="#1a1a1a"/>
      </g>
      <path id="Path_14817" data-name="Path 14817" d="M319.183,1492.941c-13.332-13.657-33.135-30.338-57.229-48.222a.983.983,0,0,0-1.366.195.968.968,0,0,0,.163,1.333l-28.29,34.6c-13.234-7.771-26.956-16.323-40.808-25.4-31.509-20.713-60.156-42.077-81.682-60.774,1.723-1.951,8.162-9.332,12.1-13.365,3.772-3.934,8.194-12.258,9.56-14.957h0a.974.974,0,0,0,.845-1.756c-15.771-7.674-29.363-13.169-39.313-15.868-10.958-2.992-17.429-2.731-19.77.846-2.081,3.186-.455,8.357,5.04,15.835,5.008,6.8,13.007,15.218,23.77,25.038,22.111,20.1,53.49,43.767,88.348,66.692s69.033,42.337,96.25,54.661c13.267,6.016,24.16,10.015,32.387,11.934a42.015,42.015,0,0,0,9.04,1.236c3.739,0,6.211-.975,7.479-2.894C338.888,1517.231,333.327,1507.443,319.183,1492.941Z" transform="translate(-72.516 -1133.859)" fill="#1a1a1a"/>
      <path id="Path_14818" data-name="Path 14818" d="M814.04,1123.468c-11.446-21.916-25.623-25.493-26.208-25.656h-.423c-.032,0-.032,0-.065.032-.032,0-.065.033-.1.033s-.033.032-.065.032c-.032.032-.065.032-.1.065-.033,0-.033.032-.065.032-.032.032-.065.032-.1.065l-.065.065c-.033.032-.065.065-.065.1v.032a151.576,151.576,0,0,1-37.459,39.7c-15.185,10.893-30.078,16.161-41.914,14.828-11.251-1.268-21.786-9.722-31.314-25.1-7.024-11.348-13.364-25.981-20-46.076-4.715-14.275-11.023-25.916-19.25-35.573-6.569-7.706-14.21-14.08-24.778-20.713-2.731-1.723-5.593-3.317-8.422-4.78l3.187-28.094a.966.966,0,0,0-1.919-.228L601.8,1019.61c-6.113-3.057-12.1-5.528-16.714-7.283-4.39-1.691-7.9-2.829-10.048-3.512-4.195-1.333-4.487-1.236-4.747-1.138a.986.986,0,0,0,.293,1.919h0c2.048.325,24.062,7.154,40.451,17.4,16.356,10.243,32.94,24.03,43.215,55.246,9.788,29.688,25.916,69.488,52.937,72.512a34.63,34.63,0,0,0,4.1.228c14.5,0,29.1-8.194,39.183-15.413a152.608,152.608,0,0,0,37.557-39.605c2.829.943,14.438,5.853,24.095,24.062a111.784,111.784,0,0,1-8.259,15.283,180.814,180.814,0,0,1-29.915,35.541c-31.021,28.712-65.391,41.946-99.371,38.337a133.67,133.67,0,0,1-48.58-15.25,112.821,112.821,0,0,1-18.307-12.031h0c-.13-.13-13.787-11.706-19.575-23.64a97.118,97.118,0,0,1-5.885-15.673c-1.138-3.772-1.886-6.276-3.284-7.674a5.76,5.76,0,0,0-5.463-1.4,7.755,7.755,0,0,0-5.463,5.235c-.813,2.5-4.357,15.966,6.7,33.557a84.877,84.877,0,0,0,10.308,12.714c6.406,6.861,9.722,10.828,6.406,15.38l-.65.813a1.139,1.139,0,0,0-.2.455l-28.712,35.8a.977.977,0,0,0,.163,1.365,1.108,1.108,0,0,0,.618.228.925.925,0,0,0,.748-.358l43.832-54.661a118.712,118.712,0,0,0,17.819,11.608,136.043,136.043,0,0,0,49.36,15.511,110.268,110.268,0,0,0,53.458-7.9c16.453-6.633,32.419-17.071,47.442-30.956,28.68-26.5,38.727-51.7,38.825-51.961A1.57,1.57,0,0,0,814.04,1123.468Z" transform="translate(-402.612 -894.095)" fill="#1a1a1a"/>
      <path id="Path_14819" data-name="Path 14819" d="M719.113,807.992c-1.658-1.4-3.447-1.073-5.2-.78a11.564,11.564,0,0,1-2.6.228c-.78-.033-.813-.033-1.268-2.5a56.057,56.057,0,0,0-2.244-8.78c-3.284-9.82-15.608-20.388-16.128-20.843a.968.968,0,0,0-1.268,1.463c.13.1,12.421,10.666,15.576,19.965a54.645,54.645,0,0,1,2.179,8.519c.455,2.471.715,3.967,3.089,4.1a12.914,12.914,0,0,0,3.057-.26c1.691-.293,2.7-.423,3.609.358a2.205,2.205,0,0,1,.65,1.983c-.2,1.3-1.3,3.089-3.9,4.26-4.422,1.951-8.617,6.5-11.218,12.194a29.571,29.571,0,0,1-14.177,14.86c-7.121,3.349-15.478,3.609-24.875.715h-.032c-.032,0-.065-.033-.1-.033h-.227a.119.119,0,0,0-.1.033c-.033,0-.065,0-.065.032-.065.033-.1.033-.163.065-.032,0-.032.032-.065.032-.033.033-.065.033-.1.065l-.065.065c-.032.032-.065.032-.065.065l-.065.065c0,.032-.033.032-.033.065a.032.032,0,0,1-.032.033h0c-.26.488-2.666,5.333,3.447,15.153A22,22,0,0,1,670.11,871.3l-.358,2.992a.974.974,0,0,0,.78,1.073c.065,0,.13.032.2.032a1,1,0,0,0,.943-.715,16.535,16.535,0,0,0,.423-3.414l2.894-23.867c.585.033,1.2.033,1.788.033a31.132,31.132,0,0,0,13.365-2.894,31.6,31.6,0,0,0,15.12-15.8c2.374-5.17,6.308-9.495,10.243-11.218,2.829-1.236,4.715-3.414,5.04-5.755A4.5,4.5,0,0,0,719.113,807.992Z" transform="translate(-470.723 -748.128)" fill="#1a1a1a"/>
      <g id="Group_14332" data-name="Group 14332" transform="translate(236.211 105.695)">
        <path id="Path_14820" data-name="Path 14820" d="M825.041,1044.937a1.148,1.148,0,0,1-.455-.1.953.953,0,0,1-.423-1.3c1.886-3.642,1.463-7.771-1.236-12.291-.13-.227-.2-.358-.26-.455-.423-1.008.325-1.919,5.463-6.7l.553-.52c1.431-1.333,1.951-2.8,1.756-3.577-.065-.26-.228-.618-.975-.781-.553-.13-3.317.553-9.95,4.1-4.585,2.439-9.137,5.268-10.373,6.471-2.569,2.5-8.357,11.12-8.389,11.218a.983.983,0,1,1-1.626-1.106c.228-.358,5.95-8.909,8.682-11.543,2.471-2.374,18.7-11.868,22.111-11.056a3.025,3.025,0,0,1,2.406,2.179c.423,1.626-.488,3.8-2.309,5.5l-.553.52a60.842,60.842,0,0,0-4.812,4.78c2.081,3.512,3.967,8.812,1.268,14.112A.994.994,0,0,1,825.041,1044.937Z" transform="translate(-798.945 -1017.249)" fill="#1a1a1a"/>
      </g>
    </g>
  </g>
</svg>
